<svg width="50" height="49" viewBox="0 0 50 49" fill="none" xmlns="http://www.w3.org/2000/svg">
<path d="M30.5 17.1429H17V19.7143H30.5V17.1429ZM30.5 12H17V14.5714H30.5V12ZM35 22.2857V17.1429H32.75V22.2857H28.25V24.8571H32.75V30H35V24.8571H39.5V22.2857H35ZM17 24.8571H26V22.2857H17V24.8571Z" fill="url(#paint0_linear)"/>
<path d="M5.60186 44H6.76397L4.22002 36.9541H3.04326L0.499317 44H1.62236L2.27178 42.0957H4.95732L5.60186 44ZM3.57549 38.1992H3.6585L4.679 41.2168H2.5501L3.57549 38.1992ZM9.28275 44.0879C10.0152 44.0879 10.6353 43.7412 10.9527 43.1602H11.0357V44H12.0415V36.6172H10.9917V39.5371H10.9136C10.6255 38.9561 10.0103 38.6045 9.28275 38.6045C7.93998 38.6045 7.07572 39.6738 7.07572 41.3438C7.07572 43.0234 7.93022 44.0879 9.28275 44.0879ZM9.58061 39.5029C10.4595 39.5029 11.0113 40.2158 11.0113 41.3486C11.0113 42.4912 10.4644 43.1895 9.58061 43.1895C8.69193 43.1895 8.15971 42.501 8.15971 41.3486C8.15971 40.2012 8.69682 39.5029 9.58061 39.5029ZM15.3221 44.0879C16.0545 44.0879 16.6746 43.7412 16.992 43.1602H17.075V44H18.0808V36.6172H17.031V39.5371H16.9529C16.6648 38.9561 16.0496 38.6045 15.3221 38.6045C13.9793 38.6045 13.115 39.6738 13.115 41.3438C13.115 43.0234 13.9695 44.0879 15.3221 44.0879ZM15.6199 39.5029C16.4988 39.5029 17.0506 40.2158 17.0506 41.3486C17.0506 42.4912 16.5037 43.1895 15.6199 43.1895C14.7312 43.1895 14.199 42.501 14.199 41.3486C14.199 40.2012 14.7361 39.5029 15.6199 39.5029ZM22.2835 37.3594V38.7119H21.4387V39.5518H22.2835V42.6035C22.2835 43.624 22.7473 44.0342 23.9143 44.0342C24.1194 44.0342 24.3147 44.0098 24.4856 43.9805V43.1455C24.3391 43.1602 24.2463 43.1699 24.0852 43.1699C23.5628 43.1699 23.3333 42.9209 23.3333 42.3496V39.5518H24.4856V38.7119H23.3333V37.3594H22.2835ZM27.6685 44.1025C29.2212 44.1025 30.1733 43.0625 30.1733 41.3486C30.1733 39.6348 29.2163 38.5947 27.6685 38.5947C26.1157 38.5947 25.1587 39.6396 25.1587 41.3486C25.1587 43.0625 26.1108 44.1025 27.6685 44.1025ZM27.6685 43.209C26.7554 43.209 26.2427 42.5303 26.2427 41.3486C26.2427 40.167 26.7554 39.4834 27.6685 39.4834C28.5767 39.4834 29.0942 40.167 29.0942 41.3486C29.0942 42.5254 28.5767 43.209 27.6685 43.209ZM38.209 43.0479H34.9082V36.9541H33.8144V44H38.209V43.0479ZM39.7756 37.75C40.1418 37.75 40.4397 37.4521 40.4397 37.0908C40.4397 36.7246 40.1418 36.4268 39.7756 36.4268C39.4094 36.4268 39.1115 36.7246 39.1115 37.0908C39.1115 37.4521 39.4094 37.75 39.7756 37.75ZM39.2531 44H40.2981V38.6973H39.2531V44ZM41.479 40.1816C41.479 40.9678 41.9477 41.417 42.9585 41.6514L43.8862 41.8711C44.4184 41.998 44.6674 42.2129 44.6674 42.5449C44.6674 42.9795 44.2036 43.2822 43.5493 43.2822C42.9145 43.2822 42.5239 43.0234 42.3921 42.6084H41.3422C41.435 43.5312 42.2602 44.1025 43.5249 44.1025C44.7944 44.1025 45.727 43.4336 45.727 42.4473C45.727 41.6758 45.2534 41.2412 44.2426 41.0068L43.3588 40.8018C42.7827 40.665 42.5141 40.46 42.5141 40.1328C42.5141 39.7031 42.9585 39.415 43.5444 39.415C44.1401 39.415 44.521 39.6738 44.6186 40.0693H45.6245C45.5219 39.1514 44.7407 38.5947 43.5444 38.5947C42.3432 38.5947 41.479 39.2588 41.479 40.1816ZM47.0837 37.3594V38.7119H46.239V39.5518H47.0837V42.6035C47.0837 43.624 47.5476 44.0342 48.7146 44.0342C48.9196 44.0342 49.1149 44.0098 49.2858 43.9805V43.1455C49.1394 43.1602 49.0466 43.1699 48.8854 43.1699C48.363 43.1699 48.1335 42.9209 48.1335 42.3496V39.5518H49.2858V38.7119H48.1335V37.3594H47.0837Z" fill="url(#paint1_linear)"/>
<defs>
<linearGradient id="paint0_linear" x1="28.25" y1="12" x2="28.25" y2="30" gradientUnits="userSpaceOnUse">
<stop stop-color="#D3C095"/>
<stop offset="1" stop-color="#A07923"/>
</linearGradient>
<linearGradient id="paint1_linear" x1="24.9585" y1="34" x2="24.9585" y2="46" gradientUnits="userSpaceOnUse">
<stop stop-color="#D3C095"/>
<stop offset="1" stop-color="#A07923"/>
</linearGradient>
</defs>
</svg>
