<svg width="50" height="49" viewBox="0 0 50 49" fill="none" xmlns="http://www.w3.org/2000/svg">
<path d="M33.6667 16.6667H29.2222V10H22.5556V16.6667H18.1111L25.8889 25.5556L33.6667 16.6667ZM17 27.7778H34.7778V30H17V27.7778Z" fill="url(#paint0_linear)"/>
<path d="M2.74869 36.9541V44H5.29264C7.39225 44 8.60807 42.7012 8.60807 40.46C8.60807 38.2432 7.38248 36.9541 5.29264 36.9541H2.74869ZM3.84244 37.8965H5.17057C6.63053 37.8965 7.49479 38.8486 7.49479 40.4746C7.49479 42.1152 6.64518 43.0576 5.17057 43.0576H3.84244V37.8965ZM11.9765 44.1025C13.5292 44.1025 14.4813 43.0625 14.4813 41.3486C14.4813 39.6348 13.5243 38.5947 11.9765 38.5947C10.4237 38.5947 9.4667 39.6396 9.4667 41.3486C9.4667 43.0625 10.4188 44.1025 11.9765 44.1025ZM11.9765 43.209C11.0634 43.209 10.5507 42.5303 10.5507 41.3486C10.5507 40.167 11.0634 39.4834 11.9765 39.4834C12.8847 39.4834 13.4022 40.167 13.4022 41.3486C13.4022 42.5254 12.8847 43.209 11.9765 43.209ZM22.2247 38.6973H21.1749L20.2277 42.7891H20.1447L19.0509 38.6973H18.0451L16.9513 42.7891H16.8732L15.921 38.6973H14.8566L16.3214 44H17.4005L18.4943 40.0449H18.5773L19.6759 44H20.7648L22.2247 38.6973ZM23.0687 44H24.1185V40.8896C24.1185 40.0352 24.6117 39.5078 25.3881 39.5078C26.1644 39.5078 26.5355 39.9375 26.5355 40.8164V44H27.5853V40.5674C27.5853 39.3027 26.931 38.5947 25.7445 38.5947C24.9437 38.5947 24.4164 38.9512 24.1576 39.5371H24.0795V38.6973H23.0687V44ZM28.8737 44H29.9235V36.6172H28.8737V44ZM33.5067 44.1025C35.0594 44.1025 36.0116 43.0625 36.0116 41.3486C36.0116 39.6348 35.0546 38.5947 33.5067 38.5947C31.954 38.5947 30.9969 39.6396 30.9969 41.3486C30.9969 43.0625 31.9491 44.1025 33.5067 44.1025ZM33.5067 43.209C32.5936 43.209 32.0809 42.5303 32.0809 41.3486C32.0809 40.167 32.5936 39.4834 33.5067 39.4834C34.4149 39.4834 34.9325 40.167 34.9325 41.3486C34.9325 42.5254 34.4149 43.209 33.5067 43.209ZM38.506 44.0879C39.2042 44.0879 39.7853 43.7852 40.1026 43.248H40.1856V44H41.1964V40.3721C41.1964 39.2588 40.4444 38.5947 39.1114 38.5947C37.9054 38.5947 37.046 39.1758 36.9386 40.0693H37.9542C38.0714 39.6836 38.4767 39.4639 39.0626 39.4639C39.7804 39.4639 40.1515 39.791 40.1515 40.3721V40.8359L38.711 40.9238C37.4464 41.002 36.7335 41.5537 36.7335 42.5059C36.7335 43.4727 37.4806 44.0879 38.506 44.0879ZM38.7745 43.2432C38.2032 43.2432 37.7882 42.9551 37.7882 42.4619C37.7882 41.9785 38.1202 41.7197 38.8526 41.6709L40.1515 41.583V42.042C40.1515 42.7256 39.5655 43.2432 38.7745 43.2432ZM44.3939 44.0879C45.1263 44.0879 45.7464 43.7412 46.0638 43.1602H46.1468V44H47.1527V36.6172H46.1029V39.5371H46.0247C45.7367 38.9561 45.1214 38.6045 44.3939 38.6045C43.0511 38.6045 42.1869 39.6738 42.1869 41.3438C42.1869 43.0234 43.0413 44.0879 44.3939 44.0879ZM44.6917 39.5029C45.5706 39.5029 46.1224 40.2158 46.1224 41.3486C46.1224 42.4912 45.5755 43.1895 44.6917 43.1895C43.8031 43.1895 43.2708 42.501 43.2708 41.3486C43.2708 40.2012 43.8079 39.5029 44.6917 39.5029Z" fill="url(#paint1_linear)"/>
<defs>
<linearGradient id="paint0_linear" x1="25.8889" y1="10" x2="25.8889" y2="30" gradientUnits="userSpaceOnUse">
<stop stop-color="#D3C095"/>
<stop offset="1" stop-color="#A07923"/>
</linearGradient>
<linearGradient id="paint1_linear" x1="24.9165" y1="34" x2="24.9165" y2="46" gradientUnits="userSpaceOnUse">
<stop stop-color="#D3C095"/>
<stop offset="1" stop-color="#A07923"/>
</linearGradient>
</defs>
</svg>
