<svg width="169" height="44" viewBox="0 0 169 44" fill="none" xmlns="http://www.w3.org/2000/svg">
<g filter="url(#filter0_d)">
<rect width="169" height="44" rx="10" fill="black" stroke="url(#paint0_linear)" stroke-width="2"/>
<path d="M64.8392 27.6553H58.9125V23.5381H64.5321V22.21H58.9125V18.3667H64.8392V17.022H57.4183V29H64.8392V27.6553ZM70.1173 25.6465L72.234 29.0249H73.9273L70.8477 24.4927L73.8858 20.0767H72.2672L70.1671 23.4053H70.0343L67.9093 20.0767H66.2076L69.3038 24.5508L66.2408 29.0249H67.8595L69.9845 25.6465H70.1173ZM79.8196 19.894C78.5994 19.894 77.5286 20.5166 76.9558 21.5459H76.823V20.0518H75.4617V31.9883H76.8894V27.6553H77.0223C77.512 28.6016 78.5413 29.1577 79.8196 29.1577C82.094 29.1577 83.5799 27.3232 83.5799 24.5259C83.5799 21.7119 82.1023 19.894 79.8196 19.894ZM79.4793 27.8711C77.8689 27.8711 76.8479 26.5762 76.8479 24.5259C76.8479 22.4673 77.8689 21.1807 79.4876 21.1807C81.1228 21.1807 82.1023 22.4341 82.1023 24.5259C82.1023 26.6177 81.1228 27.8711 79.4793 27.8711ZM85.4961 29H86.9238V16.499H85.4961V29ZM92.9655 29.1577C95.5139 29.1577 97.091 27.3979 97.091 24.5259C97.091 21.6455 95.5139 19.894 92.9655 19.894C90.4172 19.894 88.84 21.6455 88.84 24.5259C88.84 27.3979 90.4172 29.1577 92.9655 29.1577ZM92.9655 27.8711C91.2722 27.8711 90.3176 26.6426 90.3176 24.5259C90.3176 22.4009 91.2722 21.1807 92.9655 21.1807C94.6589 21.1807 95.6135 22.4009 95.6135 24.5259C95.6135 26.6426 94.6589 27.8711 92.9655 27.8711ZM98.9242 29H100.352V23.4551C100.352 22.1934 101.34 21.2803 102.701 21.2803C102.983 21.2803 103.498 21.3301 103.614 21.3633V19.9355C103.432 19.9106 103.133 19.894 102.9 19.894C101.713 19.894 100.684 20.5083 100.418 21.3799H100.286V20.0518H98.9242V29ZM110.669 26.6841C110.295 27.4727 109.515 27.896 108.361 27.896C106.842 27.896 105.854 26.7754 105.779 25.0073V24.9409H112.213V24.3931C112.213 21.6123 110.743 19.894 108.328 19.894C105.871 19.894 104.294 21.7202 104.294 24.5342C104.294 27.3647 105.846 29.1577 108.328 29.1577C110.287 29.1577 111.681 28.2114 112.096 26.6841H110.669ZM108.311 21.1558C109.731 21.1558 110.677 22.2017 110.71 23.7871H105.779C105.887 22.2017 106.883 21.1558 108.311 21.1558Z" fill="url(#paint1_linear)"/>
</g>
<defs>
<filter id="filter0_d" x="0" y="0" width="169" height="44" filterUnits="userSpaceOnUse" color-interpolation-filters="sRGB">
<feFlood flood-opacity="0" result="BackgroundImageFix"/>
<feColorMatrix in="SourceAlpha" type="matrix" values="0 0 0 0 0 0 0 0 0 0 0 0 0 0 0 0 0 0 127 0"/>
<feOffset dy="4"/>
<feGaussianBlur stdDeviation="5"/>
<feColorMatrix type="matrix" values="0 0 0 0 0 0 0 0 0 0 0 0 0 0 0 0 0 0 0.25 0"/>
<feBlend mode="normal" in2="BackgroundImageFix" result="effect1_dropShadow"/>
<feBlend mode="normal" in="SourceGraphic" in2="effect1_dropShadow" result="shape"/>
</filter>
<linearGradient id="paint0_linear" x1="94.5" y1="6" x2="94.5" y2="50" gradientUnits="userSpaceOnUse">
<stop stop-color="#D3C095"/>
<stop offset="1" stop-color="#A07923"/>
</linearGradient>
<linearGradient id="paint1_linear" x1="94.5" y1="18" x2="94.5" y2="38" gradientUnits="userSpaceOnUse">
<stop stop-color="#D3C095"/>
<stop offset="1" stop-color="#A07923"/>
</linearGradient>
</defs>
</svg>

 