<svg width="80" height="24" viewBox="0 0 80 24" fill="none" xmlns="http://www.w3.org/2000/svg">
<rect x="1" y="1" width="78" height="22" rx="9" stroke="url(#paint0_linear)" stroke-width="2"/>
<path d="M29.501 10.499C30.0615 9.81087 30.7907 9.4668 31.6885 9.4668C33.2516 9.4668 34.04 10.3486 34.0537 12.1123V17H32.7891V12.1055C32.7845 11.5723 32.6615 11.1781 32.4199 10.9229C32.1829 10.6676 31.8115 10.54 31.3057 10.54C30.8955 10.54 30.5355 10.6494 30.2256 10.8682C29.9157 11.0869 29.6742 11.374 29.501 11.7295V17H28.2363V6.5H29.501V10.499ZM37.3213 17H36.0566V9.60352H37.3213V17ZM35.9541 7.6416C35.9541 7.43652 36.0156 7.26335 36.1387 7.12207C36.2663 6.98079 36.4531 6.91016 36.6992 6.91016C36.9453 6.91016 37.1322 6.98079 37.2598 7.12207C37.3874 7.26335 37.4512 7.43652 37.4512 7.6416C37.4512 7.84668 37.3874 8.01758 37.2598 8.1543C37.1322 8.29102 36.9453 8.35938 36.6992 8.35938C36.4531 8.35938 36.2663 8.29102 36.1387 8.1543C36.0156 8.01758 35.9541 7.84668 35.9541 7.6416ZM39.0439 13.2402C39.0439 12.1055 39.3128 11.194 39.8506 10.5059C40.3883 9.81315 41.0924 9.4668 41.9629 9.4668C42.8288 9.4668 43.5146 9.76302 44.0205 10.3555V6.5H45.2852V17H44.123L44.0615 16.207C43.5557 16.8268 42.8516 17.1367 41.9492 17.1367C41.0924 17.1367 40.3929 16.7858 39.8506 16.084C39.3128 15.3822 39.0439 14.4661 39.0439 13.3359V13.2402ZM40.3086 13.3838C40.3086 14.2223 40.4818 14.8786 40.8281 15.3525C41.1745 15.8265 41.653 16.0635 42.2637 16.0635C43.0658 16.0635 43.6514 15.7035 44.0205 14.9834V11.5859C43.6423 10.8887 43.0612 10.54 42.2773 10.54C41.6576 10.54 41.1745 10.7793 40.8281 11.2578C40.4818 11.7363 40.3086 12.445 40.3086 13.3838ZM50.3232 17.1367C49.3206 17.1367 48.5049 16.8086 47.876 16.1523C47.2471 15.4915 46.9326 14.6097 46.9326 13.5068V13.2744C46.9326 12.5407 47.0716 11.8867 47.3496 11.3125C47.6322 10.7337 48.0241 10.2826 48.5254 9.95898C49.0312 9.63086 49.5781 9.4668 50.166 9.4668C51.1276 9.4668 51.875 9.78353 52.4082 10.417C52.9414 11.0505 53.208 11.9574 53.208 13.1377V13.6641H48.1973C48.2155 14.3932 48.4274 14.9834 48.833 15.4346C49.2432 15.8812 49.7627 16.1045 50.3916 16.1045C50.8382 16.1045 51.2165 16.0133 51.5264 15.8311C51.8363 15.6488 52.1074 15.4072 52.3398 15.1064L53.1123 15.708C52.4925 16.6605 51.5628 17.1367 50.3232 17.1367ZM50.166 10.5059C49.6556 10.5059 49.2272 10.6927 48.8809 11.0664C48.5345 11.4355 48.3203 11.9551 48.2383 12.625H51.9434V12.5293C51.9069 11.8867 51.7337 11.39 51.4238 11.0391C51.1139 10.6836 50.6947 10.5059 50.166 10.5059Z" fill="white"/>
<defs>
<linearGradient id="paint0_linear" x1="38.8235" y1="-6" x2="47.3278" y2="28.2478" gradientUnits="userSpaceOnUse">
<stop stop-color="#CAAA65"/>
<stop offset="1" stop-color="#A07923"/>
</linearGradient>
</defs>
</svg>
