<svg width="76" height="49" viewBox="0 0 76 49" fill="none" xmlns="http://www.w3.org/2000/svg">
<path d="M31 29H44.9998C46.1028 29 46.9998 28.103 46.9998 27V18.0001C47 17.8688 46.9741 17.7387 46.9239 17.6174C46.8736 17.4961 46.7998 17.3859 46.7068 17.2931L38.7069 9.2932C38.6141 9.20025 38.5039 9.12652 38.3826 9.07621C38.2613 9.0259 38.1312 9 37.9999 9C37.8686 9 37.7385 9.0259 37.6172 9.07621C37.4959 9.12652 37.3857 9.20025 37.2929 9.2932L29.293 17.2931C29.2 17.3859 29.1262 17.4961 29.076 17.6174C29.0257 17.7387 28.9999 17.8688 29 18.0001V27C29 28.103 29.897 29 31 29ZM35.9999 27V22.0001H39.9999V27H35.9999ZM31 18.4141L37.9999 11.4142L44.9998 18.4141L45.0008 27H41.9999V22.0001C41.9999 20.8971 41.1029 20.0001 39.9999 20.0001H35.9999C34.8969 20.0001 34 20.8971 34 22.0001V27H31V18.4141Z" fill="url(#paint0_linear)"/>
<path d="M30.3058 44V36.9541H29.2169V39.9326H25.5988V36.9541H24.505V44H25.5988V40.8799H29.2169V44H30.3058ZM33.9574 44.1025C35.5101 44.1025 36.4623 43.0625 36.4623 41.3486C36.4623 39.6348 35.5053 38.5947 33.9574 38.5947C32.4047 38.5947 31.4476 39.6396 31.4476 41.3486C31.4476 43.0625 32.3998 44.1025 33.9574 44.1025ZM33.9574 43.209C33.0443 43.209 32.5316 42.5303 32.5316 41.3486C32.5316 40.167 33.0443 39.4834 33.9574 39.4834C34.8656 39.4834 35.3832 40.167 35.3832 41.3486C35.3832 42.5254 34.8656 43.209 33.9574 43.209ZM37.4869 44H38.5367V40.7432C38.5367 40.0498 39.0201 39.5078 39.6598 39.5078C40.2848 39.5078 40.6852 39.8838 40.6852 40.4893V44H41.7154V40.6455C41.7154 40.0059 42.1598 39.5078 42.8385 39.5078C43.527 39.5078 43.8688 39.8643 43.8688 40.5967V44H44.9186V40.3428C44.9186 39.2393 44.2936 38.5947 43.2194 38.5947C42.4821 38.5947 41.8717 38.9707 41.6031 39.542H41.5201C41.2858 38.9707 40.7828 38.5947 40.0553 38.5947C39.3473 38.5947 38.8102 38.9463 38.5758 39.542H38.4977V38.6973H37.4869V44ZM49.6395 42.5791C49.4442 43.0088 49.0096 43.2432 48.3749 43.2432C47.535 43.2432 46.993 42.6377 46.9588 41.6758V41.627H50.7137V41.2656C50.7137 39.6055 49.8202 38.5947 48.3407 38.5947C46.8417 38.5947 45.8895 39.6738 45.8895 41.3584C45.8895 43.0527 46.8221 44.1025 48.3456 44.1025C49.5614 44.1025 50.4208 43.5166 50.6503 42.5791H49.6395ZM48.3358 39.4492C49.1122 39.4492 49.62 40.0107 49.6444 40.8701H46.9588C47.0174 40.0156 47.5594 39.4492 48.3358 39.4492Z" fill="url(#paint1_linear)"/>
<defs>
<linearGradient id="paint0_linear" x1="37.9999" y1="9" x2="37.9999" y2="29" gradientUnits="userSpaceOnUse">
<stop stop-color="#D3C095"/>
<stop offset="1" stop-color="#A07923"/>
</linearGradient>
<linearGradient id="paint1_linear" x1="37.4165" y1="34" x2="37.4165" y2="46" gradientUnits="userSpaceOnUse">
<stop stop-color="#D3C095"/>
<stop offset="1" stop-color="#A07923"/>
</linearGradient>
</defs>
</svg>
