<svg width="169" height="44" viewBox="0 0 169 44" fill="none" xmlns="http://www.w3.org/2000/svg">
<rect width="169" height="44" rx="10" fill="url(#paint0_linear)"/>
<path d="M60.2253 29V17.022H58.4904L54.3898 27.0161H54.257L50.1564 17.022H48.4216V29H49.8161V19.8525H49.9157L53.6925 29H54.9543L58.7311 19.8525H58.8307V29H60.2253ZM63.453 32.2373C65.0385 32.2373 65.7523 31.623 66.516 29.5479L70.0106 20.0518H68.4916L66.0428 27.4146H65.91L63.453 20.0518H61.9091L65.2211 29.0083L65.0551 29.5396C64.6815 30.6187 64.2333 31.0088 63.4115 31.0088C63.2123 31.0088 62.9882 31.0005 62.8138 30.9673V32.1875C63.0131 32.2207 63.2621 32.2373 63.453 32.2373ZM75.6941 22.5005C75.6941 23.7954 76.4578 24.5176 78.1346 24.9243L79.6702 25.2979C80.6248 25.5303 81.0896 25.9453 81.0896 26.5596C81.0896 27.3813 80.2264 27.9541 79.0228 27.9541C77.8772 27.9541 77.1634 27.4727 76.9227 26.7173H75.4534C75.6111 28.2031 76.9808 29.1577 78.9729 29.1577C81.0066 29.1577 82.5589 28.0537 82.5589 26.4517C82.5589 25.165 81.7454 24.4346 80.0603 24.0278L78.6824 23.6958C77.6282 23.4385 77.1302 23.0566 77.1302 22.4424C77.1302 21.6455 77.9603 21.106 79.0228 21.106C80.1019 21.106 80.7991 21.5791 80.99 22.293H82.4012C82.2103 20.8237 80.907 19.894 79.0311 19.894C77.1302 19.894 75.6941 21.0146 75.6941 22.5005ZM84.9067 17.7358V20.0518H83.4624V21.2471H84.9067V26.6758C84.9067 28.3857 85.6455 29.0664 87.4883 29.0664C87.7705 29.0664 88.0444 29.0332 88.3267 28.9834V27.7798C88.061 27.8047 87.9199 27.813 87.6626 27.813C86.7329 27.813 86.3345 27.3647 86.3345 26.3105V21.2471H88.3267V20.0518H86.3345V17.7358H84.9067ZM97.3151 20.0518H95.8874V25.3477C95.8874 26.9165 95.0241 27.8545 93.447 27.8545C92.0192 27.8545 91.4216 27.1074 91.4216 25.4971V20.0518H89.9939V25.8457C89.9939 27.9624 91.0397 29.1577 93.0485 29.1577C94.4182 29.1577 95.3728 28.5933 95.821 27.5972H95.9538V29H97.3151V20.0518ZM102.909 29.1577C104.145 29.1577 105.208 28.5684 105.772 27.5723H105.905V29H107.267V16.499H105.839V21.4629H105.714C105.208 20.4834 104.154 19.894 102.909 19.894C100.634 19.894 99.1484 21.7202 99.1484 24.5259C99.1484 27.3398 100.618 29.1577 102.909 29.1577ZM103.241 21.1807C104.859 21.1807 105.872 22.4756 105.872 24.5259C105.872 26.5928 104.868 27.8711 103.241 27.8711C101.605 27.8711 100.626 26.6177 100.626 24.5259C100.626 22.4424 101.614 21.1807 103.241 21.1807ZM110.378 18.3252C110.926 18.3252 111.374 17.877 111.374 17.3291C111.374 16.7812 110.926 16.333 110.378 16.333C109.83 16.333 109.382 16.7812 109.382 17.3291C109.382 17.877 109.83 18.3252 110.378 18.3252ZM109.664 29H111.092V20.0518H109.664V29ZM117.084 29.1577C119.632 29.1577 121.209 27.3979 121.209 24.5259C121.209 21.6455 119.632 19.894 117.084 19.894C114.535 19.894 112.958 21.6455 112.958 24.5259C112.958 27.3979 114.535 29.1577 117.084 29.1577ZM117.084 27.8711C115.39 27.8711 114.436 26.6426 114.436 24.5259C114.436 22.4009 115.39 21.1807 117.084 21.1807C118.777 21.1807 119.732 22.4009 119.732 24.5259C119.732 26.6426 118.777 27.8711 117.084 27.8711Z" fill="white"/>
<defs>
<linearGradient id="paint0_linear" x1="82.0147" y1="-11" x2="95.7422" y2="52.7009" gradientUnits="userSpaceOnUse">
<stop stop-color="#CAAA65"/>
<stop offset="1" stop-color="#A07923"/>
</linearGradient>
</defs>
</svg>
