<svg width="20" height="30" viewBox="0 0 20 30" fill="none" xmlns="http://www.w3.org/2000/svg">
<path fill-rule="evenodd" clip-rule="evenodd" d="M20 18V11H18V18H2V2H9V0H2C0.89543 0 0 0.89543 0 2V18C0 19.1046 0.89543 20 2 20H18C19.1046 20 20 19.1046 20 18ZM17.1781 0.723423C16.7197 0.26142 16.0921 0 15.4374 0C14.7834 0 14.1564 0.26083 13.6954 0.724628L5.3265 9.09342C4.57867 9.75233 4.08844 10.7328 4.00325 11.7873L4 15.0023V16.0023H8.1346C9.2689 15.9245 10.259 15.4295 10.9575 14.6238L19.279 6.30584C19.7407 5.84416 20.0001 5.21799 20.0001 4.56508C20.0001 3.91217 19.7407 3.286 19.279 2.82432L17.1781 0.723423ZM8.06398 14.0048C8.59821 13.967 9.09549 13.7184 9.49479 13.2616L15.5567 7.19972L12.8024 4.44527L6.6961 10.5496C6.29095 10.9079 6.04031 11.4092 6 11.8678V14.0029L8.06398 14.0048ZM14.2169 3.03128L16.9709 5.78551L17.8648 4.89162C17.9514 4.80502 18.0001 4.68756 18.0001 4.56508C18.0001 4.4426 17.9514 4.32514 17.8648 4.23854L15.7611 2.13486C15.6755 2.04855 15.5589 2 15.4374 2C15.3158 2 15.1992 2.04855 15.1136 2.13486L14.2169 3.03128Z" fill="#CAAA65"/>
<path d="M1.68359 21.9541V29H2.5625V26.4854H4.18848C5.51172 26.4854 6.4541 25.5527 6.4541 24.2148C6.4541 22.8818 5.52148 21.9541 4.19824 21.9541H1.68359ZM2.5625 22.7354H3.96875C4.97949 22.7354 5.55078 23.2822 5.55078 24.2148C5.55078 25.1523 4.97461 25.7041 3.96875 25.7041H2.5625V22.7354ZM9.19336 29.0879C10.5947 29.0879 11.542 28.0771 11.542 26.4609C11.542 24.8398 10.5947 23.834 9.19336 23.834C7.78711 23.834 6.83984 24.8398 6.83984 26.4609C6.83984 28.0771 7.78711 29.0879 9.19336 29.0879ZM9.19336 28.3408C8.29492 28.3408 7.7041 27.6572 7.7041 26.4609C7.7041 25.2646 8.29492 24.5811 9.19336 24.5811C10.0918 24.5811 10.6777 25.2646 10.6777 26.4609C10.6777 27.6572 10.0918 28.3408 9.19336 28.3408ZM12.3135 25.3232C12.3135 26.0557 12.7773 26.5 13.7344 26.7295L14.54 26.9248C15.1211 27.0664 15.3213 27.2764 15.3213 27.6426C15.3213 28.1016 14.8965 28.3945 14.208 28.3945C13.5195 28.3945 13.1289 28.1162 13.0264 27.5352H12.1768C12.2744 28.4873 13.0166 29.0879 14.208 29.0879C15.3408 29.0879 16.1758 28.4629 16.1758 27.5791C16.1758 26.8516 15.8047 26.4512 14.7793 26.2021L13.9736 26.0068C13.4072 25.8701 13.1484 25.6309 13.1484 25.2793C13.1484 24.835 13.5586 24.5273 14.1787 24.5273C14.8037 24.5273 15.1943 24.8545 15.2578 25.3867H16.0684C16.0342 24.4883 15.292 23.834 14.1787 23.834C13.0801 23.834 12.3135 24.4541 12.3135 25.3232ZM17.333 22.6963V23.9219H16.5762V24.6201H17.333V27.6816C17.333 28.6582 17.6943 29.0391 18.627 29.0391C18.8271 29.0391 19.0615 29.0244 19.1641 29V28.2871C19.1055 28.2969 18.9102 28.3115 18.8125 28.3115C18.3779 28.3115 18.1826 28.1016 18.1826 27.6377V24.6201H19.1689V23.9219H18.1826V22.6963H17.333Z" fill="#EBEBF5"/>
</svg>
