<svg width="21" height="9" viewBox="0 0 21 9" fill="none" xmlns="http://www.w3.org/2000/svg">
<path d="M1.80727 5.29004H3.35023L4.78578 8H6.05043L4.4684 5.11914C5.32777 4.83105 5.83559 4.05957 5.83559 3.10742C5.83559 1.79395 4.9225 0.954102 3.5016 0.954102H0.713515V8H1.80727V5.29004ZM1.80727 1.87207H3.35023C4.19496 1.87207 4.71254 2.3457 4.71254 3.13184C4.71254 3.9375 4.22426 4.3916 3.37953 4.3916H1.80727V1.87207ZM8.49109 8.08789C9.18934 8.08789 9.77039 7.78516 10.0878 7.24805H10.1708V8H11.1815V4.37207C11.1815 3.25879 10.4296 2.59473 9.09656 2.59473C7.89051 2.59473 7.03113 3.17578 6.92371 4.06934H7.93934C8.05652 3.68359 8.4618 3.46387 9.04773 3.46387C9.76551 3.46387 10.1366 3.79102 10.1366 4.37207V4.83594L8.69617 4.92383C7.43152 5.00195 6.71863 5.55371 6.71863 6.50586C6.71863 7.47266 7.4657 8.08789 8.49109 8.08789ZM8.75965 7.24316C8.18836 7.24316 7.77332 6.95508 7.77332 6.46191C7.77332 5.97852 8.10535 5.71973 8.83777 5.6709L10.1366 5.58301V6.04199C10.1366 6.72559 9.55066 7.24316 8.75965 7.24316ZM12.8068 1.35938V2.71191H11.962V3.55176H12.8068V6.60352C12.8068 7.62402 13.2706 8.03418 14.4376 8.03418C14.6427 8.03418 14.838 8.00977 15.0089 7.98047V7.14551C14.8624 7.16016 14.7696 7.16992 14.6085 7.16992C14.0861 7.16992 13.8566 6.9209 13.8566 6.34961V3.55176H15.0089V2.71191H13.8566V1.35938H12.8068ZM19.432 6.5791C19.2367 7.00879 18.8021 7.24316 18.1673 7.24316C17.3275 7.24316 16.7855 6.6377 16.7513 5.67578V5.62695H20.5062V5.26562C20.5062 3.60547 19.6127 2.59473 18.1332 2.59473C16.6341 2.59473 15.682 3.67383 15.682 5.3584C15.682 7.05273 16.6146 8.10254 18.138 8.10254C19.3539 8.10254 20.2132 7.5166 20.4427 6.5791H19.432ZM18.1283 3.44922C18.9046 3.44922 19.4125 4.01074 19.4369 4.87012H16.7513C16.8099 4.01562 17.3519 3.44922 18.1283 3.44922Z" fill="url(#paint0_linear)"/>
<defs>
<linearGradient id="paint0_linear" x1="10.417" y1="-2" x2="10.417" y2="10" gradientUnits="userSpaceOnUse">
<stop stop-color="#D3C095"/>
<stop offset="1" stop-color="#A07923"/>
</linearGradient>
</defs>
</svg>
