<svg width="169" height="44" viewBox="0 0 169 44" fill="none" xmlns="http://www.w3.org/2000/svg">
<rect x="1" y="1" width="167" height="42" rx="21" stroke="url(#paint0_linear)" stroke-width="2"/>
<path d="M55.9235 23.1108H53.0846V28H51.4826V15.9141H55.4836C56.8449 15.9141 57.8908 16.224 58.6213 16.8438C59.3573 17.4635 59.7253 18.3656 59.7253 19.5498C59.7253 20.3024 59.5205 20.9582 59.111 21.5171C58.707 22.076 58.1426 22.4938 57.4176 22.7705L60.2565 27.9004V28H58.5466L55.9235 23.1108ZM53.0846 21.8076H55.5334C56.3247 21.8076 56.9528 21.6029 57.4176 21.1934C57.888 20.7839 58.1232 20.236 58.1232 19.5498C58.1232 18.8027 57.8991 18.23 57.4508 17.8315C57.0081 17.4331 56.3662 17.2311 55.5251 17.2256H53.0846V21.8076ZM66.8627 28C66.7741 27.8229 66.7022 27.5075 66.6469 27.0537C65.933 27.7952 65.0808 28.166 64.0902 28.166C63.2048 28.166 62.4771 27.917 61.9071 27.4189C61.3427 26.9154 61.0604 26.279 61.0604 25.5098C61.0604 24.5745 61.4146 23.8496 62.1229 23.335C62.8368 22.8148 63.8384 22.5547 65.1278 22.5547H66.6219V21.8491C66.6219 21.3123 66.4615 20.8862 66.1405 20.5708C65.8195 20.2498 65.3464 20.0894 64.7211 20.0894C64.1732 20.0894 63.7139 20.2277 63.3431 20.5044C62.9724 20.7811 62.787 21.1159 62.787 21.5088H61.243C61.243 21.0605 61.4008 20.6289 61.7162 20.2139C62.0372 19.7933 62.4688 19.4613 63.0111 19.2178C63.559 18.9743 64.1594 18.8525 64.8124 18.8525C65.8472 18.8525 66.6579 19.1126 67.2445 19.6328C67.8311 20.1475 68.1355 20.8586 68.1576 21.7661V25.8999C68.1576 26.7244 68.2627 27.3802 68.473 27.8672V28H66.8627ZM64.3143 26.8296C64.7958 26.8296 65.2523 26.7051 65.684 26.4561C66.1156 26.207 66.4283 25.8833 66.6219 25.4849V23.6421H65.4183C63.5368 23.6421 62.5961 24.1927 62.5961 25.2939C62.5961 25.7754 62.7566 26.1517 63.0775 26.4229C63.3985 26.694 63.8108 26.8296 64.3143 26.8296ZM72.2403 16.8438V19.0186H73.9171V20.2056H72.2403V25.7754C72.2403 26.1351 72.315 26.4062 72.4644 26.5889C72.6139 26.766 72.8684 26.8545 73.2281 26.8545C73.4052 26.8545 73.6487 26.8213 73.9586 26.7549V28C73.5546 28.1107 73.1617 28.166 72.7799 28.166C72.0937 28.166 71.5763 27.9585 71.2276 27.5435C70.879 27.1284 70.7047 26.5391 70.7047 25.7754V20.2056H69.0694V19.0186H70.7047V16.8438H72.2403ZM79.0374 28.166C77.82 28.166 76.8294 27.7676 76.0657 26.9707C75.302 26.1683 74.9202 25.0975 74.9202 23.7583V23.4761C74.9202 22.5851 75.089 21.791 75.4266 21.0938C75.7697 20.391 76.2456 19.8431 76.8543 19.4502C77.4686 19.0518 78.1326 18.8525 78.8465 18.8525C80.0141 18.8525 80.9217 19.2371 81.5691 20.0063C82.2166 20.7756 82.5403 21.8768 82.5403 23.3101V23.9492H76.4559C76.478 24.8346 76.7353 25.5513 77.2278 26.0991C77.7259 26.6414 78.3567 26.9126 79.1204 26.9126C79.6627 26.9126 80.122 26.8019 80.4983 26.5806C80.8746 26.3592 81.2039 26.0659 81.4861 25.7007L82.4241 26.4312C81.6715 27.5877 80.5426 28.166 79.0374 28.166ZM78.8465 20.1143C78.2267 20.1143 77.7065 20.3411 77.2859 20.7949C76.8654 21.2432 76.6053 21.874 76.5057 22.6875H81.0047V22.5713C80.9604 21.791 80.7501 21.1878 80.3738 20.7617C79.9975 20.3301 79.4884 20.1143 78.8465 20.1143ZM94.632 22.6626H89.5603V28H87.9665V15.9141H95.4538V17.2256H89.5603V21.3594H94.632V22.6626ZM98.3827 28H96.8471V19.0186H98.3827V28ZM96.7226 16.6362C96.7226 16.3872 96.7973 16.1769 96.9467 16.0054C97.1016 15.8338 97.3285 15.748 97.6274 15.748C97.9262 15.748 98.1531 15.8338 98.308 16.0054C98.463 16.1769 98.5405 16.3872 98.5405 16.6362C98.5405 16.8853 98.463 17.0928 98.308 17.2588C98.1531 17.4248 97.9262 17.5078 97.6274 17.5078C97.3285 17.5078 97.1016 17.4248 96.9467 17.2588C96.7973 17.0928 96.7226 16.8853 96.7226 16.6362ZM102.109 28H100.573V15.25H102.109V28ZM105.61 19.0186L105.652 20.0146C106.31 19.2399 107.198 18.8525 108.316 18.8525C109.572 18.8525 110.427 19.334 110.881 20.2969C111.18 19.8652 111.567 19.5166 112.043 19.251C112.525 18.9854 113.092 18.8525 113.745 18.8525C115.715 18.8525 116.717 19.8957 116.75 21.9819V28H115.214V22.0732C115.214 21.4313 115.068 20.9526 114.774 20.6372C114.481 20.3162 113.988 20.1558 113.297 20.1558C112.727 20.1558 112.254 20.3273 111.877 20.6704C111.501 21.008 111.282 21.4645 111.222 22.04V28H109.678V22.1147C109.678 20.8088 109.038 20.1558 107.76 20.1558C106.753 20.1558 106.064 20.5846 105.693 21.4424V28H104.158V19.0186H105.61Z" fill="#D3C095"/>
<defs>
<linearGradient id="paint0_linear" x1="84.5" y1="0" x2="84.5" y2="44" gradientUnits="userSpaceOnUse">
<stop stop-color="#D3C095"/>
<stop offset="1" stop-color="#A07923"/>
</linearGradient>
</defs>
</svg>
