<svg width="83" height="24" viewBox="0 0 83 24" fill="none" xmlns="http://www.w3.org/2000/svg">
<rect x="1" y="1" width="81" height="22" rx="9" stroke="url(#paint0_linear)" stroke-width="2"/>
<path d="M12.3027 13.9736H9.96484V18H8.64551V8.04688H11.9404C13.0615 8.04688 13.9229 8.30208 14.5244 8.8125C15.1305 9.32292 15.4336 10.0658 15.4336 11.041C15.4336 11.6608 15.265 12.2008 14.9277 12.6611C14.5951 13.1214 14.1302 13.4655 13.5332 13.6934L15.8711 17.918V18H14.4629L12.3027 13.9736ZM9.96484 12.9004H11.9814C12.6331 12.9004 13.1504 12.7318 13.5332 12.3945C13.9206 12.0573 14.1143 11.6061 14.1143 11.041C14.1143 10.4258 13.9297 9.9541 13.5605 9.62598C13.196 9.29785 12.6673 9.13151 11.9746 9.12695H9.96484V12.9004ZM20.1504 18.1367C19.1478 18.1367 18.332 17.8086 17.7031 17.1523C17.0742 16.4915 16.7598 15.6097 16.7598 14.5068V14.2744C16.7598 13.5407 16.8988 12.8867 17.1768 12.3125C17.4593 11.7337 17.8512 11.2826 18.3525 10.959C18.8584 10.6309 19.4053 10.4668 19.9932 10.4668C20.9548 10.4668 21.7021 10.7835 22.2354 11.417C22.7686 12.0505 23.0352 12.9574 23.0352 14.1377V14.6641H18.0244C18.0426 15.3932 18.2546 15.9834 18.6602 16.4346C19.0703 16.8812 19.5898 17.1045 20.2188 17.1045C20.6654 17.1045 21.0436 17.0133 21.3535 16.8311C21.6634 16.6488 21.9346 16.4072 22.167 16.1064L22.9395 16.708C22.3197 17.6605 21.39 18.1367 20.1504 18.1367ZM19.9932 11.5059C19.4827 11.5059 19.0544 11.6927 18.708 12.0664C18.3617 12.4355 18.1475 12.9551 18.0654 13.625H21.7705V13.5293C21.734 12.8867 21.5609 12.39 21.251 12.0391C20.9411 11.6836 20.5218 11.5059 19.9932 11.5059ZM25.6943 10.6035L25.7285 11.4238C26.2708 10.7858 27.0023 10.4668 27.9229 10.4668C28.9574 10.4668 29.6615 10.8633 30.0352 11.6562C30.2812 11.3008 30.6003 11.0137 30.9922 10.7949C31.3887 10.5762 31.8558 10.4668 32.3936 10.4668C34.016 10.4668 34.8408 11.3258 34.8682 13.0439V18H33.6035V13.1191C33.6035 12.5905 33.4827 12.1963 33.2412 11.9365C32.9997 11.6722 32.5941 11.54 32.0244 11.54C31.555 11.54 31.1654 11.6813 30.8555 11.9639C30.5456 12.2419 30.3656 12.6178 30.3154 13.0918V18H29.0439V13.1533C29.0439 12.0778 28.5176 11.54 27.4648 11.54C26.6354 11.54 26.068 11.8932 25.7627 12.5996V18H24.498V10.6035H25.6943ZM38.1562 18H36.8916V10.6035H38.1562V18ZM36.7891 8.6416C36.7891 8.43652 36.8506 8.26335 36.9736 8.12207C37.1012 7.98079 37.2881 7.91016 37.5342 7.91016C37.7803 7.91016 37.9671 7.98079 38.0947 8.12207C38.2223 8.26335 38.2861 8.43652 38.2861 8.6416C38.2861 8.84668 38.2223 9.01758 38.0947 9.1543C37.9671 9.29102 37.7803 9.35938 37.5342 9.35938C37.2881 9.35938 37.1012 9.29102 36.9736 9.1543C36.8506 9.01758 36.7891 8.84668 36.7891 8.6416ZM41.3828 10.6035L41.4238 11.5332C41.9889 10.8223 42.7272 10.4668 43.6387 10.4668C45.2018 10.4668 45.9902 11.3486 46.0039 13.1123V18H44.7393V13.1055C44.7347 12.5723 44.6117 12.1781 44.3701 11.9229C44.1331 11.6676 43.7617 11.54 43.2559 11.54C42.8457 11.54 42.4857 11.6494 42.1758 11.8682C41.8659 12.0869 41.6243 12.374 41.4512 12.7295V18H40.1865V10.6035H41.3828ZM47.6035 14.2402C47.6035 13.1055 47.8724 12.194 48.4102 11.5059C48.9479 10.8132 49.652 10.4668 50.5225 10.4668C51.3883 10.4668 52.0742 10.763 52.5801 11.3555V7.5H53.8447V18H52.6826L52.6211 17.207C52.1152 17.8268 51.4111 18.1367 50.5088 18.1367C49.652 18.1367 48.9525 17.7858 48.4102 17.084C47.8724 16.3822 47.6035 15.4661 47.6035 14.3359V14.2402ZM48.8682 14.3838C48.8682 15.2223 49.0413 15.8786 49.3877 16.3525C49.734 16.8265 50.2126 17.0635 50.8232 17.0635C51.6253 17.0635 52.2109 16.7035 52.5801 15.9834V12.5859C52.2018 11.8887 51.6208 11.54 50.8369 11.54C50.2171 11.54 49.734 11.7793 49.3877 12.2578C49.0413 12.7363 48.8682 13.445 48.8682 14.3838ZM57.707 8.04688L60.9609 16.168L64.2148 8.04688H65.917V18H64.6045V14.124L64.7275 9.94043L61.46 18H60.4551L57.1943 9.96094L57.3242 14.124V18H56.0117V8.04688H57.707ZM71.1055 18.1367C70.1029 18.1367 69.2871 17.8086 68.6582 17.1523C68.0293 16.4915 67.7148 15.6097 67.7148 14.5068V14.2744C67.7148 13.5407 67.8538 12.8867 68.1318 12.3125C68.4144 11.7337 68.8063 11.2826 69.3076 10.959C69.8135 10.6309 70.3604 10.4668 70.9482 10.4668C71.9098 10.4668 72.6572 10.7835 73.1904 11.417C73.7236 12.0505 73.9902 12.9574 73.9902 14.1377V14.6641H68.9795C68.9977 15.3932 69.2096 15.9834 69.6152 16.4346C70.0254 16.8812 70.5449 17.1045 71.1738 17.1045C71.6204 17.1045 71.9987 17.0133 72.3086 16.8311C72.6185 16.6488 72.8896 16.4072 73.1221 16.1064L73.8945 16.708C73.2747 17.6605 72.3451 18.1367 71.1055 18.1367ZM70.9482 11.5059C70.4378 11.5059 70.0094 11.6927 69.6631 12.0664C69.3167 12.4355 69.1025 12.9551 69.0205 13.625H72.7256V13.5293C72.6891 12.8867 72.516 12.39 72.2061 12.0391C71.8962 11.6836 71.4769 11.5059 70.9482 11.5059Z" fill="white"/>
<defs>
<linearGradient id="paint0_linear" x1="40.2794" y1="-6" x2="48.5102" y2="28.3896" gradientUnits="userSpaceOnUse">
<stop stop-color="#CAAA65"/>
<stop offset="1" stop-color="#A07923"/>
</linearGradient>
</defs>
</svg>
