<svg width="26" height="32" viewBox="0 0 26 32" fill="none" xmlns="http://www.w3.org/2000/svg">
<path fill-rule="evenodd" clip-rule="evenodd" d="M11.0799 1C9.9777 1 9.08208 1.89236 9.0642 3H20.1519V17.9156L22.1679 18.9324V3.03378C22.1679 1.91055 21.2653 1 20.1519 1H11.0799ZM11.0799 19.118L4.02393 22.618V7C4.02393 5.89543 4.92652 5 6.03993 5H16.1199C17.2333 5 18.1359 5.89543 18.1359 7V22.618L11.0799 19.118ZM6.03993 19.382L11.0799 16.882L16.1199 19.382V7H6.03993V19.382Z" fill="#CAAA65"/>
<path d="M0.341797 29.1104C0.424805 30.3262 1.4502 31.1172 2.98828 31.1172C4.56543 31.1172 5.59082 30.3018 5.59082 28.998C5.59082 28.002 5.00977 27.416 3.54004 27.0938L2.75879 26.9229C1.79688 26.7129 1.4209 26.332 1.4209 25.7754C1.4209 25.0576 2.09961 24.6279 2.97852 24.6279C3.89648 24.6279 4.50684 25.1016 4.58496 25.873H5.46387C5.4248 24.6768 4.40918 23.8369 3.00293 23.8369C1.54297 23.8369 0.517578 24.6523 0.517578 25.8145C0.517578 26.8154 1.12793 27.4551 2.53906 27.7627L3.32031 27.9336C4.29688 28.1484 4.6875 28.5391 4.6875 29.1299C4.6875 29.8232 3.99414 30.3262 3.03711 30.3262C2.02637 30.3262 1.32324 29.8672 1.2207 29.1104H0.341797ZM7.97363 31.0879C8.65723 31.0879 9.30176 30.707 9.60449 30.126H9.62402V31H10.4297V27.4893C10.4297 26.4785 9.67773 25.834 8.48633 25.834C7.28516 25.834 6.5332 26.5078 6.47461 27.3867H7.29492C7.40234 26.8887 7.8125 26.5811 8.4668 26.5811C9.16992 26.5811 9.58008 26.9521 9.58008 27.5723V27.9971L8.125 28.0801C6.95312 28.1484 6.28418 28.6953 6.28418 29.5645C6.28418 30.4775 6.96289 31.0879 7.97363 31.0879ZM8.16406 30.3652C7.55371 30.3652 7.14844 30.0479 7.14844 29.5645C7.14844 29.0859 7.53906 28.7832 8.22266 28.7393L9.58008 28.6562V29.0713C9.58008 29.8037 8.96484 30.3652 8.16406 30.3652ZM15.6738 25.9219H14.79L13.3838 30.0967H13.3643L11.9629 25.9219H11.0693L12.9395 31H13.8086L15.6738 25.9219ZM19.5654 29.5449C19.4238 30.0234 18.9502 30.3506 18.3057 30.3506C17.3926 30.3506 16.8213 29.7109 16.8213 28.7393V28.6904H20.4639V28.3682C20.4639 26.8301 19.6191 25.834 18.2471 25.834C16.8457 25.834 15.9473 26.9033 15.9473 28.4805C15.9473 30.0771 16.8311 31.0879 18.2861 31.0879C19.3945 31.0879 20.2539 30.4336 20.4004 29.5449H19.5654ZM18.2324 26.5713C19.0332 26.5713 19.5654 27.1768 19.585 28.0264H16.8262C16.8799 27.1816 17.4365 26.5713 18.2324 26.5713ZM23.2471 31.0879C23.9795 31.0879 24.5605 30.7266 24.8877 30.1406H24.9023V31H25.7129V23.9541H24.8633V26.7471H24.8438C24.541 26.1904 23.9551 25.834 23.2275 25.834C21.9482 25.834 21.0742 26.8691 21.0742 28.4609C21.0742 30.0527 21.9531 31.0879 23.2471 31.0879ZM23.4082 26.5811C24.2822 26.5811 24.8682 27.3281 24.8682 28.4609C24.8682 29.5986 24.2822 30.3408 23.4082 30.3408C22.5098 30.3408 21.9434 29.6133 21.9434 28.4609C21.9434 27.3135 22.5098 26.5811 23.4082 26.5811Z" fill="#EBEBF5"/>
</svg>
