<svg width="32" height="36" viewBox="0 0 32 36" fill="none" xmlns="http://www.w3.org/2000/svg">
<path d="M24.9399 18.5624L18.4474 12.0699C19.4549 10.7675 19.9999 9.17496 19.9999 7.49997C19.9999 5.49498 19.2174 3.61498 17.8024 2.19749C16.3874 0.779996 14.5025 0 12.5 0C10.4975 0 8.61248 0.782496 7.19749 2.19749C5.78 3.61248 5 5.49498 5 7.49997C5 9.50246 5.7825 11.3874 7.19749 12.8024C8.61248 14.2199 10.495 14.9999 12.5 14.9999C14.175 14.9999 15.765 14.4549 17.0674 13.4499L23.5599 19.9399C23.579 19.959 23.6016 19.9741 23.6264 19.9844C23.6513 19.9947 23.678 20 23.7049 20C23.7318 20 23.7585 19.9947 23.7834 19.9844C23.8083 19.9741 23.8309 19.959 23.8499 19.9399L24.9399 18.8524C24.959 18.8334 24.9741 18.8108 24.9844 18.7859C24.9947 18.761 25 18.7343 25 18.7074C25 18.6805 24.9947 18.6538 24.9844 18.6289C24.9741 18.6041 24.959 18.5815 24.9399 18.5624ZM16.46 11.46C15.4 12.5174 13.995 13.0999 12.5 13.0999C11.005 13.0999 9.59998 12.5174 8.53998 11.46C7.48249 10.4 6.89999 8.99496 6.89999 7.49997C6.89999 6.00497 7.48249 4.59748 8.53998 3.53998C9.59998 2.48249 11.005 1.89999 12.5 1.89999C13.995 1.89999 15.4025 2.47999 16.46 3.53998C17.5174 4.59998 18.0999 6.00497 18.0999 7.49997C18.0999 8.99496 17.5174 10.4025 16.46 11.46Z" fill="url(#paint0_linear)"/>
<path d="M0.237207 33.1201C0.315332 34.3701 1.36514 35.1709 2.92764 35.1709C4.59756 35.1709 5.64248 34.3311 5.64248 32.998C5.64248 31.9434 5.04678 31.3623 3.60147 31.0156L2.8251 30.8252C1.90713 30.6006 1.53604 30.3076 1.53604 29.7949C1.53604 29.1357 2.11221 28.7109 2.97647 28.7109C3.79678 28.7109 4.36318 29.1211 4.46572 29.79H5.53018C5.4667 28.6133 4.42178 27.7832 2.99111 27.7832C1.45303 27.7832 0.427637 28.6133 0.427637 29.8535C0.427637 30.8789 1.00869 31.4844 2.28311 31.792L3.19131 32.0117C4.12393 32.2363 4.53408 32.5781 4.53408 33.1299C4.53408 33.7744 3.88955 34.2383 3.01064 34.2383C2.06826 34.2383 1.41397 33.8037 1.32119 33.1201H0.237207ZM10.2072 33.5791C10.0119 34.0088 9.57729 34.2432 8.94252 34.2432C8.10268 34.2432 7.56068 33.6377 7.5265 32.6758V32.627H11.2814V32.2656C11.2814 30.6055 10.3878 29.5947 8.90834 29.5947C7.40932 29.5947 6.45717 30.6738 6.45717 32.3584C6.45717 34.0527 7.38979 35.1025 8.91322 35.1025C10.129 35.1025 10.9884 34.5166 11.2179 33.5791H10.2072ZM8.90346 30.4492C9.67982 30.4492 10.1876 31.0107 10.2121 31.8701H7.5265C7.5851 31.0156 8.12709 30.4492 8.90346 30.4492ZM13.7709 35.0879C14.4691 35.0879 15.0502 34.7852 15.3676 34.248H15.4506V35H16.4613V31.3721C16.4613 30.2588 15.7094 29.5947 14.3763 29.5947C13.1703 29.5947 12.3109 30.1758 12.2035 31.0693H13.2191C13.3363 30.6836 13.7416 30.4639 14.3275 30.4639C15.0453 30.4639 15.4164 30.791 15.4164 31.3721V31.8359L13.976 31.9238C12.7113 32.002 11.9984 32.5537 11.9984 33.5059C11.9984 34.4727 12.7455 35.0879 13.7709 35.0879ZM14.0394 34.2432C13.4681 34.2432 13.0531 33.9551 13.0531 33.4619C13.0531 32.9785 13.3851 32.7197 14.1176 32.6709L15.4164 32.583V33.042C15.4164 33.7256 14.8305 34.2432 14.0394 34.2432ZM17.7155 35H18.7653V31.8311C18.7653 31.084 19.3268 30.5713 20.1227 30.5713C20.3082 30.5713 20.6207 30.6055 20.7086 30.6299V29.6436C20.5963 29.6191 20.3961 29.6045 20.2399 29.6045C19.5465 29.6045 18.9557 29.9805 18.8043 30.5029H18.7262V29.6973H17.7155V35ZM25.8446 31.4014C25.7079 30.3711 24.9022 29.5947 23.5692 29.5947C22.0213 29.5947 21.079 30.6445 21.079 32.3291C21.079 34.0479 22.0262 35.1025 23.5741 35.1025C24.8876 35.1025 25.7079 34.3652 25.8446 33.3203H24.8241C24.6874 33.8965 24.2333 34.209 23.5692 34.209C22.6952 34.209 22.1532 33.501 22.1532 32.3291C22.1532 31.1816 22.6903 30.4883 23.5692 30.4883C24.2723 30.4883 24.702 30.8838 24.8241 31.4014H25.8446ZM26.8546 35H27.9044V31.8945C27.9044 31.0645 28.3829 30.5127 29.2423 30.5127C29.9845 30.5127 30.38 30.9473 30.38 31.8213V35H31.4298V31.5723C31.4298 30.3174 30.7315 29.5996 29.5987 29.5996C28.7979 29.5996 28.2364 29.9512 27.9776 30.542H27.8946V27.6172H26.8546V35Z" fill="url(#paint1_linear)"/>
<defs>
<linearGradient id="paint0_linear" x1="15" y1="0" x2="15" y2="20" gradientUnits="userSpaceOnUse">
<stop stop-color="#D3C095"/>
<stop offset="1" stop-color="#A07923"/>
</linearGradient>
<linearGradient id="paint1_linear" x1="15.9165" y1="25" x2="15.9165" y2="37" gradientUnits="userSpaceOnUse">
<stop stop-color="#D3C095"/>
<stop offset="1" stop-color="#A07923"/>
</linearGradient>
</defs>
</svg>
