<svg width="76" height="49" viewBox="0 0 76 49" fill="none" xmlns="http://www.w3.org/2000/svg">
<path d="M46.9399 27.5624L40.4474 21.0699C41.4549 19.7675 41.9999 18.175 41.9999 16.5C41.9999 14.495 41.2174 12.615 39.8024 11.1975C38.3874 9.78 36.5025 9 34.5 9C32.4975 9 30.6125 9.7825 29.1975 11.1975C27.78 12.6125 27 14.495 27 16.5C27 18.5025 27.7825 20.3874 29.1975 21.8024C30.6125 23.2199 32.495 23.9999 34.5 23.9999C36.175 23.9999 37.765 23.4549 39.0674 22.4499L45.5599 28.9399C45.579 28.959 45.6016 28.9741 45.6264 28.9844C45.6513 28.9947 45.678 29 45.7049 29C45.7318 29 45.7585 28.9947 45.7834 28.9844C45.8083 28.9741 45.8309 28.959 45.8499 28.9399L46.9399 27.8524C46.959 27.8334 46.9741 27.8108 46.9844 27.7859C46.9947 27.761 47 27.7343 47 27.7074C47 27.6805 46.9947 27.6538 46.9844 27.6289C46.9741 27.6041 46.959 27.5815 46.9399 27.5624ZM38.46 20.46C37.4 21.5174 35.995 22.0999 34.5 22.0999C33.005 22.0999 31.6 21.5174 30.54 20.46C29.4825 19.4 28.9 17.995 28.9 16.5C28.9 15.005 29.4825 13.5975 30.54 12.54C31.6 11.4825 33.005 10.9 34.5 10.9C35.995 10.9 37.4025 11.48 38.46 12.54C39.5174 13.6 40.0999 15.005 40.0999 16.5C40.0999 17.995 39.5174 19.4025 38.46 20.46Z" fill="url(#paint0_linear)"/>
<path d="M22.2372 42.1201C22.3153 43.3701 23.3651 44.1709 24.9276 44.1709C26.5976 44.1709 27.6425 43.3311 27.6425 41.998C27.6425 40.9434 27.0468 40.3623 25.6015 40.0156L24.8251 39.8252C23.9071 39.6006 23.536 39.3076 23.536 38.7949C23.536 38.1357 24.1122 37.7109 24.9765 37.7109C25.7968 37.7109 26.3632 38.1211 26.4657 38.79H27.5302C27.4667 37.6133 26.4218 36.7832 24.9911 36.7832C23.453 36.7832 22.4276 37.6133 22.4276 38.8535C22.4276 39.8789 23.0087 40.4844 24.2831 40.792L25.1913 41.0117C26.1239 41.2363 26.5341 41.5781 26.5341 42.1299C26.5341 42.7744 25.8896 43.2383 25.0106 43.2383C24.0683 43.2383 23.414 42.8037 23.3212 42.1201H22.2372ZM32.2072 42.5791C32.0119 43.0088 31.5773 43.2432 30.9425 43.2432C30.1027 43.2432 29.5607 42.6377 29.5265 41.6758V41.627H33.2814V41.2656C33.2814 39.6055 32.3878 38.5947 30.9083 38.5947C29.4093 38.5947 28.4572 39.6738 28.4572 41.3584C28.4572 43.0527 29.3898 44.1025 30.9132 44.1025C32.129 44.1025 32.9884 43.5166 33.2179 42.5791H32.2072ZM30.9035 39.4492C31.6798 39.4492 32.1876 40.0107 32.2121 40.8701H29.5265C29.5851 40.0156 30.1271 39.4492 30.9035 39.4492ZM35.7709 44.0879C36.4691 44.0879 37.0502 43.7852 37.3676 43.248H37.4506V44H38.4613V40.3721C38.4613 39.2588 37.7094 38.5947 36.3763 38.5947C35.1703 38.5947 34.3109 39.1758 34.2035 40.0693H35.2191C35.3363 39.6836 35.7416 39.4639 36.3275 39.4639C37.0453 39.4639 37.4164 39.791 37.4164 40.3721V40.8359L35.976 40.9238C34.7113 41.002 33.9984 41.5537 33.9984 42.5059C33.9984 43.4727 34.7455 44.0879 35.7709 44.0879ZM36.0394 43.2432C35.4681 43.2432 35.0531 42.9551 35.0531 42.4619C35.0531 41.9785 35.3851 41.7197 36.1176 41.6709L37.4164 41.583V42.042C37.4164 42.7256 36.8305 43.2432 36.0394 43.2432ZM39.7155 44H40.7653V40.8311C40.7653 40.084 41.3268 39.5713 42.1227 39.5713C42.3082 39.5713 42.6207 39.6055 42.7086 39.6299V38.6436C42.5963 38.6191 42.3961 38.6045 42.2399 38.6045C41.5465 38.6045 40.9557 38.9805 40.8043 39.5029H40.7262V38.6973H39.7155V44ZM47.8446 40.4014C47.7079 39.3711 46.9022 38.5947 45.5692 38.5947C44.0213 38.5947 43.079 39.6445 43.079 41.3291C43.079 43.0479 44.0262 44.1025 45.5741 44.1025C46.8876 44.1025 47.7079 43.3652 47.8446 42.3203H46.8241C46.6874 42.8965 46.2333 43.209 45.5692 43.209C44.6952 43.209 44.1532 42.501 44.1532 41.3291C44.1532 40.1816 44.6903 39.4883 45.5692 39.4883C46.2723 39.4883 46.702 39.8838 46.8241 40.4014H47.8446ZM48.8546 44H49.9044V40.8945C49.9044 40.0645 50.3829 39.5127 51.2423 39.5127C51.9845 39.5127 52.38 39.9473 52.38 40.8213V44H53.4298V40.5723C53.4298 39.3174 52.7315 38.5996 51.5987 38.5996C50.7979 38.5996 50.2364 38.9512 49.9776 39.542H49.8946V36.6172H48.8546V44Z" fill="url(#paint1_linear)"/>
<defs>
<linearGradient id="paint0_linear" x1="37" y1="9" x2="37" y2="29" gradientUnits="userSpaceOnUse">
<stop stop-color="#D3C095"/>
<stop offset="1" stop-color="#A07923"/>
</linearGradient>
<linearGradient id="paint1_linear" x1="37.9165" y1="34" x2="37.9165" y2="46" gradientUnits="userSpaceOnUse">
<stop stop-color="#D3C095"/>
<stop offset="1" stop-color="#A07923"/>
</linearGradient>
</defs>
</svg>
