<svg width="39" height="38" viewBox="0 0 39 38" fill="none" xmlns="http://www.w3.org/2000/svg">
<path d="M28.0127 12.5422L26.5058 11.2921C26.5771 10.8679 26.6139 10.4349 26.6139 10.0018C26.6139 9.56874 26.5771 9.13568 26.5058 8.71154L28.0127 7.46146C28.1263 7.36704 28.2077 7.2413 28.2459 7.10094C28.2841 6.96058 28.2774 6.81225 28.2266 6.67569L28.2059 6.61765C27.7911 5.49263 27.1699 4.44972 26.3724 3.53931L26.331 3.49243C26.2342 3.38205 26.1053 3.3027 25.9611 3.26484C25.817 3.22698 25.6644 3.2324 25.5235 3.28036L23.6531 3.9255C22.9629 3.37635 22.1922 2.94328 21.3594 2.63969L20.9982 0.742239C20.971 0.599466 20.8996 0.468118 20.7936 0.365645C20.6876 0.263173 20.5519 0.194426 20.4047 0.168538L20.3426 0.157377C19.1439 -0.052459 17.8832 -0.052459 16.6846 0.157377L16.6225 0.168538C16.4753 0.194426 16.3396 0.263173 16.2336 0.365645C16.1276 0.468118 16.0562 0.599466 16.029 0.742239L15.6655 2.64862C14.8393 2.95228 14.0699 3.38511 13.3879 3.92996L11.5037 3.28036C11.3629 3.23201 11.2102 3.22641 11.0659 3.26429C10.9217 3.30217 10.7927 3.38174 10.6962 3.49243L10.6548 3.53931C9.85823 4.45036 9.23715 5.4931 8.82126 6.61765L8.80055 6.67569C8.69703 6.95472 8.78215 7.26725 9.01451 7.46146L10.5398 8.72494C10.4685 9.14461 10.434 9.57321 10.434 9.99958C10.434 10.4282 10.4685 10.8568 10.5398 11.2742L9.01451 12.5377C8.90085 12.6321 8.8195 12.7579 8.78128 12.8982C8.74306 13.0386 8.74978 13.1869 8.80055 13.3235L8.82126 13.3815C9.23766 14.5066 9.85422 15.5446 10.6548 16.4598L10.6962 16.5067C10.793 16.6171 10.9219 16.6965 11.0661 16.7343C11.2102 16.7722 11.3628 16.7668 11.5037 16.7188L13.3879 16.0692C14.0735 16.6161 14.8396 17.0492 15.6655 17.3505L16.029 19.2569C16.0562 19.3997 16.1276 19.531 16.2336 19.6335C16.3396 19.736 16.4753 19.8047 16.6225 19.8306L16.6846 19.8418C17.8942 20.0527 19.1329 20.0527 20.3426 19.8418L20.4047 19.8306C20.5519 19.8047 20.6876 19.736 20.7936 19.6335C20.8996 19.531 20.971 19.3997 20.9982 19.2569L21.3594 17.3595C22.1919 17.0567 22.9669 16.6222 23.6531 16.0737L25.5235 16.7188C25.6643 16.7671 25.817 16.7727 25.9613 16.7349C26.1055 16.697 26.2344 16.6174 26.331 16.5067L26.3724 16.4598C27.173 15.5424 27.7895 14.5066 28.2059 13.3815L28.2266 13.3235C28.3302 13.0489 28.245 12.7364 28.0127 12.5422ZM24.8724 8.97495C24.9299 9.31203 24.9598 9.65804 24.9598 10.004C24.9598 10.35 24.9299 10.6961 24.8724 11.0331L24.7205 11.9283L26.4391 13.3547C26.1786 13.9371 25.8497 14.4884 25.459 14.9977L23.3241 14.2633L22.6017 14.8392C22.0519 15.2767 21.4399 15.6205 20.7774 15.8616L19.9008 16.1808L19.489 18.3461C18.8393 18.4176 18.1833 18.4176 17.5335 18.3461L17.1217 16.1763L16.2521 15.8527C15.5965 15.6116 14.9868 15.2678 14.4416 14.8325L13.7192 14.2543L11.5704 14.9955C11.1793 14.4843 10.8527 13.9329 10.5904 13.3525L12.3273 11.9127L12.1778 11.0197C12.1226 10.6871 12.0927 10.3434 12.0927 10.004C12.0927 9.6625 12.1203 9.32096 12.1778 8.98835L12.3273 8.09543L10.5904 6.6556C10.8504 6.07297 11.1793 5.52382 11.5704 5.01262L13.7192 5.75375L14.4416 5.17558C14.9868 4.74028 15.5965 4.39651 16.2521 4.15542L17.124 3.8362L17.5358 1.66641C18.1823 1.59498 18.8426 1.59498 19.4913 1.66641L19.9031 3.83174L20.7797 4.15096C21.4399 4.39205 22.0542 4.73582 22.604 5.17335L23.3264 5.74928L25.4613 5.01486C25.8524 5.52605 26.1791 6.07743 26.4414 6.65783L24.7228 8.08427L24.8724 8.97495ZM18.5159 5.85197C16.2797 5.85197 14.4669 7.61102 14.4669 9.78081C14.4669 11.9506 16.2797 13.7097 18.5159 13.7097C20.7521 13.7097 22.5649 11.9506 22.5649 9.78081C22.5649 7.61102 20.7521 5.85197 18.5159 5.85197ZM20.3379 11.5488C20.099 11.7813 19.815 11.9658 19.5023 12.0914C19.1896 12.2171 18.8543 12.2815 18.5159 12.281C17.828 12.281 17.1816 12.0198 16.6938 11.5488C16.4542 11.3169 16.2641 11.0413 16.1346 10.7379C16.0051 10.4345 15.9387 10.1092 15.9392 9.78081C15.9392 9.11336 16.2084 8.48608 16.6938 8.01283C17.1816 7.53959 17.828 7.28064 18.5159 7.28064C19.2038 7.28064 19.8502 7.53959 20.3379 8.01283C20.5776 8.24472 20.7677 8.5203 20.8972 8.82372C21.0267 9.12714 21.0931 9.4524 21.0925 9.78081C21.0925 10.4483 20.8234 11.0755 20.3379 11.5488Z" fill="url(#paint0_linear)"/>
<path d="M0.757481 33.1201C0.835606 34.3701 1.88541 35.1709 3.44791 35.1709C5.11783 35.1709 6.16275 34.3311 6.16275 32.998C6.16275 31.9434 5.56705 31.3623 4.12174 31.0156L3.34537 30.8252C2.4274 30.6006 2.05631 30.3076 2.05631 29.7949C2.05631 29.1357 2.63248 28.7109 3.49674 28.7109C4.31705 28.7109 4.88346 29.1211 4.986 29.79H6.05045C5.98697 28.6133 4.94205 27.7832 3.51139 27.7832C1.9733 27.7832 0.94791 28.6133 0.94791 29.8535C0.94791 30.8789 1.52896 31.4844 2.80338 31.792L3.71158 32.0117C4.6442 32.2363 5.05436 32.5781 5.05436 33.1299C5.05436 33.7744 4.40982 34.2383 3.53092 34.2383C2.58854 34.2383 1.93424 33.8037 1.84146 33.1201H0.757481ZM10.7274 33.5791C10.5321 34.0088 10.0976 34.2432 9.46279 34.2432C8.62295 34.2432 8.08096 33.6377 8.04678 32.6758V32.627H11.8017V32.2656C11.8017 30.6055 10.9081 29.5947 9.42861 29.5947C7.92959 29.5947 6.97744 30.6738 6.97744 32.3584C6.97744 34.0527 7.91006 35.1025 9.4335 35.1025C10.6493 35.1025 11.5087 34.5166 11.7382 33.5791H10.7274ZM9.42373 30.4492C10.2001 30.4492 10.7079 31.0107 10.7323 31.8701H8.04678C8.10537 31.0156 8.64736 30.4492 9.42373 30.4492ZM13.1925 28.3594V29.7119H12.3478V30.5518H13.1925V33.6035C13.1925 34.624 13.6564 35.0342 14.8234 35.0342C15.0285 35.0342 15.2238 35.0098 15.3947 34.9805V34.1455C15.2482 34.1602 15.1554 34.1699 14.9943 34.1699C14.4718 34.1699 14.2423 33.9209 14.2423 33.3496V30.5518H15.3947V29.7119H14.2423V28.3594H13.1925ZM16.7806 28.3594V29.7119H15.9359V30.5518H16.7806V33.6035C16.7806 34.624 17.2445 35.0342 18.4115 35.0342C18.6166 35.0342 18.8119 35.0098 18.9828 34.9805V34.1455C18.8363 34.1602 18.7435 34.1699 18.5824 34.1699C18.0599 34.1699 17.8304 33.9209 17.8304 33.3496V30.5518H18.9828V29.7119H17.8304V28.3594H16.7806ZM20.5201 28.75C20.8863 28.75 21.1842 28.4521 21.1842 28.0908C21.1842 27.7246 20.8863 27.4268 20.5201 27.4268C20.1539 27.4268 19.8561 27.7246 19.8561 28.0908C19.8561 28.4521 20.1539 28.75 20.5201 28.75ZM19.9977 35H21.0426V29.6973H19.9977V35ZM22.3456 35H23.3954V31.8896C23.3954 31.0352 23.8885 30.5078 24.6649 30.5078C25.4413 30.5078 25.8124 30.9375 25.8124 31.8164V35H26.8622V31.5674C26.8622 30.3027 26.2079 29.5947 25.0213 29.5947C24.2206 29.5947 23.6932 29.9512 23.4344 30.5371H23.3563V29.6973H22.3456V35ZM30.3429 37.0264C31.8468 37.0264 32.7989 36.2598 32.7989 35.0537V29.6973H31.7931V30.542H31.7101C31.4122 29.9658 30.7726 29.6045 30.0401 29.6045C28.6827 29.6045 27.8331 30.6738 27.8331 32.2803C27.8331 33.8721 28.6729 34.9219 30.0304 34.9219C30.7628 34.9219 31.3487 34.6045 31.671 34.0283H31.7491V35.0488C31.7491 35.7666 31.2315 36.1963 30.3575 36.1963C29.6495 36.1963 29.2052 35.9424 29.1173 35.542H28.0431C28.1554 36.4355 29.0147 37.0264 30.3429 37.0264ZM30.3282 34.0527C29.4249 34.0527 28.9171 33.3643 28.9171 32.2803C28.9171 31.1963 29.4249 30.5029 30.3282 30.5029C31.2218 30.5029 31.7687 31.1963 31.7687 32.2803C31.7687 33.3643 31.2267 34.0527 30.3282 34.0527ZM33.9603 31.1816C33.9603 31.9678 34.429 32.417 35.4398 32.6514L36.3675 32.8711C36.8997 32.998 37.1488 33.2129 37.1488 33.5449C37.1488 33.9795 36.6849 34.2822 36.0306 34.2822C35.3958 34.2822 35.0052 34.0234 34.8734 33.6084H33.8236C33.9163 34.5312 34.7415 35.1025 36.0062 35.1025C37.2757 35.1025 38.2083 34.4336 38.2083 33.4473C38.2083 32.6758 37.7347 32.2412 36.724 32.0068L35.8402 31.8018C35.264 31.665 34.9954 31.46 34.9954 31.1328C34.9954 30.7031 35.4398 30.415 36.0257 30.415C36.6214 30.415 37.0023 30.6738 37.0999 31.0693H38.1058C38.0033 30.1514 37.222 29.5947 36.0257 29.5947C34.8246 29.5947 33.9603 30.2588 33.9603 31.1816Z" fill="url(#paint1_linear)"/>
<defs>
<linearGradient id="paint0_linear" x1="18.5136" y1="0" x2="18.5136" y2="20" gradientUnits="userSpaceOnUse">
<stop stop-color="#D3C095"/>
<stop offset="1" stop-color="#A07923"/>
</linearGradient>
<linearGradient id="paint1_linear" x1="19.4585" y1="25" x2="19.4585" y2="37" gradientUnits="userSpaceOnUse">
<stop stop-color="#D3C095"/>
<stop offset="1" stop-color="#A07923"/>
</linearGradient>
</defs>
</svg>
