<svg width="76" height="49" viewBox="0 0 76 49" fill="none" xmlns="http://www.w3.org/2000/svg">
<path d="M48.0127 21.5422L46.5058 20.2921C46.5771 19.8679 46.6139 19.4349 46.6139 19.0018C46.6139 18.5687 46.5771 18.1357 46.5058 17.7115L48.0127 16.4615C48.1263 16.367 48.2077 16.2413 48.2459 16.1009C48.2841 15.9606 48.2774 15.8123 48.2266 15.6757L48.2059 15.6176C47.7911 14.4926 47.1699 13.4497 46.3724 12.5393L46.331 12.4924C46.2342 12.382 46.1053 12.3027 45.9611 12.2648C45.817 12.227 45.6644 12.2324 45.5235 12.2804L43.6531 12.9255C42.9629 12.3764 42.1922 11.9433 41.3594 11.6397L40.9982 9.74224C40.971 9.59947 40.8996 9.46812 40.7936 9.36565C40.6876 9.26317 40.5519 9.19443 40.4047 9.16854L40.3426 9.15738C39.1439 8.94754 37.8832 8.94754 36.6846 9.15738L36.6225 9.16854C36.4753 9.19443 36.3396 9.26317 36.2336 9.36565C36.1276 9.46812 36.0562 9.59947 36.029 9.74224L35.6655 11.6486C34.8393 11.9523 34.0699 12.3851 33.3879 12.93L31.5037 12.2804C31.3629 12.232 31.2102 12.2264 31.0659 12.2643C30.9217 12.3022 30.7927 12.3817 30.6962 12.4924L30.6548 12.5393C29.8582 13.4504 29.2371 14.4931 28.8213 15.6176L28.8006 15.6757C28.697 15.9547 28.7821 16.2672 29.0145 16.4615L30.5398 17.7249C30.4685 18.1446 30.434 18.5732 30.434 18.9996C30.434 19.4282 30.4685 19.8568 30.5398 20.2742L29.0145 21.5377C28.9008 21.6321 28.8195 21.7579 28.7813 21.8982C28.7431 22.0386 28.7498 22.1869 28.8006 22.3235L28.8213 22.3815C29.2377 23.5066 29.8542 24.5446 30.6548 25.4598L30.6962 25.5067C30.793 25.6171 30.9219 25.6965 31.0661 25.7343C31.2102 25.7722 31.3628 25.7668 31.5037 25.7188L33.3879 25.0692C34.0735 25.6161 34.8396 26.0492 35.6655 26.3505L36.029 28.2569C36.0562 28.3997 36.1276 28.531 36.2336 28.6335C36.3396 28.736 36.4753 28.8047 36.6225 28.8306L36.6846 28.8418C37.8942 29.0527 39.1329 29.0527 40.3426 28.8418L40.4047 28.8306C40.5519 28.8047 40.6876 28.736 40.7936 28.6335C40.8996 28.531 40.971 28.3997 40.9982 28.2569L41.3594 26.3595C42.1919 26.0567 42.9669 25.6222 43.6531 25.0737L45.5235 25.7188C45.6643 25.7671 45.817 25.7727 45.9613 25.7349C46.1055 25.697 46.2344 25.6174 46.331 25.5067L46.3724 25.4598C47.173 24.5424 47.7895 23.5066 48.2059 22.3815L48.2266 22.3235C48.3302 22.0489 48.245 21.7364 48.0127 21.5422ZM44.8724 17.975C44.9299 18.312 44.9598 18.658 44.9598 19.004C44.9598 19.35 44.9299 19.6961 44.8724 20.0331L44.7205 20.9283L46.4391 22.3547C46.1786 22.9371 45.8497 23.4884 45.459 23.9977L43.3241 23.2633L42.6017 23.8392C42.0519 24.2767 41.4399 24.6205 40.7774 24.8616L39.9008 25.1808L39.489 27.3461C38.8393 27.4176 38.1833 27.4176 37.5335 27.3461L37.1217 25.1763L36.2521 24.8527C35.5965 24.6116 34.9868 24.2678 34.4416 23.8325L33.7192 23.2543L31.5704 23.9955C31.1793 23.4843 30.8527 22.9329 30.5904 22.3525L32.3273 20.9127L32.1778 20.0197C32.1226 19.6871 32.0927 19.3434 32.0927 19.004C32.0927 18.6625 32.1203 18.321 32.1778 17.9883L32.3273 17.0954L30.5904 15.6556C30.8504 15.073 31.1793 14.5238 31.5704 14.0126L33.7192 14.7537L34.4416 14.1756C34.9868 13.7403 35.5965 13.3965 36.2521 13.1554L37.124 12.8362L37.5358 10.6664C38.1823 10.595 38.8426 10.595 39.4913 10.6664L39.9031 12.8317L40.7797 13.151C41.4399 13.392 42.0542 13.7358 42.604 14.1734L43.3264 14.7493L45.4613 14.0149C45.8524 14.5261 46.1791 15.0774 46.4414 15.6578L44.7228 17.0843L44.8724 17.975ZM38.5159 14.852C36.2797 14.852 34.4669 16.611 34.4669 18.7808C34.4669 20.9506 36.2797 22.7097 38.5159 22.7097C40.7521 22.7097 42.5649 20.9506 42.5649 18.7808C42.5649 16.611 40.7521 14.852 38.5159 14.852ZM40.3379 20.5488C40.099 20.7813 39.815 20.9658 39.5023 21.0914C39.1896 21.2171 38.8543 21.2815 38.5159 21.281C37.828 21.281 37.1816 21.0198 36.6938 20.5488C36.4542 20.3169 36.2641 20.0413 36.1346 19.7379C36.0051 19.4345 35.9387 19.1092 35.9392 18.7808C35.9392 18.1134 36.2084 17.4861 36.6938 17.0128C37.1816 16.5396 37.828 16.2806 38.5159 16.2806C39.2038 16.2806 39.8502 16.5396 40.3379 17.0128C40.5776 17.2447 40.7677 17.5203 40.8972 17.8237C41.0267 18.1271 41.0931 18.4524 41.0925 18.7808C41.0925 19.4483 40.8234 20.0755 40.3379 20.5488Z" fill="url(#paint0_linear)"/>
<path d="M20.7575 42.1201C20.8356 43.3701 21.8854 44.1709 23.4479 44.1709C25.1178 44.1709 26.1628 43.3311 26.1628 41.998C26.1628 40.9434 25.5671 40.3623 24.1217 40.0156L23.3454 39.8252C22.4274 39.6006 22.0563 39.3076 22.0563 38.7949C22.0563 38.1357 22.6325 37.7109 23.4967 37.7109C24.3171 37.7109 24.8835 38.1211 24.986 38.79H26.0504C25.987 37.6133 24.9421 36.7832 23.5114 36.7832C21.9733 36.7832 20.9479 37.6133 20.9479 38.8535C20.9479 39.8789 21.529 40.4844 22.8034 40.792L23.7116 41.0117C24.6442 41.2363 25.0544 41.5781 25.0544 42.1299C25.0544 42.7744 24.4098 43.2383 23.5309 43.2383C22.5885 43.2383 21.9342 42.8037 21.8415 42.1201H20.7575ZM30.7274 42.5791C30.5321 43.0088 30.0976 43.2432 29.4628 43.2432C28.6229 43.2432 28.081 42.6377 28.0468 41.6758V41.627H31.8017V41.2656C31.8017 39.6055 30.9081 38.5947 29.4286 38.5947C27.9296 38.5947 26.9774 39.6738 26.9774 41.3584C26.9774 43.0527 27.9101 44.1025 29.4335 44.1025C30.6493 44.1025 31.5087 43.5166 31.7382 42.5791H30.7274ZM29.4237 39.4492C30.2001 39.4492 30.7079 40.0107 30.7323 40.8701H28.0468C28.1054 40.0156 28.6474 39.4492 29.4237 39.4492ZM33.1925 37.3594V38.7119H32.3478V39.5518H33.1925V42.6035C33.1925 43.624 33.6564 44.0342 34.8234 44.0342C35.0285 44.0342 35.2238 44.0098 35.3947 43.9805V43.1455C35.2482 43.1602 35.1554 43.1699 34.9943 43.1699C34.4718 43.1699 34.2423 42.9209 34.2423 42.3496V39.5518H35.3947V38.7119H34.2423V37.3594H33.1925ZM36.7806 37.3594V38.7119H35.9359V39.5518H36.7806V42.6035C36.7806 43.624 37.2445 44.0342 38.4115 44.0342C38.6166 44.0342 38.8119 44.0098 38.9828 43.9805V43.1455C38.8363 43.1602 38.7435 43.1699 38.5824 43.1699C38.0599 43.1699 37.8304 42.9209 37.8304 42.3496V39.5518H38.9828V38.7119H37.8304V37.3594H36.7806ZM40.5201 37.75C40.8863 37.75 41.1842 37.4521 41.1842 37.0908C41.1842 36.7246 40.8863 36.4268 40.5201 36.4268C40.1539 36.4268 39.8561 36.7246 39.8561 37.0908C39.8561 37.4521 40.1539 37.75 40.5201 37.75ZM39.9977 44H41.0426V38.6973H39.9977V44ZM42.3456 44H43.3954V40.8896C43.3954 40.0352 43.8885 39.5078 44.6649 39.5078C45.4413 39.5078 45.8124 39.9375 45.8124 40.8164V44H46.8622V40.5674C46.8622 39.3027 46.2079 38.5947 45.0213 38.5947C44.2206 38.5947 43.6932 38.9512 43.4344 39.5371H43.3563V38.6973H42.3456V44ZM50.3429 46.0264C51.8468 46.0264 52.7989 45.2598 52.7989 44.0537V38.6973H51.7931V39.542H51.7101C51.4122 38.9658 50.7726 38.6045 50.0401 38.6045C48.6827 38.6045 47.8331 39.6738 47.8331 41.2803C47.8331 42.8721 48.6729 43.9219 50.0304 43.9219C50.7628 43.9219 51.3487 43.6045 51.671 43.0283H51.7491V44.0488C51.7491 44.7666 51.2315 45.1963 50.3575 45.1963C49.6495 45.1963 49.2052 44.9424 49.1173 44.542H48.0431C48.1554 45.4355 49.0147 46.0264 50.3429 46.0264ZM50.3282 43.0527C49.4249 43.0527 48.9171 42.3643 48.9171 41.2803C48.9171 40.1963 49.4249 39.5029 50.3282 39.5029C51.2218 39.5029 51.7687 40.1963 51.7687 41.2803C51.7687 42.3643 51.2267 43.0527 50.3282 43.0527ZM53.9603 40.1816C53.9603 40.9678 54.429 41.417 55.4398 41.6514L56.3675 41.8711C56.8997 41.998 57.1488 42.2129 57.1488 42.5449C57.1488 42.9795 56.6849 43.2822 56.0306 43.2822C55.3958 43.2822 55.0052 43.0234 54.8734 42.6084H53.8236C53.9163 43.5312 54.7415 44.1025 56.0062 44.1025C57.2757 44.1025 58.2083 43.4336 58.2083 42.4473C58.2083 41.6758 57.7347 41.2412 56.724 41.0068L55.8402 40.8018C55.264 40.665 54.9954 40.46 54.9954 40.1328C54.9954 39.7031 55.4398 39.415 56.0257 39.415C56.6214 39.415 57.0023 39.6738 57.0999 40.0693H58.1058C58.0033 39.1514 57.222 38.5947 56.0257 38.5947C54.8246 38.5947 53.9603 39.2588 53.9603 40.1816Z" fill="url(#paint1_linear)"/>
<defs>
<linearGradient id="paint0_linear" x1="38.5136" y1="9" x2="38.5136" y2="29" gradientUnits="userSpaceOnUse">
<stop stop-color="#D3C095"/>
<stop offset="1" stop-color="#A07923"/>
</linearGradient>
<linearGradient id="paint1_linear" x1="39.4585" y1="34" x2="39.4585" y2="46" gradientUnits="userSpaceOnUse">
<stop stop-color="#D3C095"/>
<stop offset="1" stop-color="#A07923"/>
</linearGradient>
</defs>
</svg>
