<svg width="50" height="49" viewBox="0 0 50 49" fill="none" xmlns="http://www.w3.org/2000/svg">
<path d="M31.129 21.9032C33.271 21.9032 35 23.6323 35 25.7742C35 27.9161 33.271 29.6452 31.129 29.6452C28.9871 29.6452 27.2581 27.9161 27.2581 25.7742C27.2581 25.4645 27.2968 25.1806 27.3742 24.8839L21.7226 21.9161C21.0129 22.7032 20.0065 23.1935 18.871 23.1935C16.729 23.1935 15 21.4645 15 19.3226C15 17.1806 16.729 15.4516 18.871 15.4516C20.0065 15.4516 21.0129 15.9548 21.7226 16.729L27.3742 13.7613C27.2968 13.4645 27.2581 13.1806 27.2581 12.871C27.2581 10.729 28.9871 9 31.129 9C33.271 9 35 10.729 35 12.871C35 15.0129 33.271 16.7419 31.129 16.7419C29.9935 16.7419 28.9871 16.2387 28.2774 15.4645L22.6258 18.4323C22.7821 19.0155 22.7821 19.6296 22.6258 20.2129L28.2774 23.1806C28.9871 22.3935 29.9935 21.9032 31.129 21.9032Z" fill="url(#paint0_linear)"/>
<path d="M11.9688 42.1201C12.0469 43.3701 13.0967 44.1709 14.6592 44.1709C16.3291 44.1709 17.374 43.3311 17.374 41.998C17.374 40.9434 16.7783 40.3623 15.333 40.0156L14.5567 39.8252C13.6387 39.6006 13.2676 39.3076 13.2676 38.7949C13.2676 38.1357 13.8438 37.7109 14.708 37.7109C15.5283 37.7109 16.0947 38.1211 16.1973 38.79H17.2617C17.1983 37.6133 16.1533 36.7832 14.7227 36.7832C13.1846 36.7832 12.1592 37.6133 12.1592 38.8535C12.1592 39.8789 12.7403 40.4844 14.0147 40.792L14.9229 41.0117C15.8555 41.2363 16.2656 41.5781 16.2656 42.1299C16.2656 42.7744 15.6211 43.2383 14.7422 43.2383C13.7998 43.2383 13.1455 42.8037 13.0528 42.1201H11.9688ZM18.5012 44H19.551V40.8945C19.551 40.0645 20.0296 39.5127 20.8889 39.5127C21.6311 39.5127 22.0266 39.9473 22.0266 40.8213V44H23.0764V40.5723C23.0764 39.3174 22.3782 38.5996 21.2454 38.5996C20.4446 38.5996 19.8831 38.9512 19.6243 39.542H19.5413V36.6172H18.5012V44ZM25.7856 44.0879C26.4839 44.0879 27.0649 43.7852 27.3823 43.248H27.4653V44H28.4761V40.3721C28.4761 39.2588 27.7241 38.5947 26.3911 38.5947C25.1851 38.5947 24.3257 39.1758 24.2183 40.0693H25.2339C25.3511 39.6836 25.7563 39.4639 26.3423 39.4639C27.0601 39.4639 27.4312 39.791 27.4312 40.3721V40.8359L25.9907 40.9238C24.7261 41.002 24.0132 41.5537 24.0132 42.5059C24.0132 43.4727 24.7603 44.0879 25.7856 44.0879ZM26.0542 43.2432C25.4829 43.2432 25.0679 42.9551 25.0679 42.4619C25.0679 41.9785 25.3999 41.7197 26.1323 41.6709L27.4312 41.583V42.042C27.4312 42.7256 26.8452 43.2432 26.0542 43.2432ZM29.7302 44H30.78V40.8311C30.78 40.084 31.3415 39.5713 32.1374 39.5713C32.323 39.5713 32.6355 39.6055 32.7234 39.6299V38.6436C32.6111 38.6191 32.4109 38.6045 32.2546 38.6045C31.5613 38.6045 30.9704 38.9805 30.8191 39.5029H30.741V38.6973H29.7302V44ZM36.8437 42.5791C36.6484 43.0088 36.2138 43.2432 35.5791 43.2432C34.7392 43.2432 34.1972 42.6377 34.1631 41.6758V41.627H37.9179V41.2656C37.9179 39.6055 37.0244 38.5947 35.5449 38.5947C34.0459 38.5947 33.0937 39.6738 33.0937 41.3584C33.0937 43.0527 34.0263 44.1025 35.5498 44.1025C36.7656 44.1025 37.625 43.5166 37.8545 42.5791H36.8437ZM35.54 39.4492C36.3164 39.4492 36.8242 40.0107 36.8486 40.8701H34.1631C34.2217 40.0156 34.7637 39.4492 35.54 39.4492Z" fill="url(#paint1_linear)"/>
<defs>
<linearGradient id="paint0_linear" x1="25" y1="9" x2="25" y2="29.6452" gradientUnits="userSpaceOnUse">
<stop stop-color="#D3C095"/>
<stop offset="1" stop-color="#A07923"/>
</linearGradient>
<linearGradient id="paint1_linear" x1="24.9165" y1="34" x2="24.9165" y2="46" gradientUnits="userSpaceOnUse">
<stop stop-color="#D3C095"/>
<stop offset="1" stop-color="#A07923"/>
</linearGradient>
</defs>
</svg>
