<svg width="30" height="35" viewBox="0 0 30 35" fill="none" xmlns="http://www.w3.org/2000/svg">
<path d="M21.4318 10.8571C19.85 10.8571 17.385 11.3186 15.5 12.2143C13.615 11.305 11.15 10.8571 9.56818 10.8571C6.70773 10.8571 1 12.3229 1 15.2679V19H30V15.2679C30 12.3229 24.2923 10.8571 21.4318 10.8571ZM16.1591 16.9643H2.97727V15.2679C2.97727 14.535 6.35182 12.8929 9.56818 12.8929C12.7845 12.8929 16.1591 14.535 16.1591 15.2679V16.9643ZM28.0227 16.9643H18.1364V15.2679C18.1364 14.6436 17.8727 14.1007 17.4509 13.6121C18.6109 13.205 20.0345 12.8929 21.4318 12.8929C24.6482 12.8929 28.0227 14.535 28.0227 15.2679V16.9643ZM9.56818 9.5C12.1123 9.5 14.1818 7.36929 14.1818 4.75C14.1818 2.13071 12.1123 0 9.56818 0C7.02409 0 4.95455 2.13071 4.95455 4.75C4.95455 7.36929 7.02409 9.5 9.56818 9.5ZM9.56818 2.03571C11.0182 2.03571 12.2045 3.25714 12.2045 4.75C12.2045 6.24286 11.0182 7.46429 9.56818 7.46429C8.11818 7.46429 6.93182 6.24286 6.93182 4.75C6.93182 3.25714 8.11818 2.03571 9.56818 2.03571ZM21.4318 9.5C23.9759 9.5 26.0455 7.36929 26.0455 4.75C26.0455 2.13071 23.9759 0 21.4318 0C18.8877 0 16.8182 2.13071 16.8182 4.75C16.8182 7.36929 18.8877 9.5 21.4318 9.5ZM21.4318 2.03571C22.8818 2.03571 24.0682 3.25714 24.0682 4.75C24.0682 6.24286 22.8818 7.46429 21.4318 7.46429C19.9818 7.46429 18.7955 6.24286 18.7955 4.75C18.7955 3.25714 19.9818 2.03571 21.4318 2.03571Z" fill="url(#paint0_linear)"/>
<path d="M0.983301 32.1201C1.06143 33.3701 2.11123 34.1709 3.67373 34.1709C5.34365 34.1709 6.38857 33.3311 6.38857 31.998C6.38857 30.9434 5.79287 30.3623 4.34756 30.0156L3.57119 29.8252C2.65322 29.6006 2.28213 29.3076 2.28213 28.7949C2.28213 28.1357 2.8583 27.7109 3.72256 27.7109C4.54287 27.7109 5.10928 28.1211 5.21182 28.79H6.27627C6.21279 27.6133 5.16787 26.7832 3.73721 26.7832C2.19912 26.7832 1.17373 27.6133 1.17373 28.8535C1.17373 29.8789 1.75479 30.4844 3.0292 30.792L3.9374 31.0117C4.87002 31.2363 5.28018 31.5781 5.28018 32.1299C5.28018 32.7744 4.63564 33.2383 3.75674 33.2383C2.81436 33.2383 2.16006 32.8037 2.06729 32.1201H0.983301ZM9.71303 34.1025C11.2658 34.1025 12.2179 33.0625 12.2179 31.3486C12.2179 29.6348 11.2609 28.5947 9.71303 28.5947C8.16029 28.5947 7.20326 29.6396 7.20326 31.3486C7.20326 33.0625 8.15541 34.1025 9.71303 34.1025ZM9.71303 33.209C8.79994 33.209 8.28725 32.5303 8.28725 31.3486C8.28725 30.167 8.79994 29.4834 9.71303 29.4834C10.6212 29.4834 11.1388 30.167 11.1388 31.3486C11.1388 32.5254 10.6212 33.209 9.71303 33.209ZM17.7445 30.4014C17.6078 29.3711 16.8021 28.5947 15.4691 28.5947C13.9213 28.5947 12.9789 29.6445 12.9789 31.3291C12.9789 33.0479 13.9262 34.1025 15.474 34.1025C16.7875 34.1025 17.6078 33.3652 17.7445 32.3203H16.724C16.5873 32.8965 16.1332 33.209 15.4691 33.209C14.5951 33.209 14.0531 32.501 14.0531 31.3291C14.0531 30.1816 14.5902 29.4883 15.4691 29.4883C16.1722 29.4883 16.6019 29.8838 16.724 30.4014H17.7445ZM19.2477 27.75C19.6139 27.75 19.9117 27.4521 19.9117 27.0908C19.9117 26.7246 19.6139 26.4268 19.2477 26.4268C18.8815 26.4268 18.5836 26.7246 18.5836 27.0908C18.5836 27.4521 18.8815 27.75 19.2477 27.75ZM18.7252 34H19.7701V28.6973H18.7252V34ZM22.5428 34.0879C23.2411 34.0879 23.8221 33.7852 24.1395 33.248H24.2225V34H25.2333V30.3721C25.2333 29.2588 24.4813 28.5947 23.1483 28.5947C21.9422 28.5947 21.0829 29.1758 20.9755 30.0693H21.9911C22.1083 29.6836 22.5135 29.4639 23.0995 29.4639C23.8172 29.4639 24.1883 29.791 24.1883 30.3721V30.8359L22.7479 30.9238C21.4833 31.002 20.7704 31.5537 20.7704 32.5059C20.7704 33.4727 21.5174 34.0879 22.5428 34.0879ZM22.8114 33.2432C22.2401 33.2432 21.8251 32.9551 21.8251 32.4619C21.8251 31.9785 22.1571 31.7197 22.8895 31.6709L24.1883 31.583V32.042C24.1883 32.7256 23.6024 33.2432 22.8114 33.2432ZM26.5362 34H27.586V26.6172H26.5362V34Z" fill="url(#paint1_linear)"/>
<defs>
<linearGradient id="paint0_linear" x1="15.5" y1="0" x2="15.5" y2="19" gradientUnits="userSpaceOnUse">
<stop stop-color="#D3C095"/>
<stop offset="1" stop-color="#A07923"/>
</linearGradient>
<linearGradient id="paint1_linear" x1="14.4165" y1="24" x2="14.4165" y2="36" gradientUnits="userSpaceOnUse">
<stop stop-color="#D3C095"/>
<stop offset="1" stop-color="#A07923"/>
</linearGradient>
</defs>
</svg>
