<svg width="76" height="49" viewBox="0 0 76 49" fill="none" xmlns="http://www.w3.org/2000/svg">
<path d="M44.4318 20.8571C42.85 20.8571 40.385 21.3186 38.5 22.2143C36.615 21.305 34.15 20.8571 32.5682 20.8571C29.7077 20.8571 24 22.3229 24 25.2679V29H53V25.2679C53 22.3229 47.2923 20.8571 44.4318 20.8571ZM39.1591 26.9643H25.9773V25.2679C25.9773 24.535 29.3518 22.8929 32.5682 22.8929C35.7845 22.8929 39.1591 24.535 39.1591 25.2679V26.9643ZM51.0227 26.9643H41.1364V25.2679C41.1364 24.6436 40.8727 24.1007 40.4509 23.6121C41.6109 23.205 43.0345 22.8929 44.4318 22.8929C47.6482 22.8929 51.0227 24.535 51.0227 25.2679V26.9643ZM32.5682 19.5C35.1123 19.5 37.1818 17.3693 37.1818 14.75C37.1818 12.1307 35.1123 10 32.5682 10C30.0241 10 27.9545 12.1307 27.9545 14.75C27.9545 17.3693 30.0241 19.5 32.5682 19.5ZM32.5682 12.0357C34.0182 12.0357 35.2045 13.2571 35.2045 14.75C35.2045 16.2429 34.0182 17.4643 32.5682 17.4643C31.1182 17.4643 29.9318 16.2429 29.9318 14.75C29.9318 13.2571 31.1182 12.0357 32.5682 12.0357ZM44.4318 19.5C46.9759 19.5 49.0455 17.3693 49.0455 14.75C49.0455 12.1307 46.9759 10 44.4318 10C41.8877 10 39.8182 12.1307 39.8182 14.75C39.8182 17.3693 41.8877 19.5 44.4318 19.5ZM44.4318 12.0357C45.8818 12.0357 47.0682 13.2571 47.0682 14.75C47.0682 16.2429 45.8818 17.4643 44.4318 17.4643C42.9818 17.4643 41.7955 16.2429 41.7955 14.75C41.7955 13.2571 42.9818 12.0357 44.4318 12.0357Z" fill="url(#paint0_linear)"/>
<path d="M23.9833 42.1201C24.0614 43.3701 25.1112 44.1709 26.6737 44.1709C28.3437 44.1709 29.3886 43.3311 29.3886 41.998C29.3886 40.9434 28.7929 40.3623 27.3476 40.0156L26.5712 39.8252C25.6532 39.6006 25.2821 39.3076 25.2821 38.7949C25.2821 38.1357 25.8583 37.7109 26.7226 37.7109C27.5429 37.7109 28.1093 38.1211 28.2118 38.79H29.2763C29.2128 37.6133 28.1679 36.7832 26.7372 36.7832C25.1991 36.7832 24.1737 37.6133 24.1737 38.8535C24.1737 39.8789 24.7548 40.4844 26.0292 40.792L26.9374 41.0117C27.87 41.2363 28.2802 41.5781 28.2802 42.1299C28.2802 42.7744 27.6356 43.2383 26.7567 43.2383C25.8144 43.2383 25.1601 42.8037 25.0673 42.1201H23.9833ZM32.713 44.1025C34.2658 44.1025 35.2179 43.0625 35.2179 41.3486C35.2179 39.6348 34.2609 38.5947 32.713 38.5947C31.1603 38.5947 30.2033 39.6396 30.2033 41.3486C30.2033 43.0625 31.1554 44.1025 32.713 44.1025ZM32.713 43.209C31.7999 43.209 31.2872 42.5303 31.2872 41.3486C31.2872 40.167 31.7999 39.4834 32.713 39.4834C33.6212 39.4834 34.1388 40.167 34.1388 41.3486C34.1388 42.5254 33.6212 43.209 32.713 43.209ZM40.7445 40.4014C40.6078 39.3711 39.8021 38.5947 38.4691 38.5947C36.9213 38.5947 35.9789 39.6445 35.9789 41.3291C35.9789 43.0479 36.9262 44.1025 38.474 44.1025C39.7875 44.1025 40.6078 43.3652 40.7445 42.3203H39.724C39.5873 42.8965 39.1332 43.209 38.4691 43.209C37.5951 43.209 37.0531 42.501 37.0531 41.3291C37.0531 40.1816 37.5902 39.4883 38.4691 39.4883C39.1722 39.4883 39.6019 39.8838 39.724 40.4014H40.7445ZM42.2477 37.75C42.6139 37.75 42.9117 37.4521 42.9117 37.0908C42.9117 36.7246 42.6139 36.4268 42.2477 36.4268C41.8815 36.4268 41.5836 36.7246 41.5836 37.0908C41.5836 37.4521 41.8815 37.75 42.2477 37.75ZM41.7252 44H42.7701V38.6973H41.7252V44ZM45.5428 44.0879C46.2411 44.0879 46.8221 43.7852 47.1395 43.248H47.2225V44H48.2333V40.3721C48.2333 39.2588 47.4813 38.5947 46.1483 38.5947C44.9422 38.5947 44.0829 39.1758 43.9755 40.0693H44.9911C45.1083 39.6836 45.5135 39.4639 46.0995 39.4639C46.8172 39.4639 47.1883 39.791 47.1883 40.3721V40.8359L45.7479 40.9238C44.4833 41.002 43.7704 41.5537 43.7704 42.5059C43.7704 43.4727 44.5174 44.0879 45.5428 44.0879ZM45.8114 43.2432C45.2401 43.2432 44.8251 42.9551 44.8251 42.4619C44.8251 41.9785 45.1571 41.7197 45.8895 41.6709L47.1883 41.583V42.042C47.1883 42.7256 46.6024 43.2432 45.8114 43.2432ZM49.5362 44H50.586V36.6172H49.5362V44Z" fill="url(#paint1_linear)"/>
<defs>
<linearGradient id="paint0_linear" x1="38.5" y1="10" x2="38.5" y2="29" gradientUnits="userSpaceOnUse">
<stop stop-color="#D3C095"/>
<stop offset="1" stop-color="#A07923"/>
</linearGradient>
<linearGradient id="paint1_linear" x1="37.4165" y1="34" x2="37.4165" y2="46" gradientUnits="userSpaceOnUse">
<stop stop-color="#D3C095"/>
<stop offset="1" stop-color="#A07923"/>
</linearGradient>
</defs>
</svg>
