<svg width="23" height="22" viewBox="0 0 23 22" fill="none" xmlns="http://www.w3.org/2000/svg">
<path d="M21.6666 10.1862C21.9143 10.0016 22.0981 9.74411 22.1922 9.4498C22.2862 9.15549 22.2858 8.83913 22.191 8.54507C22.0961 8.25101 21.9116 7.99401 21.6634 7.81009C21.4151 7.62618 21.1155 7.52457 20.8066 7.51953L14.8066 7.29286C14.7771 7.29082 14.7488 7.2803 14.7251 7.26256C14.7015 7.24482 14.6834 7.22061 14.6732 7.19286L12.5999 1.59286C12.4957 1.30795 12.3065 1.06194 12.0579 0.888126C11.8093 0.714311 11.5132 0.621094 11.2099 0.621094C10.9065 0.621094 10.6105 0.714311 10.3619 0.888126C10.1133 1.06194 9.92407 1.30795 9.81989 1.59286L7.75323 7.21286C7.74301 7.24061 7.72499 7.26482 7.70133 7.28256C7.67768 7.3003 7.64939 7.31083 7.61989 7.31286L1.61989 7.53953C1.31096 7.54457 1.01136 7.64618 0.76309 7.83009C0.51482 8.01401 0.330334 8.27101 0.235501 8.56507C0.140667 8.85913 0.140242 9.17549 0.234284 9.4698C0.328326 9.76411 0.51212 10.0216 0.759894 10.2062L5.46656 13.9062C5.49012 13.9247 5.50772 13.9498 5.5172 13.9782C5.52668 14.0066 5.52762 14.0372 5.51989 14.0662L3.89989 19.8062C3.81595 20.0985 3.82408 20.4095 3.92319 20.6971C4.02229 20.9846 4.20756 21.2346 4.45379 21.413C4.70002 21.5915 4.99526 21.6898 5.29933 21.6946C5.6034 21.6993 5.90156 21.6103 6.15323 21.4395L11.1266 18.1062C11.1511 18.0893 11.1801 18.0802 11.2099 18.0802C11.2397 18.0802 11.2687 18.0893 11.2932 18.1062L16.2666 21.4395C16.5148 21.6161 16.8119 21.7109 17.1166 21.7109C17.4212 21.7109 17.7183 21.6161 17.9666 21.4395C18.2129 21.2627 18.3983 21.014 18.4974 20.7274C18.5965 20.4409 18.6043 20.1307 18.5199 19.8395L16.8866 14.0795C16.8779 14.0506 16.8784 14.0197 16.8879 13.9911C16.8975 13.9625 16.9156 13.9375 16.9399 13.9195L21.6666 10.1862Z" fill="url(#paint0_linear)"/>
<defs>
<linearGradient id="paint0_linear" x1="11.2132" y1="0.621094" x2="11.2132" y2="21.7109" gradientUnits="userSpaceOnUse">
<stop stop-color="#D3C095"/>
<stop offset="1" stop-color="#A07923"/>
</linearGradient>
</defs>
</svg>
