<svg width="169" height="44" viewBox="0 0 169 44" fill="none" xmlns="http://www.w3.org/2000/svg">
<rect x="1" y="1" width="167" height="42" rx="21" stroke="url(#paint0_linear)" stroke-width="2"/>
<path d="M46.7978 22.6128C45.431 22.2199 44.4349 21.7384 43.8095 21.1685C43.1897 20.5929 42.8798 19.8846 42.8798 19.0435C42.8798 18.0916 43.2589 17.3058 44.0171 16.686C44.7807 16.0607 45.7713 15.748 46.9887 15.748C47.8188 15.748 48.5576 15.9085 49.205 16.2295C49.858 16.5505 50.3616 16.9932 50.7158 17.5576C51.0755 18.1221 51.2553 18.7391 51.2553 19.4087H49.6533C49.6533 18.6782 49.4209 18.1055 48.956 17.6904C48.4912 17.2699 47.8354 17.0596 46.9887 17.0596C46.2029 17.0596 45.5887 17.2339 45.146 17.5825C44.7088 17.9256 44.4902 18.4043 44.4902 19.0186C44.4902 19.5111 44.6977 19.9289 45.1128 20.272C45.5333 20.6095 46.2444 20.9194 47.2461 21.2017C48.2532 21.4839 49.039 21.7965 49.6035 22.1396C50.1735 22.4772 50.594 22.8729 50.8652 23.3267C51.1419 23.7804 51.2802 24.3145 51.2802 24.9287C51.2802 25.9082 50.8984 26.694 50.1347 27.2861C49.3711 27.8727 48.3501 28.166 47.0717 28.166C46.2417 28.166 45.4669 28.0083 44.7475 27.6929C44.0281 27.3719 43.472 26.9347 43.0791 26.3813C42.6917 25.828 42.498 25.1999 42.498 24.4971H44.1001C44.1001 25.2275 44.3685 25.8058 44.9052 26.2319C45.4476 26.6525 46.1697 26.8628 47.0717 26.8628C47.9129 26.8628 48.5576 26.6912 49.0058 26.3481C49.4541 26.005 49.6782 25.5374 49.6782 24.9453C49.6782 24.3532 49.4707 23.8966 49.0556 23.5757C48.6406 23.2492 47.888 22.9282 46.7978 22.6128ZM58.2267 27.1118C57.6291 27.8146 56.752 28.166 55.5954 28.166C54.638 28.166 53.9076 27.8893 53.404 27.3359C52.9059 26.777 52.6541 25.9525 52.6486 24.8623V19.0186H54.1842V24.8208C54.1842 26.1821 54.7376 26.8628 55.8444 26.8628C57.0176 26.8628 57.7979 26.4256 58.1852 25.5513V19.0186H59.7209V28H58.2599L58.2267 27.1118ZM69.2572 23.6089C69.2572 24.9813 68.9418 26.0853 68.3109 26.9209C67.6801 27.751 66.8334 28.166 65.7709 28.166C64.6364 28.166 63.7593 27.7648 63.1395 26.9624L63.0648 28H61.6537V15.25H63.1893V20.0063C63.8091 19.2371 64.6641 18.8525 65.7543 18.8525C66.8444 18.8525 67.6994 19.2648 68.3192 20.0894C68.9445 20.9139 69.2572 22.0428 69.2572 23.4761V23.6089ZM67.7216 23.4346C67.7216 22.3887 67.5196 21.5807 67.1156 21.0107C66.7116 20.4408 66.1306 20.1558 65.3724 20.1558C64.3597 20.1558 63.632 20.6261 63.1893 21.5669V25.4517C63.6597 26.3924 64.3929 26.8628 65.389 26.8628C66.125 26.8628 66.6978 26.5778 67.1073 26.0078C67.5168 25.4378 67.7216 24.5801 67.7216 23.4346ZM72.2359 19.0186L72.2774 20.0146C72.936 19.2399 73.8241 18.8525 74.942 18.8525C76.1982 18.8525 77.0531 19.334 77.5069 20.2969C77.8057 19.8652 78.1931 19.5166 78.669 19.251C79.1505 18.9854 79.7177 18.8525 80.3707 18.8525C82.3407 18.8525 83.3424 19.8957 83.3756 21.9819V28H81.8399V22.0732C81.8399 21.4313 81.6933 20.9526 81.4 20.6372C81.1067 20.3162 80.6142 20.1558 79.9224 20.1558C79.3525 20.1558 78.8793 20.3273 78.503 20.6704C78.1267 21.008 77.9081 21.4645 77.8473 22.04V28H76.3033V22.1147C76.3033 20.8088 75.6641 20.1558 74.3858 20.1558C73.3787 20.1558 72.6897 20.5846 72.3189 21.4424V28H70.7833V19.0186H72.2359ZM86.9603 28H85.4246V19.0186H86.9603V28ZM85.3001 16.6362C85.3001 16.3872 85.3748 16.1769 85.5242 16.0054C85.6792 15.8338 85.9061 15.748 86.2049 15.748C86.5037 15.748 86.7306 15.8338 86.8855 16.0054C87.0405 16.1769 87.118 16.3872 87.118 16.6362C87.118 16.8853 87.0405 17.0928 86.8855 17.2588C86.7306 17.4248 86.5037 17.5078 86.2049 17.5078C85.9061 17.5078 85.6792 17.4248 85.5242 17.2588C85.3748 17.0928 85.3001 16.8853 85.3001 16.6362ZM91.1011 16.8438V19.0186H92.7778V20.2056H91.1011V25.7754C91.1011 26.1351 91.1758 26.4062 91.3252 26.5889C91.4746 26.766 91.7292 26.8545 92.0889 26.8545C92.266 26.8545 92.5094 26.8213 92.8193 26.7549V28C92.4154 28.1107 92.0225 28.166 91.6406 28.166C90.9544 28.166 90.437 27.9585 90.0884 27.5435C89.7397 27.1284 89.5654 26.5391 89.5654 25.7754V20.2056H87.9302V19.0186H89.5654V16.8438H91.1011ZM104.886 22.6626H99.8144V28H98.2206V15.9141H105.708V17.2256H99.8144V21.3594H104.886V22.6626ZM108.637 28H107.101V19.0186H108.637V28ZM106.977 16.6362C106.977 16.3872 107.051 16.1769 107.201 16.0054C107.356 15.8338 107.583 15.748 107.881 15.748C108.18 15.748 108.407 15.8338 108.562 16.0054C108.717 16.1769 108.795 16.3872 108.795 16.6362C108.795 16.8853 108.717 17.0928 108.562 17.2588C108.407 17.4248 108.18 17.5078 107.881 17.5078C107.583 17.5078 107.356 17.4248 107.201 17.2588C107.051 17.0928 106.977 16.8853 106.977 16.6362ZM112.363 28H110.827V15.25H112.363V28ZM115.864 19.0186L115.906 20.0146C116.564 19.2399 117.453 18.8525 118.57 18.8525C119.827 18.8525 120.682 19.334 121.135 20.2969C121.434 19.8652 121.821 19.5166 122.297 19.251C122.779 18.9854 123.346 18.8525 123.999 18.8525C125.969 18.8525 126.971 19.8957 127.004 21.9819V28H125.468V22.0732C125.468 21.4313 125.322 20.9526 125.028 20.6372C124.735 20.3162 124.243 20.1558 123.551 20.1558C122.981 20.1558 122.508 20.3273 122.131 20.6704C121.755 21.008 121.536 21.4645 121.476 22.04V28H119.932V22.1147C119.932 20.8088 119.293 20.1558 118.014 20.1558C117.007 20.1558 116.318 20.5846 115.947 21.4424V28H114.412V19.0186H115.864Z" fill="#D3C095"/>
<defs>
<linearGradient id="paint0_linear" x1="84.5" y1="0" x2="84.5" y2="44" gradientUnits="userSpaceOnUse">
<stop stop-color="#D3C095"/>
<stop offset="1" stop-color="#A07923"/>
</linearGradient>
</defs>
</svg>
