<svg width="109" height="28" viewBox="0 0 109 28" fill="none" xmlns="http://www.w3.org/2000/svg">
<rect width="109" height="28" rx="10" fill="url(#paint0_linear)"/>
<path d="M20.8164 16.2388C20.9556 18.0625 22.501 19.249 24.7422 19.249C27.1592 19.249 28.69 18.0112 28.69 16.0703C28.69 14.5176 27.8111 13.668 25.6211 13.1187L24.5152 12.8257C23.0577 12.4521 22.479 11.9761 22.479 11.1484C22.479 10.0791 23.4092 9.37598 24.8155 9.37598C26.1338 9.37598 27.0274 10.0205 27.2105 11.1045H28.5362C28.4263 9.39795 26.9029 8.18213 24.8594 8.18213C22.6255 8.18213 21.1241 9.39795 21.1241 11.1924C21.1241 12.6938 21.9517 13.5581 23.8633 14.0415L25.2183 14.3931C26.6758 14.7593 27.335 15.3306 27.335 16.2314C27.335 17.2788 26.2876 18.0479 24.8667 18.0479C23.3653 18.0479 22.3106 17.3447 22.1495 16.2388H20.8164ZM36.8728 11.1045H35.6131V15.7773C35.6131 17.1616 34.8513 17.9893 33.4597 17.9893C32.2 17.9893 31.6726 17.3301 31.6726 15.9092V11.1045H30.4129V16.2168C30.4129 18.0845 31.3357 19.1392 33.1082 19.1392C34.3167 19.1392 35.159 18.6411 35.5545 17.7622H35.6717V19H36.8728V11.1045ZM42.9317 19.1392C44.9312 19.1392 46.2422 17.5205 46.2422 15.0522C46.2422 12.5693 44.9385 10.9653 42.9317 10.9653C41.8477 10.9653 40.8882 11.5 40.4561 12.3496H40.3389V7.96973H39.0791V19H40.2803V17.7402H40.3975C40.8955 18.6191 41.833 19.1392 42.9317 19.1392ZM42.6387 12.1006C44.0816 12.1006 44.9385 13.2065 44.9385 15.0522C44.9385 16.8979 44.0816 18.0039 42.6387 18.0039C41.2031 18.0039 40.3096 16.876 40.3096 15.0522C40.3096 13.2285 41.2031 12.1006 42.6387 12.1006ZM47.7966 13.2651C47.7966 14.4077 48.4705 15.0449 49.95 15.4038L51.3049 15.7334C52.1472 15.9385 52.5574 16.3047 52.5574 16.8467C52.5574 17.5718 51.7957 18.0771 50.7337 18.0771C49.7229 18.0771 49.093 17.6523 48.8806 16.9858H47.5842C47.7234 18.2969 48.9319 19.1392 50.6897 19.1392C52.4841 19.1392 53.8538 18.165 53.8538 16.7515C53.8538 15.6162 53.136 14.9717 51.6492 14.6128L50.4334 14.3198C49.5032 14.0928 49.0637 13.7559 49.0637 13.2139C49.0637 12.5107 49.7962 12.0347 50.7337 12.0347C51.6858 12.0347 52.301 12.4521 52.4695 13.082H53.7146C53.5462 11.7856 52.3962 10.9653 50.741 10.9653C49.0637 10.9653 47.7966 11.9541 47.7966 13.2651ZM62.1245 13.5215C61.9048 12.1152 60.7329 10.9653 58.814 10.9653C56.6021 10.9653 55.1958 12.562 55.1958 15.0229C55.1958 17.5352 56.6094 19.1392 58.8213 19.1392C60.7183 19.1392 61.8975 18.0698 62.1245 16.6196H60.8501C60.6157 17.5132 59.876 18.0039 58.814 18.0039C57.4077 18.0039 56.4995 16.8467 56.4995 15.0229C56.4995 13.2358 57.3931 12.1006 58.814 12.1006C59.9492 12.1006 60.645 12.7378 60.8501 13.5215H62.1245ZM63.7449 19H65.0046V14.1074C65.0046 12.9941 65.8762 12.1885 67.0774 12.1885C67.3264 12.1885 67.7805 12.2324 67.883 12.2617V11.002C67.7219 10.98 67.4582 10.9653 67.2532 10.9653C66.2058 10.9653 65.2976 11.5073 65.0632 12.2764H64.946V11.1045H63.7449V19ZM69.8769 9.58105C70.3603 9.58105 70.7558 9.18555 70.7558 8.70215C70.7558 8.21875 70.3603 7.82324 69.8769 7.82324C69.3935 7.82324 68.998 8.21875 68.998 8.70215C68.998 9.18555 69.3935 9.58105 69.8769 9.58105ZM69.2471 19H70.5068V11.1045H69.2471V19ZM76.5949 19.1392C78.5945 19.1392 79.9055 17.5205 79.9055 15.0522C79.9055 12.5693 78.6018 10.9653 76.5949 10.9653C75.511 10.9653 74.5515 11.5 74.1194 12.3496H74.0022V7.96973H72.7424V19H73.9436V17.7402H74.0608C74.5588 18.6191 75.4963 19.1392 76.5949 19.1392ZM76.302 12.1006C77.7448 12.1006 78.6018 13.2065 78.6018 15.0522C78.6018 16.8979 77.7448 18.0039 76.302 18.0039C74.8664 18.0039 73.9729 16.876 73.9729 15.0522C73.9729 13.2285 74.8664 12.1006 76.302 12.1006ZM86.8725 16.9565C86.5429 17.6523 85.8545 18.0259 84.8364 18.0259C83.4961 18.0259 82.6245 17.0371 82.5586 15.4771V15.4185H88.2348V14.9351C88.2348 12.4814 86.9384 10.9653 84.8071 10.9653C82.6391 10.9653 81.2475 12.5767 81.2475 15.0596C81.2475 17.5571 82.6171 19.1392 84.8071 19.1392C86.5356 19.1392 87.7661 18.3042 88.1323 16.9565H86.8725ZM84.7924 12.0786C86.0449 12.0786 86.8798 13.0015 86.9091 14.4004H82.5586C82.6538 13.0015 83.5327 12.0786 84.7924 12.0786Z" fill="white"/>
<defs>
<linearGradient id="paint0_linear" x1="52.8971" y1="-7" x2="61.5263" y2="33.5847" gradientUnits="userSpaceOnUse">
<stop stop-color="#CAAA65"/>
<stop offset="1" stop-color="#A07923"/>
</linearGradient>
</defs>
</svg>
