<svg width="76" height="49" viewBox="0 0 76 49" fill="none" xmlns="http://www.w3.org/2000/svg">
<path d="M30.8023 29H28V9H30.8023V29Z" fill="url(#paint0_linear)"/>
<path d="M38.9466 29H36.1443V9H38.9466V29Z" fill="url(#paint1_linear)"/>
<path d="M47.0909 29H44.2886V9H47.0909V29Z" fill="url(#paint2_linear)"/>
<path d="M28.2899 44V37.8965H30.5019V36.9541H24.9794V37.8965H27.1962V44H28.2899ZM30.8087 44H31.8585V40.8311C31.8585 40.084 32.4201 39.5713 33.216 39.5713C33.4015 39.5713 33.714 39.6055 33.8019 39.6299V38.6436C33.6896 38.6191 33.4894 38.6045 33.3331 38.6045C32.6398 38.6045 32.049 38.9805 31.8976 39.5029H31.8195V38.6973H30.8087V44ZM35.1146 37.75C35.4808 37.75 35.7787 37.4521 35.7787 37.0908C35.7787 36.7246 35.4808 36.4268 35.1146 36.4268C34.7484 36.4268 34.4506 36.7246 34.4506 37.0908C34.4506 37.4521 34.7484 37.75 35.1146 37.75ZM34.5922 44H35.6371V38.6973H34.5922V44ZM39.7574 44.0879C41.1002 44.0879 41.9547 43.0186 41.9547 41.3486C41.9547 39.6641 41.1051 38.6045 39.7574 38.6045C39.0299 38.6045 38.4049 38.9609 38.1217 39.5371H38.0387V36.6172H36.9889V44H37.9996V43.1602H38.0778C38.3951 43.7461 39.0153 44.0879 39.7574 44.0879ZM39.4547 39.5029C40.3434 39.5029 40.8756 40.2012 40.8756 41.3486C40.8756 42.4961 40.3434 43.1895 39.4547 43.1895C38.5709 43.1895 38.024 42.4863 38.0192 41.3486C38.024 40.2109 38.5758 39.5029 39.4547 39.5029ZM44.4491 44.0879C45.1473 44.0879 45.7284 43.7852 46.0458 43.248H46.1288V44H47.1395V40.3721C47.1395 39.2588 46.3876 38.5947 45.0546 38.5947C43.8485 38.5947 42.9891 39.1758 42.8817 40.0693H43.8973C44.0145 39.6836 44.4198 39.4639 45.0057 39.4639C45.7235 39.4639 46.0946 39.791 46.0946 40.3721V40.8359L44.6542 40.9238C43.3895 41.002 42.6766 41.5537 42.6766 42.5059C42.6766 43.4727 43.4237 44.0879 44.4491 44.0879ZM44.7176 43.2432C44.1463 43.2432 43.7313 42.9551 43.7313 42.4619C43.7313 41.9785 44.0633 41.7197 44.7958 41.6709L46.0946 41.583V42.042C46.0946 42.7256 45.5087 43.2432 44.7176 43.2432ZM48.4425 44H49.4923V36.6172H48.4425V44Z" fill="url(#paint3_linear)"/>
<defs>
<linearGradient id="paint0_linear" x1="37.5455" y1="9" x2="37.5455" y2="29" gradientUnits="userSpaceOnUse">
<stop stop-color="#D3C095"/>
<stop offset="1" stop-color="#A07923"/>
</linearGradient>
<linearGradient id="paint1_linear" x1="37.5455" y1="9" x2="37.5455" y2="29" gradientUnits="userSpaceOnUse">
<stop stop-color="#D3C095"/>
<stop offset="1" stop-color="#A07923"/>
</linearGradient>
<linearGradient id="paint2_linear" x1="37.5455" y1="9" x2="37.5455" y2="29" gradientUnits="userSpaceOnUse">
<stop stop-color="#D3C095"/>
<stop offset="1" stop-color="#A07923"/>
</linearGradient>
<linearGradient id="paint3_linear" x1="37.4165" y1="34" x2="37.4165" y2="46" gradientUnits="userSpaceOnUse">
<stop stop-color="#D3C095"/>
<stop offset="1" stop-color="#A07923"/>
</linearGradient>
</defs>
</svg>
