<svg width="11" height="20" viewBox="0 0 11 20" fill="none" xmlns="http://www.w3.org/2000/svg">
<path d="M0.368766 1.0214C0.48488 0.907068 0.622819 0.81636 0.774682 0.754469C0.926545 0.692578 1.08935 0.660721 1.25377 0.660721C1.41819 0.660721 1.58099 0.692578 1.73285 0.754469C1.88471 0.81636 2.02265 0.907068 2.13877 1.0214L10.4488 9.18301C10.5415 9.27387 10.615 9.38179 10.6652 9.50061C10.7154 9.61942 10.7412 9.74679 10.7412 9.87542C10.7412 10.004 10.7154 10.1314 10.6652 10.2502C10.615 10.369 10.5415 10.477 10.4488 10.5678L2.13877 18.7294C1.64877 19.2107 0.858766 19.2107 0.368766 18.7294C-0.121234 18.2482 -0.121234 17.4723 0.368766 16.991L7.60877 9.8705L0.358768 2.74997C-0.121232 2.27854 -0.121234 1.49283 0.368766 1.0214Z" fill="#3C3C43" fill-opacity="0.6"/>
</svg>
