<svg width="26" height="36" viewBox="0 0 26 36" fill="none" xmlns="http://www.w3.org/2000/svg">
<path d="M6.80234 20H4V0H6.80234V20Z" fill="url(#paint0_linear)"/>
<path d="M14.9466 20H12.1443V0H14.9466V20Z" fill="url(#paint1_linear)"/>
<path d="M23.0909 20H20.2886V0H23.0909V20Z" fill="url(#paint2_linear)"/>
<path d="M4.28994 35V28.8965H6.50186V27.9541H0.979395V28.8965H3.19619V35H4.28994ZM6.80873 35H7.85854V31.8311C7.85854 31.084 8.42006 30.5713 9.21596 30.5713C9.4015 30.5713 9.714 30.6055 9.8019 30.6299V29.6436C9.68959 29.6191 9.4894 29.6045 9.33315 29.6045C8.63979 29.6045 8.04897 29.9805 7.8976 30.5029H7.81947V29.6973H6.80873V35ZM11.1146 28.75C11.4808 28.75 11.7787 28.4521 11.7787 28.0908C11.7787 27.7246 11.4808 27.4268 11.1146 27.4268C10.7484 27.4268 10.4506 27.7246 10.4506 28.0908C10.4506 28.4521 10.7484 28.75 11.1146 28.75ZM10.5922 35H11.6371V29.6973H10.5922V35ZM15.7574 35.0879C17.1002 35.0879 17.9547 34.0186 17.9547 32.3486C17.9547 30.6641 17.1051 29.6045 15.7574 29.6045C15.0299 29.6045 14.4049 29.9609 14.1217 30.5371H14.0387V27.6172H12.9889V35H13.9996V34.1602H14.0778C14.3951 34.7461 15.0153 35.0879 15.7574 35.0879ZM15.4547 30.5029C16.3434 30.5029 16.8756 31.2012 16.8756 32.3486C16.8756 33.4961 16.3434 34.1895 15.4547 34.1895C14.5709 34.1895 14.024 33.4863 14.0192 32.3486C14.024 31.2109 14.5758 30.5029 15.4547 30.5029ZM20.4491 35.0879C21.1473 35.0879 21.7284 34.7852 22.0458 34.248H22.1288V35H23.1395V31.3721C23.1395 30.2588 22.3876 29.5947 21.0546 29.5947C19.8485 29.5947 18.9891 30.1758 18.8817 31.0693H19.8973C20.0145 30.6836 20.4198 30.4639 21.0057 30.4639C21.7235 30.4639 22.0946 30.791 22.0946 31.3721V31.8359L20.6542 31.9238C19.3895 32.002 18.6766 32.5537 18.6766 33.5059C18.6766 34.4727 19.4237 35.0879 20.4491 35.0879ZM20.7176 34.2432C20.1463 34.2432 19.7313 33.9551 19.7313 33.4619C19.7313 32.9785 20.0633 32.7197 20.7958 32.6709L22.0946 32.583V33.042C22.0946 33.7256 21.5087 34.2432 20.7176 34.2432ZM24.4425 35H25.4923V27.6172H24.4425V35Z" fill="url(#paint3_linear)"/>
<defs>
<linearGradient id="paint0_linear" x1="13.5455" y1="0" x2="13.5455" y2="20" gradientUnits="userSpaceOnUse">
<stop stop-color="#D3C095"/>
<stop offset="1" stop-color="#A07923"/>
</linearGradient>
<linearGradient id="paint1_linear" x1="13.5455" y1="0" x2="13.5455" y2="20" gradientUnits="userSpaceOnUse">
<stop stop-color="#D3C095"/>
<stop offset="1" stop-color="#A07923"/>
</linearGradient>
<linearGradient id="paint2_linear" x1="13.5455" y1="0" x2="13.5455" y2="20" gradientUnits="userSpaceOnUse">
<stop stop-color="#D3C095"/>
<stop offset="1" stop-color="#A07923"/>
</linearGradient>
<linearGradient id="paint3_linear" x1="13.4165" y1="25" x2="13.4165" y2="37" gradientUnits="userSpaceOnUse">
<stop stop-color="#D3C095"/>
<stop offset="1" stop-color="#A07923"/>
</linearGradient>
</defs>
</svg>
