<svg width="189" height="64" viewBox="0 0 189 64" fill="none" xmlns="http://www.w3.org/2000/svg">
<g filter="url(#filter0_d)">
<rect x="11" y="7" width="167" height="42" rx="21" fill="black" stroke="url(#paint0_linear)" stroke-width="2"/>
<path d="M44.3495 25.5454H44.4491L47.2049 35H48.6161L51.8783 23.022H50.3177L47.9354 32.7588H47.8358L45.1546 23.022H43.6439L40.9627 32.7588H40.8631L38.4808 23.022H36.9203L40.1825 35H41.5936L44.3495 25.5454ZM55.2222 35.1577C56.4175 35.1577 57.397 34.6348 57.9781 33.6802H58.1109V35H59.4722V28.874C59.4722 27.0146 58.252 25.894 56.0689 25.894C54.1597 25.894 52.7486 26.8403 52.5577 28.2764H54.002C54.2012 27.5708 54.9483 27.1641 56.0191 27.1641C57.3555 27.1641 58.0445 27.77 58.0445 28.874V29.6875L55.463 29.8452C53.3795 29.9697 52.2007 30.8911 52.2007 32.4932C52.2007 34.1284 53.4874 35.1577 55.2222 35.1577ZM55.4879 33.9043C54.4503 33.9043 53.6783 33.373 53.6783 32.46C53.6783 31.5635 54.2759 31.0903 55.6373 30.999L58.0445 30.8413V31.6631C58.0445 32.9414 56.9571 33.9043 55.4879 33.9043ZM62.3015 23.7358V26.0518H60.8572V27.2471H62.3015V32.6758C62.3015 34.3857 63.0403 35.0664 64.8831 35.0664C65.1653 35.0664 65.4392 35.0332 65.7215 34.9834V33.7798C65.4558 33.8047 65.3147 33.813 65.0574 33.813C64.1277 33.813 63.7293 33.3647 63.7293 32.3105V27.2471H65.7215V26.0518H63.7293V23.7358H62.3015ZM74.7431 28.791C74.4941 27.1973 73.166 25.894 70.9912 25.894C68.4844 25.894 66.8906 27.7036 66.8906 30.4927C66.8906 33.3398 68.4927 35.1577 70.9995 35.1577C73.1494 35.1577 74.4858 33.9458 74.7431 32.3022H73.2988C73.0332 33.3149 72.1948 33.8711 70.9912 33.8711C69.3974 33.8711 68.3681 32.5596 68.3681 30.4927C68.3681 28.4673 69.3808 27.1807 70.9912 27.1807C72.2778 27.1807 73.0664 27.9028 73.2988 28.791H74.7431ZM76.5266 35H77.9543V29.7041C77.9543 28.1934 78.8342 27.1807 80.4362 27.1807C81.7892 27.1807 82.5031 27.9692 82.5031 29.5547V35H83.9308V29.2061C83.9308 27.106 82.7355 25.894 80.843 25.894C79.4733 25.894 78.5353 26.4751 78.0871 27.4629H77.9543V22.499H76.5266V35ZM92.1959 30.2603H95.1427L97.7076 35H99.4591L96.6866 30.0278C98.1891 29.5547 99.0939 28.2598 99.0939 26.5913C99.0939 24.4331 97.5831 23.022 95.2755 23.022H90.7018V35H92.1959V30.2603ZM92.1959 24.3501H95.0763C96.6202 24.3501 97.5499 25.2051 97.5499 26.6411C97.5499 28.1104 96.6783 28.9321 95.1427 28.9321H92.1959V24.3501ZM103.708 35.1577C104.903 35.1577 105.883 34.6348 106.464 33.6802H106.596V35H107.958V28.874C107.958 27.0146 106.738 25.894 104.555 25.894C102.645 25.894 101.234 26.8403 101.043 28.2764H102.488C102.687 27.5708 103.434 27.1641 104.505 27.1641C105.841 27.1641 106.53 27.77 106.53 28.874V29.6875L103.949 29.8452C101.865 29.9697 100.686 30.8911 100.686 32.4932C100.686 34.1284 101.973 35.1577 103.708 35.1577ZM103.973 33.9043C102.936 33.9043 102.164 33.373 102.164 32.46C102.164 31.5635 102.762 31.0903 104.123 30.999L106.53 30.8413V31.6631C106.53 32.9414 105.443 33.9043 103.973 33.9043ZM110.189 35H111.617V29.7041C111.617 28.1353 112.539 27.1807 113.966 27.1807C115.394 27.1807 116.075 27.9443 116.075 29.5547V35H117.502V29.2061C117.502 27.0811 116.382 25.894 114.373 25.894C113.003 25.894 112.132 26.4751 111.684 27.4629H111.551V26.0518H110.189V35ZM123.021 35.1577C124.258 35.1577 125.321 34.5684 125.885 33.5723H126.018V35H127.379V22.499H125.951V27.4629H125.827C125.321 26.4834 124.266 25.894 123.021 25.894C120.747 25.894 119.261 27.7202 119.261 30.5259C119.261 33.3398 120.73 35.1577 123.021 35.1577ZM123.353 27.1807C124.972 27.1807 125.985 28.4756 125.985 30.5259C125.985 32.5928 124.98 33.8711 123.353 33.8711C121.718 33.8711 120.739 32.6177 120.739 30.5259C120.739 28.4424 121.726 27.1807 123.353 27.1807ZM133.421 35.1577C135.969 35.1577 137.546 33.3979 137.546 30.5259C137.546 27.6455 135.969 25.894 133.421 25.894C130.872 25.894 129.295 27.6455 129.295 30.5259C129.295 33.3979 130.872 35.1577 133.421 35.1577ZM133.421 33.8711C131.727 33.8711 130.773 32.6426 130.773 30.5259C130.773 28.4009 131.727 27.1807 133.421 27.1807C135.114 27.1807 136.069 28.4009 136.069 30.5259C136.069 32.6426 135.114 33.8711 133.421 33.8711ZM139.38 35H140.807V29.4551C140.807 28.1934 141.712 27.1807 142.882 27.1807C144.011 27.1807 144.75 27.8613 144.75 28.9238V35H146.178V29.2476C146.178 28.1104 147.008 27.1807 148.253 27.1807C149.515 27.1807 150.137 27.8281 150.137 29.1479V35H151.565V28.8159C151.565 26.9399 150.544 25.894 148.718 25.894C147.481 25.894 146.46 26.5166 145.979 27.4629H145.846C145.431 26.5332 144.584 25.894 143.372 25.894C142.177 25.894 141.28 26.4668 140.874 27.4629H140.741V26.0518H139.38V35Z" fill="url(#paint1_linear)"/>
</g>
<defs>
<filter id="filter0_d" x="0" y="0" width="189" height="64" filterUnits="userSpaceOnUse" color-interpolation-filters="sRGB">
<feFlood flood-opacity="0" result="BackgroundImageFix"/>
<feColorMatrix in="SourceAlpha" type="matrix" values="0 0 0 0 0 0 0 0 0 0 0 0 0 0 0 0 0 0 127 0"/>
<feOffset dy="4"/>
<feGaussianBlur stdDeviation="5"/>
<feColorMatrix type="matrix" values="0 0 0 0 0 0 0 0 0 0 0 0 0 0 0 0 0 0 0.25 0"/>
<feBlend mode="normal" in2="BackgroundImageFix" result="effect1_dropShadow"/>
<feBlend mode="normal" in="SourceGraphic" in2="effect1_dropShadow" result="shape"/>
</filter>
<linearGradient id="paint0_linear" x1="94.5" y1="6" x2="94.5" y2="50" gradientUnits="userSpaceOnUse">
<stop stop-color="#D3C095"/>
<stop offset="1" stop-color="#A07923"/>
</linearGradient>
<linearGradient id="paint1_linear" x1="94.5" y1="18" x2="94.5" y2="38" gradientUnits="userSpaceOnUse">
<stop stop-color="#D3C095"/>
<stop offset="1" stop-color="#A07923"/>
</linearGradient>
</defs>
</svg>