<?xml version="1.0" encoding="iso-8859-1"?>
<!-- Generator: Adobe Illustrator 19.0.0, SVG Export Plug-In . SVG Version: 6.00 Build 0)  -->
<svg version="1.1" id="Layer_1" xmlns="http://www.w3.org/2000/svg" xmlns:xlink="http://www.w3.org/1999/xlink" x="0px" y="0px"
	 viewBox="0 0 512 512" style="enable-background:new 0 0 512 512;" xml:space="preserve">
<ellipse cx="257.112" cy="437.44" rx="179.472" ry="58.64"/>
<path style="fill:#E04F5F;" d="M293.912,371.12v41.584c0,22.096-17.904,40-40,40s-40-17.904-40-40V371.12"/>
<path style="fill:#F2B851;" d="M456.104,424.928l0.24-0.144c-26.8-42.432-55.632-135.792-55.632-240.48
	c0-78.288-39.104-113.728-76.224-126.704C318.616,24.912,290.216,0,255.992,0c-34.208,0-62.624,24.896-68.496,57.568
	c-37.12,12.976-76.24,48.416-76.24,126.704c0,104.672-28.832,198.048-55.616,240.496l0.24,0.144
	c-2.672,4.96-4.224,10.224-4.224,15.904C51.64,489.744,157.576,512,255.992,512s204.352-22.272,204.352-71.168
	C460.344,435.168,458.776,429.888,456.104,424.928z M255.992,32c14.032,0,26.16,7.84,32.672,19.312h-37.088h-8.944h-19.328
	C229.832,39.84,241.96,32,255.992,32z M255.992,480C144.04,480,83.64,452.208,83.64,440.832c0-0.368,0.24-0.8,0.368-1.216
	c0.512-0.832,1.024-1.728,1.536-2.592c10.608-12.768,69.472-35.344,170.448-35.344c100.768,0,159.584,22.48,170.384,35.264
	c0.544,0.912,1.088,1.856,1.616,2.736c0.112,0.384,0.352,0.8,0.352,1.152C428.344,452.208,367.96,480,255.992,480z"/>
<g>
</g>
<g>
</g>
<g>
</g>
<g>
</g>
<g>
</g>
<g>
</g>
<g>
</g>
<g>
</g>
<g>
</g>
<g>
</g>
<g>
</g>
<g>
</g>
<g>
</g>
<g>
</g>
<g>
</g>
</svg>
