<svg width="76" height="32" viewBox="0 0 76 32" fill="none" xmlns="http://www.w3.org/2000/svg">
<path d="M31 26H44.9998C46.1028 26 46.9998 25.103 46.9998 24V15.0001C47 14.8688 46.9741 14.7387 46.9239 14.6174C46.8736 14.4961 46.7998 14.3859 46.7068 14.2931L38.7069 6.2932C38.6141 6.20025 38.5039 6.12652 38.3826 6.07621C38.2613 6.0259 38.1312 6 37.9999 6C37.8686 6 37.7385 6.0259 37.6172 6.07621C37.4959 6.12652 37.3857 6.20025 37.2929 6.2932L29.293 14.2931C29.2 14.3859 29.1262 14.4961 29.076 14.6174C29.0257 14.7387 28.9999 14.8688 29 15.0001V24C29 25.103 29.897 26 31 26ZM35.9999 24V19.0001H39.9999V24H35.9999ZM31 15.4141L37.9999 8.41418L44.9998 15.4141L45.0008 24H41.9999V19.0001C41.9999 17.8971 41.1029 17.0001 39.9999 17.0001H35.9999C34.8969 17.0001 34 17.8971 34 19.0001V24H31V15.4141Z" fill="url(#paint0_linear)"/>
<defs>
<linearGradient id="paint0_linear" x1="37.9999" y1="6" x2="37.9999" y2="26" gradientUnits="userSpaceOnUse">
<stop stop-color="#D3C095"/>
<stop offset="1" stop-color="#A07923"/>
</linearGradient>
</defs>
</svg>
