<svg width="76" height="32" viewBox="0 0 76 32" fill="none" xmlns="http://www.w3.org/2000/svg">
<path d="M48.0127 18.5422L46.5058 17.2921C46.5771 16.8679 46.6139 16.4349 46.6139 16.0018C46.6139 15.5687 46.5771 15.1357 46.5058 14.7115L48.0127 13.4615C48.1263 13.367 48.2077 13.2413 48.2459 13.1009C48.2841 12.9606 48.2774 12.8123 48.2266 12.6757L48.2059 12.6176C47.7911 11.4926 47.1699 10.4497 46.3724 9.53931L46.331 9.49243C46.2342 9.38205 46.1053 9.3027 45.9611 9.26484C45.817 9.22698 45.6644 9.2324 45.5235 9.28036L43.6531 9.9255C42.9629 9.37635 42.1922 8.94328 41.3594 8.63969L40.9982 6.74224C40.971 6.59947 40.8996 6.46812 40.7936 6.36565C40.6876 6.26317 40.5519 6.19443 40.4047 6.16854L40.3426 6.15738C39.1439 5.94754 37.8832 5.94754 36.6846 6.15738L36.6225 6.16854C36.4753 6.19443 36.3396 6.26317 36.2336 6.36565C36.1276 6.46812 36.0562 6.59947 36.029 6.74224L35.6655 8.64862C34.8393 8.95228 34.0699 9.38511 33.3879 9.92996L31.5037 9.28036C31.3629 9.23201 31.2102 9.22641 31.0659 9.26429C30.9217 9.30217 30.7927 9.38174 30.6962 9.49243L30.6548 9.53931C29.8582 10.4504 29.2371 11.4931 28.8213 12.6176L28.8006 12.6757C28.697 12.9547 28.7821 13.2672 29.0145 13.4615L30.5398 14.7249C30.4685 15.1446 30.434 15.5732 30.434 15.9996C30.434 16.4282 30.4685 16.8568 30.5398 17.2742L29.0145 18.5377C28.9008 18.6321 28.8195 18.7579 28.7813 18.8982C28.7431 19.0386 28.7498 19.1869 28.8006 19.3235L28.8213 19.3815C29.2377 20.5066 29.8542 21.5446 30.6548 22.4598L30.6962 22.5067C30.793 22.6171 30.9219 22.6965 31.0661 22.7343C31.2102 22.7722 31.3628 22.7668 31.5037 22.7188L33.3879 22.0692C34.0735 22.6161 34.8396 23.0492 35.6655 23.3505L36.029 25.2569C36.0562 25.3997 36.1276 25.531 36.2336 25.6335C36.3396 25.736 36.4753 25.8047 36.6225 25.8306L36.6846 25.8418C37.8942 26.0527 39.1329 26.0527 40.3426 25.8418L40.4047 25.8306C40.5519 25.8047 40.6876 25.736 40.7936 25.6335C40.8996 25.531 40.971 25.3997 40.9982 25.2569L41.3594 23.3595C42.1919 23.0567 42.9669 22.6222 43.6531 22.0737L45.5235 22.7188C45.6643 22.7671 45.817 22.7727 45.9613 22.7349C46.1055 22.697 46.2344 22.6174 46.331 22.5067L46.3724 22.4598C47.173 21.5424 47.7895 20.5066 48.2059 19.3815L48.2266 19.3235C48.3302 19.0489 48.245 18.7364 48.0127 18.5422ZM44.8724 14.975C44.9299 15.312 44.9598 15.658 44.9598 16.004C44.9598 16.35 44.9299 16.6961 44.8724 17.0331L44.7205 17.9283L46.4391 19.3547C46.1786 19.9371 45.8497 20.4884 45.459 20.9977L43.3241 20.2633L42.6017 20.8392C42.0519 21.2767 41.4399 21.6205 40.7774 21.8616L39.9008 22.1808L39.489 24.3461C38.8393 24.4176 38.1833 24.4176 37.5335 24.3461L37.1217 22.1763L36.2521 21.8527C35.5965 21.6116 34.9868 21.2678 34.4416 20.8325L33.7192 20.2543L31.5704 20.9955C31.1793 20.4843 30.8527 19.9329 30.5904 19.3525L32.3273 17.9127L32.1778 17.0197C32.1226 16.6871 32.0927 16.3434 32.0927 16.004C32.0927 15.6625 32.1203 15.321 32.1778 14.9883L32.3273 14.0954L30.5904 12.6556C30.8504 12.073 31.1793 11.5238 31.5704 11.0126L33.7192 11.7537L34.4416 11.1756C34.9868 10.7403 35.5965 10.3965 36.2521 10.1554L37.124 9.8362L37.5358 7.66641C38.1823 7.59498 38.8426 7.59498 39.4913 7.66641L39.9031 9.83174L40.7797 10.151C41.4399 10.392 42.0542 10.7358 42.604 11.1734L43.3264 11.7493L45.4613 11.0149C45.8524 11.5261 46.1791 12.0774 46.4414 12.6578L44.7228 14.0843L44.8724 14.975ZM38.5159 11.852C36.2797 11.852 34.4669 13.611 34.4669 15.7808C34.4669 17.9506 36.2797 19.7097 38.5159 19.7097C40.7521 19.7097 42.5649 17.9506 42.5649 15.7808C42.5649 13.611 40.7521 11.852 38.5159 11.852ZM40.3379 17.5488C40.099 17.7813 39.815 17.9658 39.5023 18.0914C39.1896 18.2171 38.8543 18.2815 38.5159 18.281C37.828 18.281 37.1816 18.0198 36.6938 17.5488C36.4542 17.3169 36.2641 17.0413 36.1346 16.7379C36.0051 16.4345 35.9387 16.1092 35.9392 15.7808C35.9392 15.1134 36.2084 14.4861 36.6938 14.0128C37.1816 13.5396 37.828 13.2806 38.5159 13.2806C39.2038 13.2806 39.8502 13.5396 40.3379 14.0128C40.5776 14.2447 40.7677 14.5203 40.8972 14.8237C41.0267 15.1271 41.0931 15.4524 41.0925 15.7808C41.0925 16.4483 40.8234 17.0755 40.3379 17.5488Z" fill="url(#paint0_linear)"/>
<defs>
<linearGradient id="paint0_linear" x1="38.5136" y1="6" x2="38.5136" y2="26" gradientUnits="userSpaceOnUse">
<stop stop-color="#D3C095"/>
<stop offset="1" stop-color="#A07923"/>
</linearGradient>
</defs>
</svg>
