<svg width="76" height="32" viewBox="0 0 76 32" fill="none" xmlns="http://www.w3.org/2000/svg">
<path d="M44.4318 17.8571C42.85 17.8571 40.385 18.3186 38.5 19.2143C36.615 18.305 34.15 17.8571 32.5682 17.8571C29.7077 17.8571 24 19.3229 24 22.2679V26H53V22.2679C53 19.3229 47.2923 17.8571 44.4318 17.8571ZM39.1591 23.9643H25.9773V22.2679C25.9773 21.535 29.3518 19.8929 32.5682 19.8929C35.7845 19.8929 39.1591 21.535 39.1591 22.2679V23.9643ZM51.0227 23.9643H41.1364V22.2679C41.1364 21.6436 40.8727 21.1007 40.4509 20.6121C41.6109 20.205 43.0345 19.8929 44.4318 19.8929C47.6482 19.8929 51.0227 21.535 51.0227 22.2679V23.9643ZM32.5682 16.5C35.1123 16.5 37.1818 14.3693 37.1818 11.75C37.1818 9.13071 35.1123 7 32.5682 7C30.0241 7 27.9545 9.13071 27.9545 11.75C27.9545 14.3693 30.0241 16.5 32.5682 16.5ZM32.5682 9.03571C34.0182 9.03571 35.2045 10.2571 35.2045 11.75C35.2045 13.2429 34.0182 14.4643 32.5682 14.4643C31.1182 14.4643 29.9318 13.2429 29.9318 11.75C29.9318 10.2571 31.1182 9.03571 32.5682 9.03571ZM44.4318 16.5C46.9759 16.5 49.0455 14.3693 49.0455 11.75C49.0455 9.13071 46.9759 7 44.4318 7C41.8877 7 39.8182 9.13071 39.8182 11.75C39.8182 14.3693 41.8877 16.5 44.4318 16.5ZM44.4318 9.03571C45.8818 9.03571 47.0682 10.2571 47.0682 11.75C47.0682 13.2429 45.8818 14.4643 44.4318 14.4643C42.9818 14.4643 41.7955 13.2429 41.7955 11.75C41.7955 10.2571 42.9818 9.03571 44.4318 9.03571Z" fill="url(#paint0_linear)"/>
<defs>
<linearGradient id="paint0_linear" x1="38.5" y1="7" x2="38.5" y2="26" gradientUnits="userSpaceOnUse">
<stop stop-color="#D3C095"/>
<stop offset="1" stop-color="#A07923"/>
</linearGradient>
</defs>
</svg>
