<svg width="83" height="24" viewBox="0 0 83 24" fill="none" xmlns="http://www.w3.org/2000/svg">
<rect x="1" y="1" width="81" height="22" rx="9" stroke="url(#paint0_linear)" stroke-width="2"/>
<path d="M21.2383 17V7.04688H24.0479C24.9137 7.04688 25.6794 7.23828 26.3447 7.62109C27.0101 8.00391 27.5228 8.5485 27.8828 9.25488C28.2474 9.96126 28.432 10.7725 28.4365 11.6885V12.3242C28.4365 13.263 28.2542 14.0856 27.8896 14.792C27.5296 15.4984 27.0124 16.0407 26.3379 16.4189C25.668 16.7972 24.8864 16.9909 23.9932 17H21.2383ZM22.5508 8.12695V15.9268H23.9316C24.9434 15.9268 25.7295 15.6123 26.29 14.9834C26.8551 14.3545 27.1377 13.459 27.1377 12.2969V11.7158C27.1377 10.5856 26.8711 9.70833 26.3379 9.08398C25.8092 8.45508 25.0573 8.13607 24.082 8.12695H22.5508ZM33.2969 17.1367C32.2943 17.1367 31.4785 16.8086 30.8496 16.1523C30.2207 15.4915 29.9062 14.6097 29.9062 13.5068V13.2744C29.9062 12.5407 30.0452 11.8867 30.3232 11.3125C30.6058 10.7337 30.9977 10.2826 31.499 9.95898C32.0049 9.63086 32.5518 9.4668 33.1396 9.4668C34.1012 9.4668 34.8486 9.78353 35.3818 10.417C35.915 11.0505 36.1816 11.9574 36.1816 13.1377V13.6641H31.1709C31.1891 14.3932 31.401 14.9834 31.8066 15.4346C32.2168 15.8812 32.7363 16.1045 33.3652 16.1045C33.8118 16.1045 34.1901 16.0133 34.5 15.8311C34.8099 15.6488 35.0811 15.4072 35.3135 15.1064L36.0859 15.708C35.4661 16.6605 34.5365 17.1367 33.2969 17.1367ZM33.1396 10.5059C32.6292 10.5059 32.2008 10.6927 31.8545 11.0664C31.5081 11.4355 31.2939 11.9551 31.2119 12.625H34.917V12.5293C34.8805 11.8867 34.7074 11.39 34.3975 11.0391C34.0876 10.6836 33.6683 10.5059 33.1396 10.5059ZM39.3672 7.8125V9.60352H40.748V10.5811H39.3672V15.168C39.3672 15.4642 39.4287 15.6875 39.5518 15.8379C39.6748 15.9837 39.8844 16.0566 40.1807 16.0566C40.3265 16.0566 40.527 16.0293 40.7822 15.9746V17C40.4495 17.0911 40.126 17.1367 39.8115 17.1367C39.2464 17.1367 38.8203 16.9658 38.5332 16.624C38.2461 16.2822 38.1025 15.7969 38.1025 15.168V10.5811H36.7559V9.60352H38.1025V7.8125H39.3672ZM46.7979 17C46.7249 16.8542 46.6657 16.5944 46.6201 16.2207C46.0322 16.8314 45.3304 17.1367 44.5146 17.1367C43.7855 17.1367 43.1862 16.9316 42.7168 16.5215C42.252 16.1068 42.0195 15.5827 42.0195 14.9492C42.0195 14.179 42.3112 13.582 42.8945 13.1582C43.4824 12.7298 44.3073 12.5156 45.3691 12.5156H46.5996V11.9346C46.5996 11.4925 46.4674 11.1416 46.2031 10.8818C45.9388 10.6175 45.5492 10.4854 45.0342 10.4854C44.583 10.4854 44.2048 10.5993 43.8994 10.8271C43.5941 11.055 43.4414 11.3307 43.4414 11.6543H42.1699C42.1699 11.2852 42.2998 10.9297 42.5596 10.5879C42.8239 10.2415 43.1794 9.9681 43.626 9.76758C44.0771 9.56706 44.5716 9.4668 45.1094 9.4668C45.9616 9.4668 46.6292 9.68099 47.1123 10.1094C47.5954 10.5332 47.846 11.1188 47.8643 11.8662V15.2705C47.8643 15.9495 47.9508 16.4896 48.124 16.8906V17H46.7979ZM44.6992 16.0361C45.0957 16.0361 45.4717 15.9336 45.8271 15.7285C46.1826 15.5234 46.4401 15.2568 46.5996 14.9287V13.4111H45.6084C44.0589 13.4111 43.2842 13.8646 43.2842 14.7715C43.2842 15.168 43.4163 15.4779 43.6807 15.7012C43.945 15.9245 44.2845 16.0361 44.6992 16.0361ZM51.2207 17H49.9561V9.60352H51.2207V17ZM49.8535 7.6416C49.8535 7.43652 49.915 7.26335 50.0381 7.12207C50.1657 6.98079 50.3525 6.91016 50.5986 6.91016C50.8447 6.91016 51.0316 6.98079 51.1592 7.12207C51.2868 7.26335 51.3506 7.43652 51.3506 7.6416C51.3506 7.84668 51.2868 8.01758 51.1592 8.1543C51.0316 8.29102 50.8447 8.35938 50.5986 8.35938C50.3525 8.35938 50.1657 8.29102 50.0381 8.1543C49.915 8.01758 49.8535 7.84668 49.8535 7.6416ZM54.625 17H53.3604V6.5H54.625V17ZM60.9619 15.0381C60.9619 14.6963 60.832 14.432 60.5723 14.2451C60.3171 14.0537 59.8682 13.8896 59.2256 13.7529C58.5876 13.6162 58.0794 13.4521 57.7012 13.2607C57.3275 13.0693 57.0495 12.8415 56.8672 12.5771C56.6895 12.3128 56.6006 11.9984 56.6006 11.6338C56.6006 11.0277 56.8558 10.515 57.3662 10.0957C57.8812 9.67643 58.5374 9.4668 59.335 9.4668C60.1735 9.4668 60.8525 9.68327 61.3721 10.1162C61.8962 10.5492 62.1582 11.1029 62.1582 11.7773H60.8867C60.8867 11.431 60.7386 11.1325 60.4424 10.8818C60.1507 10.6312 59.7816 10.5059 59.335 10.5059C58.8747 10.5059 58.5146 10.6061 58.2549 10.8066C57.9951 11.0072 57.8652 11.2692 57.8652 11.5928C57.8652 11.8981 57.986 12.1283 58.2275 12.2832C58.4691 12.4382 58.9043 12.5863 59.5332 12.7275C60.1667 12.8688 60.6794 13.0374 61.0713 13.2334C61.4632 13.4294 61.7526 13.6663 61.9395 13.9443C62.1309 14.2178 62.2266 14.5527 62.2266 14.9492C62.2266 15.61 61.9622 16.141 61.4336 16.542C60.9049 16.9385 60.2191 17.1367 59.376 17.1367C58.7835 17.1367 58.2594 17.0319 57.8037 16.8223C57.348 16.6126 56.9902 16.321 56.7305 15.9473C56.4753 15.569 56.3477 15.1611 56.3477 14.7236H57.6123C57.6351 15.1475 57.8037 15.4847 58.1182 15.7354C58.4372 15.9814 58.8564 16.1045 59.376 16.1045C59.8545 16.1045 60.2373 16.0088 60.5244 15.8174C60.8161 15.6214 60.9619 15.3617 60.9619 15.0381Z" fill="white"/>
<defs>
<linearGradient id="paint0_linear" x1="40.2794" y1="-6" x2="48.5102" y2="28.3896" gradientUnits="userSpaceOnUse">
<stop stop-color="#CAAA65"/>
<stop offset="1" stop-color="#A07923"/>
</linearGradient>
</defs>
</svg>
