<svg width="50" height="49" viewBox="0 0 50 49" fill="none" xmlns="http://www.w3.org/2000/svg">
<path d="M25 25.25C29.4883 25.25 33.125 21.6133 33.125 17.125C33.125 12.6367 29.4883 9 25 9C20.5117 9 16.875 12.6367 16.875 17.125C16.875 21.6133 20.5117 25.25 25 25.25ZM24.1328 12.8047V12.1484C24.1328 11.7891 24.4219 11.5 24.7812 11.5H25.2148C25.5742 11.5 25.8633 11.7891 25.8633 12.1484V12.8125C26.4688 12.8438 27.0547 13.0508 27.543 13.4141C27.7617 13.5742 27.7852 13.8945 27.5898 14.082L26.9531 14.6875C26.8047 14.832 26.582 14.8359 26.4062 14.7266C26.1953 14.5938 25.9609 14.5273 25.7109 14.5273H24.1914C23.8398 14.5273 23.5547 14.8477 23.5547 15.2422C23.5547 15.5625 23.75 15.8477 24.0273 15.9297L26.4609 16.6602C27.4648 16.9609 28.168 17.9258 28.168 19.0078C28.168 20.3359 27.1367 21.4102 25.8594 21.4453V22.1016C25.8594 22.4609 25.5703 22.75 25.2109 22.75H24.7773C24.418 22.75 24.1289 22.4609 24.1289 22.1016V21.4375C23.5234 21.4062 22.9375 21.1992 22.4492 20.8359C22.2305 20.6758 22.207 20.3555 22.4023 20.168L23.0391 19.5625C23.1875 19.418 23.4102 19.4141 23.5859 19.5234C23.7969 19.6562 24.0312 19.7227 24.2812 19.7227H25.8008C26.1523 19.7227 26.4375 19.4023 26.4375 19.0078C26.4375 18.6875 26.2422 18.4023 25.9648 18.3203L23.5312 17.5898C22.5273 17.2891 21.8242 16.3242 21.8242 15.2422C21.8281 13.9141 22.8555 12.8398 24.1328 12.8047ZM33.75 22.75H32.4805C31.7148 23.7656 30.7383 24.6133 29.6289 25.25H32.1211C32.3281 25.25 32.4961 25.3906 32.4961 25.5625V26.1875C32.4961 26.3594 32.3281 26.5 32.1211 26.5H17.875C17.668 26.5 17.5 26.3594 17.5 26.1875V25.5625C17.5 25.3906 17.668 25.25 17.875 25.25H20.3672C19.2578 24.6133 18.2852 23.7656 17.5156 22.75H16.25C15.5586 22.75 15 23.3086 15 24V27.75C15 28.4414 15.5586 29 16.25 29H33.75C34.4414 29 35 28.4414 35 27.75V24C35 23.3086 34.4414 22.75 33.75 22.75Z" fill="url(#paint0_linear)"/>
<path d="M8.61025 36.9541V44H11.1542C13.2538 44 14.4696 42.7012 14.4696 40.46C14.4696 38.2432 13.244 36.9541 11.1542 36.9541H8.61025ZM9.704 37.8965H11.0321C12.4921 37.8965 13.3563 38.8486 13.3563 40.4746C13.3563 42.1152 12.5067 43.0576 11.0321 43.0576H9.704V37.8965ZM17.838 44.1025C19.3908 44.1025 20.3429 43.0625 20.3429 41.3486C20.3429 39.6348 19.3859 38.5947 17.838 38.5947C16.2853 38.5947 15.3283 39.6396 15.3283 41.3486C15.3283 43.0625 16.2804 44.1025 17.838 44.1025ZM17.838 43.209C16.9249 43.209 16.4122 42.5303 16.4122 41.3486C16.4122 40.167 16.9249 39.4834 17.838 39.4834C18.7462 39.4834 19.2638 40.167 19.2638 41.3486C19.2638 42.5254 18.7462 43.209 17.838 43.209ZM21.3676 44H22.4174V40.8896C22.4174 40.0352 22.9105 39.5078 23.6869 39.5078C24.4633 39.5078 24.8344 39.9375 24.8344 40.8164V44H25.8842V40.5674C25.8842 39.3027 25.2299 38.5947 24.0433 38.5947C23.2426 38.5947 22.7152 38.9512 22.4564 39.5371H22.3783V38.6973H21.3676V44ZM28.5934 44.0879C29.2916 44.0879 29.8727 43.7852 30.1901 43.248H30.2731V44H31.2838V40.3721C31.2838 39.2588 30.5319 38.5947 29.1988 38.5947C27.9928 38.5947 27.1334 39.1758 27.026 40.0693H28.0416C28.1588 39.6836 28.5641 39.4639 29.15 39.4639C29.8678 39.4639 30.2389 39.791 30.2389 40.3721V40.8359L28.7985 40.9238C27.5338 41.002 26.8209 41.5537 26.8209 42.5059C26.8209 43.4727 27.568 44.0879 28.5934 44.0879ZM28.8619 43.2432C28.2906 43.2432 27.8756 42.9551 27.8756 42.4619C27.8756 41.9785 28.2076 41.7197 28.9401 41.6709L30.2389 41.583V42.042C30.2389 42.7256 29.653 43.2432 28.8619 43.2432ZM32.909 37.3594V38.7119H32.0643V39.5518H32.909V42.6035C32.909 43.624 33.3729 44.0342 34.5399 44.0342C34.745 44.0342 34.9403 44.0098 35.1112 43.9805V43.1455C34.9647 43.1602 34.8719 43.1699 34.7108 43.1699C34.1883 43.1699 33.9588 42.9209 33.9588 42.3496V39.5518H35.1112V38.7119H33.9588V37.3594H32.909ZM39.5343 42.5791C39.339 43.0088 38.9044 43.2432 38.2696 43.2432C37.4298 43.2432 36.8878 42.6377 36.8536 41.6758V41.627H40.6085V41.2656C40.6085 39.6055 39.7149 38.5947 38.2354 38.5947C36.7364 38.5947 35.7843 39.6738 35.7843 41.3584C35.7843 43.0527 36.7169 44.1025 38.2403 44.1025C39.4562 44.1025 40.3155 43.5166 40.545 42.5791H39.5343ZM38.2306 39.4492C39.0069 39.4492 39.5147 40.0107 39.5392 40.8701H36.8536C36.9122 40.0156 37.4542 39.4492 38.2306 39.4492Z" fill="url(#paint1_linear)"/>
<defs>
<linearGradient id="paint0_linear" x1="25" y1="9" x2="25" y2="29" gradientUnits="userSpaceOnUse">
<stop stop-color="#D3C095"/>
<stop offset="1" stop-color="#A07923"/>
</linearGradient>
<linearGradient id="paint1_linear" x1="24.4165" y1="34" x2="24.4165" y2="46" gradientUnits="userSpaceOnUse">
<stop stop-color="#D3C095"/>
<stop offset="1" stop-color="#A07923"/>
</linearGradient>
</defs>
</svg>
