<svg width="27" height="36" viewBox="0 0 27 36" fill="none" xmlns="http://www.w3.org/2000/svg">
<path d="M6.99998 20H20.9998C22.1028 20 22.9998 19.103 22.9998 18V9.00011C23 8.86878 22.9741 8.73871 22.9239 8.61738C22.8736 8.49605 22.7998 8.38586 22.7068 8.29312L14.7069 0.293198C14.6141 0.200253 14.5039 0.126516 14.3826 0.076206C14.2613 0.0258958 14.1312 0 13.9999 0C13.8686 0 13.7385 0.0258958 13.6172 0.076206C13.4959 0.126516 13.3857 0.200253 13.2929 0.293198L5.293 8.29312C5.2 8.38586 5.12624 8.49605 5.07596 8.61738C5.02568 8.73871 4.99986 8.86878 5 9.00011V18C5 19.103 5.89699 20 6.99998 20ZM11.9999 18V13.0001H15.9999V18H11.9999ZM6.99998 9.41411L13.9999 2.41418L20.9998 9.41411L21.0008 18H17.9999V13.0001C17.9999 11.8971 17.1029 11.0001 15.9999 11.0001H11.9999C10.8969 11.0001 9.99995 11.8971 9.99995 13.0001V18H6.99998V9.41411Z" fill="url(#paint0_linear)"/>
<path d="M6.3058 35V27.9541H5.21693V30.9326H1.59877V27.9541H0.505019V35H1.59877V31.8799H5.21693V35H6.3058ZM9.9574 35.1025C11.5101 35.1025 12.4623 34.0625 12.4623 32.3486C12.4623 30.6348 11.5053 29.5947 9.9574 29.5947C8.40467 29.5947 7.44764 30.6396 7.44764 32.3486C7.44764 34.0625 8.39979 35.1025 9.9574 35.1025ZM9.9574 34.209C9.04432 34.209 8.53162 33.5303 8.53162 32.3486C8.53162 31.167 9.04432 30.4834 9.9574 30.4834C10.8656 30.4834 11.3832 31.167 11.3832 32.3486C11.3832 33.5254 10.8656 34.209 9.9574 34.209ZM13.4869 35H14.5367V31.7432C14.5367 31.0498 15.0201 30.5078 15.6598 30.5078C16.2848 30.5078 16.6852 30.8838 16.6852 31.4893V35H17.7154V31.6455C17.7154 31.0059 18.1598 30.5078 18.8385 30.5078C19.527 30.5078 19.8688 30.8643 19.8688 31.5967V35H20.9186V31.3428C20.9186 30.2393 20.2936 29.5947 19.2194 29.5947C18.4821 29.5947 17.8717 29.9707 17.6031 30.542H17.5201C17.2858 29.9707 16.7828 29.5947 16.0553 29.5947C15.3473 29.5947 14.8102 29.9463 14.5758 30.542H14.4977V29.6973H13.4869V35ZM25.6395 33.5791C25.4442 34.0088 25.0096 34.2432 24.3749 34.2432C23.535 34.2432 22.993 33.6377 22.9588 32.6758V32.627H26.7137V32.2656C26.7137 30.6055 25.8202 29.5947 24.3407 29.5947C22.8417 29.5947 21.8895 30.6738 21.8895 32.3584C21.8895 34.0527 22.8221 35.1025 24.3456 35.1025C25.5614 35.1025 26.4208 34.5166 26.6503 33.5791H25.6395ZM24.3358 30.4492C25.1122 30.4492 25.62 31.0107 25.6444 31.8701H22.9588C23.0174 31.0156 23.5594 30.4492 24.3358 30.4492Z" fill="url(#paint1_linear)"/>
<defs>
<linearGradient id="paint0_linear" x1="13.9999" y1="0" x2="13.9999" y2="20" gradientUnits="userSpaceOnUse">
<stop stop-color="#D3C095"/>
<stop offset="1" stop-color="#A07923"/>
</linearGradient>
<linearGradient id="paint1_linear" x1="13.4165" y1="25" x2="13.4165" y2="37" gradientUnits="userSpaceOnUse">
<stop stop-color="#D3C095"/>
<stop offset="1" stop-color="#A07923"/>
</linearGradient>
</defs>
</svg>
