<svg width="50" height="49" viewBox="0 0 50 49" fill="none" xmlns="http://www.w3.org/2000/svg">
<path d="M35.6666 18.1862C35.9143 18.0016 36.0981 17.7441 36.1922 17.4498C36.2862 17.1555 36.2858 16.8391 36.191 16.5451C36.0961 16.251 35.9116 15.994 35.6634 15.8101C35.4151 15.6262 35.1155 15.5246 34.8066 15.5195L28.8066 15.2929C28.7771 15.2908 28.7488 15.2803 28.7251 15.2626C28.7015 15.2448 28.6834 15.2206 28.6732 15.1929L26.5999 9.59286C26.4957 9.30795 26.3065 9.06194 26.0579 8.88813C25.8093 8.71431 25.5132 8.62109 25.2099 8.62109C24.9065 8.62109 24.6105 8.71431 24.3619 8.88813C24.1133 9.06194 23.9241 9.30795 23.8199 9.59286L21.7532 15.2129C21.743 15.2406 21.725 15.2648 21.7013 15.2826C21.6777 15.3003 21.6494 15.3108 21.6199 15.3129L15.6199 15.5395C15.311 15.5446 15.0114 15.6462 14.7631 15.8301C14.5148 16.014 14.3303 16.271 14.2355 16.5651C14.1407 16.8591 14.1402 17.1755 14.2343 17.4698C14.3283 17.7641 14.5121 18.0216 14.7599 18.2062L19.4666 21.9062C19.4901 21.9247 19.5077 21.9498 19.5172 21.9782C19.5267 22.0066 19.5276 22.0372 19.5199 22.0662L17.8999 27.8062C17.8159 28.0985 17.8241 28.4095 17.9232 28.6971C18.0223 28.9846 18.2076 29.2346 18.4538 29.413C18.7 29.5915 18.9953 29.6898 19.2993 29.6946C19.6034 29.6993 19.9016 29.6103 20.1532 29.4395L25.1266 26.1062C25.1511 26.0893 25.1801 26.0802 25.2099 26.0802C25.2397 26.0802 25.2687 26.0893 25.2932 26.1062L30.2666 29.4395C30.5148 29.6161 30.8119 29.7109 31.1166 29.7109C31.4212 29.7109 31.7183 29.6161 31.9666 29.4395C32.2129 29.2627 32.3983 29.014 32.4974 28.7274C32.5965 28.4409 32.6043 28.1307 32.5199 27.8395L30.8866 22.0795C30.8779 22.0506 30.8784 22.0197 30.8879 21.9911C30.8975 21.9625 30.9156 21.9375 30.9399 21.9195L35.6666 18.1862Z" fill="url(#paint0_linear)"/>
<path d="M15.8068 41.29H17.3497L18.7853 44H20.0499L18.4679 41.1191C19.3273 40.8311 19.8351 40.0596 19.8351 39.1074C19.8351 37.7939 18.922 36.9541 17.5011 36.9541H14.713V44H15.8068V41.29ZM15.8068 37.8721H17.3497C18.1945 37.8721 18.7121 38.3457 18.7121 39.1318C18.7121 39.9375 18.2238 40.3916 17.379 40.3916H15.8068V37.8721ZM22.4906 44.0879C23.1888 44.0879 23.7699 43.7852 24.0873 43.248H24.1703V44H25.181V40.3721C25.181 39.2588 24.4291 38.5947 23.0961 38.5947C21.89 38.5947 21.0306 39.1758 20.9232 40.0693H21.9388C22.056 39.6836 22.4613 39.4639 23.0472 39.4639C23.765 39.4639 24.1361 39.791 24.1361 40.3721V40.8359L22.6957 40.9238C21.431 41.002 20.7181 41.5537 20.7181 42.5059C20.7181 43.4727 21.4652 44.0879 22.4906 44.0879ZM22.7592 43.2432C22.1879 43.2432 21.7728 42.9551 21.7728 42.4619C21.7728 41.9785 22.1049 41.7197 22.8373 41.6709L24.1361 41.583V42.042C24.1361 42.7256 23.5502 43.2432 22.7592 43.2432ZM26.8063 37.3594V38.7119H25.9615V39.5518H26.8063V42.6035C26.8063 43.624 27.2701 44.0342 28.4371 44.0342C28.6422 44.0342 28.8375 44.0098 29.0084 43.9805V43.1455C28.8619 43.1602 28.7692 43.1699 28.608 43.1699C28.0856 43.1699 27.8561 42.9209 27.8561 42.3496V39.5518H29.0084V38.7119H27.8561V37.3594H26.8063ZM33.4315 42.5791C33.2362 43.0088 32.8016 43.2432 32.1669 43.2432C31.327 43.2432 30.785 42.6377 30.7508 41.6758V41.627H34.5057V41.2656C34.5057 39.6055 33.6122 38.5947 32.1327 38.5947C30.6337 38.5947 29.6815 39.6738 29.6815 41.3584C29.6815 43.0527 30.6141 44.1025 32.1376 44.1025C33.3534 44.1025 34.2128 43.5166 34.4422 42.5791H33.4315ZM32.1278 39.4492C32.9042 39.4492 33.412 40.0107 33.4364 40.8701H30.7508C30.8094 40.0156 31.3514 39.4492 32.1278 39.4492Z" fill="url(#paint1_linear)"/>
<defs>
<linearGradient id="paint0_linear" x1="25.2132" y1="8.62109" x2="25.2132" y2="29.7109" gradientUnits="userSpaceOnUse">
<stop stop-color="#D3C095"/>
<stop offset="1" stop-color="#A07923"/>
</linearGradient>
<linearGradient id="paint1_linear" x1="24.4165" y1="34" x2="24.4165" y2="46" gradientUnits="userSpaceOnUse">
<stop stop-color="#D3C095"/>
<stop offset="1" stop-color="#A07923"/>
</linearGradient>
</defs>
</svg>
