<svg width="40" height="32" viewBox="0 0 40 32" fill="none" xmlns="http://www.w3.org/2000/svg">
<path d="M0.341797 29.1104C0.424805 30.3262 1.4502 31.1172 2.98828 31.1172C4.56543 31.1172 5.59082 30.3018 5.59082 28.998C5.59082 28.002 5.00977 27.416 3.54004 27.0938L2.75879 26.9229C1.79688 26.7129 1.4209 26.332 1.4209 25.7754C1.4209 25.0576 2.09961 24.6279 2.97852 24.6279C3.89648 24.6279 4.50684 25.1016 4.58496 25.873H5.46387C5.4248 24.6768 4.40918 23.8369 3.00293 23.8369C1.54297 23.8369 0.517578 24.6523 0.517578 25.8145C0.517578 26.8154 1.12793 27.4551 2.53906 27.7627L3.32031 27.9336C4.29688 28.1484 4.6875 28.5391 4.6875 29.1299C4.6875 29.8232 3.99414 30.3262 3.03711 30.3262C2.02637 30.3262 1.32324 29.8672 1.2207 29.1104H0.341797ZM6.7627 24.6963V25.9219H6.00586V26.6201H6.7627V29.6816C6.7627 30.6582 7.12402 31.0391 8.05664 31.0391C8.25684 31.0391 8.49121 31.0244 8.59375 31V30.2871C8.53516 30.2969 8.33984 30.3115 8.24219 30.3115C7.80762 30.3115 7.6123 30.1016 7.6123 29.6377V26.6201H8.59863V25.9219H7.6123V24.6963H6.7627ZM10.8936 31.0879C11.5771 31.0879 12.2217 30.707 12.5244 30.126H12.5439V31H13.3496V27.4893C13.3496 26.4785 12.5977 25.834 11.4062 25.834C10.2051 25.834 9.45312 26.5078 9.39453 27.3867H10.2148C10.3223 26.8887 10.7324 26.5811 11.3867 26.5811C12.0898 26.5811 12.5 26.9521 12.5 27.5723V27.9971L11.0449 28.0801C9.87305 28.1484 9.2041 28.6953 9.2041 29.5645C9.2041 30.4775 9.88281 31.0879 10.8936 31.0879ZM11.084 30.3652C10.4736 30.3652 10.0684 30.0479 10.0684 29.5645C10.0684 29.0859 10.459 28.7832 11.1426 28.7393L12.5 28.6562V29.0713C12.5 29.8037 11.8848 30.3652 11.084 30.3652ZM14.4287 31H15.2783V27.8359C15.2783 27.1182 15.708 26.6445 16.3672 26.6445C16.5723 26.6445 16.7529 26.6689 16.8213 26.6934V25.8682C16.7529 25.8584 16.626 25.834 16.4795 25.834C15.8838 25.834 15.415 26.1904 15.249 26.752H15.2295V25.9219H14.4287V31ZM17.9834 24.6963V25.9219H17.2266V26.6201H17.9834V29.6816C17.9834 30.6582 18.3447 31.0391 19.2773 31.0391C19.4775 31.0391 19.7119 31.0244 19.8145 31V30.2871C19.7559 30.2969 19.5605 30.3115 19.4629 30.3115C19.0283 30.3115 18.833 30.1016 18.833 29.6377V26.6201H19.8193V25.9219H18.833V24.6963H17.9834ZM27.1875 30.209H23.7891V23.9541H22.9102V31H27.1875V30.209ZM28.4912 25.0186C28.7891 25.0186 29.0234 24.7793 29.0234 24.4863C29.0234 24.1885 28.7891 23.9541 28.4912 23.9541C28.1982 23.9541 27.959 24.1885 27.959 24.4863C27.959 24.7793 28.1982 25.0186 28.4912 25.0186ZM28.0664 31H28.916V25.9219H28.0664V31ZM34.2285 25.9219H33.3447L31.9385 30.0967H31.9189L30.5176 25.9219H29.624L31.4941 31H32.3633L34.2285 25.9219ZM38.1201 29.5449C37.9785 30.0234 37.5049 30.3506 36.8604 30.3506C35.9473 30.3506 35.376 29.7109 35.376 28.7393V28.6904H39.0186V28.3682C39.0186 26.8301 38.1738 25.834 36.8018 25.834C35.4004 25.834 34.502 26.9033 34.502 28.4805C34.502 30.0771 35.3857 31.0879 36.8408 31.0879C37.9492 31.0879 38.8086 30.4336 38.9551 29.5449H38.1201ZM36.7871 26.5713C37.5879 26.5713 38.1201 27.1768 38.1396 28.0264H35.3809C35.4346 27.1816 35.9912 26.5713 36.7871 26.5713Z" fill="#EBEBF5"/>
<path fill-rule="evenodd" clip-rule="evenodd" d="M7 5H19C20.1046 5 21 5.89543 21 7V8.38197L27 5.38197V18.618L21 15.618V17C21 18.1046 20.1046 19 19 19H7C5.89543 19 5 18.1046 5 17V7C5 5.89543 5.89543 5 7 5ZM21 13.382L25 15.382V8.61803L21 10.618V13.382ZM7 7V17H19V7H7Z" fill="#CAAA65"/>
</svg>
