<svg width="76" height="32" viewBox="0 0 76 32" fill="none" xmlns="http://www.w3.org/2000/svg">
<path d="M46.9399 24.5624L40.4474 18.0699C41.4549 16.7675 41.9999 15.175 41.9999 13.5C41.9999 11.495 41.2174 9.61498 39.8024 8.19749C38.3874 6.78 36.5025 6 34.5 6C32.4975 6 30.6125 6.7825 29.1975 8.19749C27.78 9.61248 27 11.495 27 13.5C27 15.5025 27.7825 17.3874 29.1975 18.8024C30.6125 20.2199 32.495 20.9999 34.5 20.9999C36.175 20.9999 37.765 20.4549 39.0674 19.4499L45.5599 25.9399C45.579 25.959 45.6016 25.9741 45.6264 25.9844C45.6513 25.9947 45.678 26 45.7049 26C45.7318 26 45.7585 25.9947 45.7834 25.9844C45.8083 25.9741 45.8309 25.959 45.8499 25.9399L46.9399 24.8524C46.959 24.8334 46.9741 24.8108 46.9844 24.7859C46.9947 24.761 47 24.7343 47 24.7074C47 24.6805 46.9947 24.6538 46.9844 24.6289C46.9741 24.6041 46.959 24.5815 46.9399 24.5624ZM38.46 17.46C37.4 18.5174 35.995 19.0999 34.5 19.0999C33.005 19.0999 31.6 18.5174 30.54 17.46C29.4825 16.4 28.9 14.995 28.9 13.5C28.9 12.005 29.4825 10.5975 30.54 9.53998C31.6 8.48249 33.005 7.89999 34.5 7.89999C35.995 7.89999 37.4025 8.47999 38.46 9.53998C39.5174 10.6 40.0999 12.005 40.0999 13.5C40.0999 14.995 39.5174 16.4025 38.46 17.46Z" fill="url(#paint0_linear)"/>
<defs>
<linearGradient id="paint0_linear" x1="37" y1="6" x2="37" y2="26" gradientUnits="userSpaceOnUse">
<stop stop-color="#D3C095"/>
<stop offset="1" stop-color="#A07923"/>
</linearGradient>
</defs>
</svg>
