<svg width="36" height="36" viewBox="0 0 36 36" fill="none" xmlns="http://www.w3.org/2000/svg">
<path d="M24.75 6.56982C26.4069 6.56982 27.75 5.22668 27.75 3.56982C27.75 1.91297 26.4069 0.569824 24.75 0.569824C23.0931 0.569824 21.75 1.91297 21.75 3.56982C21.75 5.22668 23.0931 6.56982 24.75 6.56982Z" fill="white"/>
<path d="M36.0002 17.8202V10.7702L28.4252 7.56023C26.9702 6.94523 25.2902 7.47023 24.4502 8.82023L22.9502 11.2202C21.9452 12.9902 20.0852 14.3102 17.8352 14.7002L17.9252 14.7902C18.9602 15.8252 20.2052 16.3952 21.6152 16.5452C22.8152 15.9152 23.8952 15.0752 24.7502 14.0852L25.6502 18.5852L23.9102 20.2352L22.5002 21.5702V32.8202H25.5002V23.8202L28.6502 20.8202L31.3502 32.8202H34.5002L31.2302 16.3202L30.3002 11.6702L33.0002 12.7202V17.8202H36.0002ZM15.4352 12.1352C15.7652 12.3602 16.1402 12.4952 16.5152 12.5702C16.7102 12.6002 16.8902 12.6302 17.0852 12.6302C17.2802 12.6302 17.4752 12.6152 17.6552 12.5702C17.8502 12.5402 18.0302 12.4802 18.2102 12.4052C18.5702 12.2552 18.9152 12.0452 19.2002 11.7452C19.9352 11.0102 20.2052 9.99023 20.0252 9.04523C19.9202 8.49023 19.6502 7.93523 19.2002 7.50023C18.9152 7.21523 18.5702 6.99023 18.2102 6.84023C18.0302 6.76523 17.8502 6.70523 17.6552 6.67523C17.4602 6.64523 17.2802 6.61523 17.0852 6.61523C16.9052 6.61523 16.7402 6.63023 16.5602 6.66023C16.3502 6.69023 16.1402 6.75023 15.9452 6.82523C15.6002 6.99023 15.2552 7.21523 14.9702 7.50023C14.5202 7.93523 14.2502 8.49023 14.1452 9.04523C13.9652 9.99023 14.2352 11.0102 14.9702 11.7452C15.1052 11.8952 15.2702 12.0152 15.4352 12.1352Z" fill="white"/>
<path d="M16.8602 15.8402L13.8602 12.8402C13.7102 12.6902 13.5602 12.5702 13.3952 12.4502C13.0672 12.2389 12.6998 12.096 12.3152 12.0302C12.1202 11.9852 11.9402 11.9702 11.7452 11.9702C10.9802 11.9702 10.2152 12.2702 9.6302 12.8552L4.6202 17.8652C4.0052 18.4802 3.6902 19.3352 3.7502 20.1752C3.7502 20.4452 3.8102 20.7302 3.9152 21.0002L5.5202 25.4252L0.0751953 30.8702L2.1902 33.0002L8.55019 26.6402V23.3102L10.5002 25.1252V32.8202H13.5002V23.8202L10.3202 20.6402L13.8602 17.1002L14.9252 18.1652C16.8602 20.0552 19.3802 21.2252 22.4702 21.2252L22.2602 18.1202C20.0102 18.0902 18.2102 17.1902 16.8602 15.8402Z" fill="white"/>
</svg>
