<svg width="36" height="36" viewBox="0 0 36 36" fill="none" xmlns="http://www.w3.org/2000/svg">
<path d="M26.9175 21.4155C26.3791 19.4638 25.2152 17.7425 23.6044 16.5159C21.9936 15.2893 20.0248 14.625 18.0001 14.625C15.9755 14.625 14.0067 15.2893 12.3959 16.5159C10.7851 17.7425 9.62118 19.4638 9.08277 21.4155L7.7997 26.0667C7.56933 26.9018 7.53496 27.7789 7.69927 28.6294C7.86358 29.48 8.22213 30.2811 8.74697 30.9704C9.2718 31.6596 9.94873 32.2183 10.725 32.6028C11.5012 32.9874 12.3558 33.1875 13.2221 33.1875H22.7782C23.6445 33.1875 24.4991 32.9874 25.2753 32.6028C26.0516 32.2183 26.7285 31.6596 27.2533 30.9704C27.7782 30.2811 28.1367 29.48 28.301 28.6294C28.4653 27.7789 28.431 26.9018 28.2006 26.0667L26.9175 21.4155ZM25.4633 29.6069C25.1498 30.022 24.7439 30.3583 24.2779 30.5893C23.8118 30.8202 23.2983 30.9395 22.7782 30.9375H13.2221C12.7023 30.9375 12.1896 30.8175 11.7238 30.5867C11.2581 30.356 10.8519 30.0208 10.537 29.6072C10.2221 29.1937 10.0069 28.713 9.90836 28.2027C9.80978 27.6923 9.8304 27.1661 9.96863 26.665L11.2517 22.0139C11.6592 20.5368 12.54 19.2343 13.759 18.306C14.978 17.3777 16.4679 16.875 18.0001 16.875C19.5324 16.875 21.0223 17.3777 22.2413 18.306C23.4603 19.2343 24.3411 20.5368 24.7486 22.0139L26.0317 26.665C26.1719 27.1659 26.1935 27.6925 26.0949 28.2032C25.9962 28.7139 25.78 29.1946 25.4633 29.6072V29.6069Z" fill="white"/>
<path d="M10.2725 16.1939C10.4682 14.9704 10.2086 13.6607 9.54123 12.5051C8.87383 11.3494 7.8692 10.4697 6.71207 10.0275C5.47288 9.55426 4.20894 9.62964 3.15187 10.2397C1.05044 11.453 0.497428 14.4433 1.91936 16.9056C2.58655 18.0613 3.59125 18.9412 4.74838 19.3832C5.26097 19.5829 5.80581 19.6871 6.35594 19.6905C7.0413 19.693 7.71507 19.5137 8.30858 19.171C9.36503 18.5609 10.0625 17.5036 10.2725 16.1939ZM8.05061 15.8382C7.95006 16.4661 7.64209 16.9576 7.18344 17.2224C6.7248 17.4872 6.14514 17.508 5.551 17.2813C4.87508 17.0231 4.27729 16.4902 3.86765 15.7806C3.08015 14.4166 3.26732 12.7713 4.27687 12.1882C4.53065 12.0442 4.81807 11.97 5.10986 11.9732C5.38357 11.9761 5.65445 12.0289 5.90917 12.1291C6.58508 12.3874 7.18288 12.9203 7.59252 13.6298C8.00216 14.3393 8.1648 15.1238 8.05061 15.8382Z" fill="white"/>
<path d="M10.5165 11.5324C11.3154 12.1711 12.2277 12.5037 13.1503 12.5036C13.4267 12.5035 13.7022 12.4738 13.9722 12.4149C16.3433 11.8995 17.781 9.21973 17.177 6.44133C16.8937 5.13731 16.2048 3.99326 15.2373 3.21975C14.2012 2.39147 12.974 2.07795 11.7816 2.33726C9.41053 2.85265 7.97285 5.5324 8.57677 8.3108C8.8602 9.61488 9.54912 10.7589 10.5165 11.5324ZM12.2595 4.53593C12.3688 4.51236 12.4803 4.50057 12.5922 4.50078C13.0104 4.50078 13.4406 4.66439 13.8323 4.97756C14.3974 5.42932 14.8044 6.11902 14.9784 6.91967C15.3131 8.45916 14.6334 9.96898 13.4943 10.2166C12.9767 10.3291 12.4181 10.1725 11.9216 9.77541C11.3565 9.32358 10.9495 8.63388 10.7755 7.83331C10.4408 6.29339 11.1204 4.78357 12.2595 4.53593Z" fill="white"/>
<path d="M32.8481 10.2397C31.7914 9.62964 30.5268 9.55426 29.2878 10.0275C28.1307 10.4696 27.126 11.3494 26.4588 12.5051C25.7916 13.6607 25.532 14.9707 25.7276 16.1939C25.9372 17.5036 26.6346 18.5609 27.6915 19.171C28.285 19.5138 28.9588 19.693 29.6441 19.6905C30.1942 19.6871 30.7391 19.5829 31.2517 19.3832C32.4088 18.9412 33.4135 18.0613 34.0807 16.9056C35.5025 14.4433 34.9495 11.453 32.8481 10.2397ZM32.1323 15.7806C31.7226 16.4902 31.1248 17.0231 30.4489 17.2813C29.8551 17.5082 29.2753 17.4873 28.8166 17.2224C28.358 16.9575 28.0502 16.4661 27.9495 15.8382C27.8351 15.1238 27.9977 14.3396 28.4074 13.6304C28.8171 12.9212 29.4148 12.388 30.0907 12.1297C30.3454 12.0294 30.6163 11.9765 30.8901 11.9736C31.1818 11.9704 31.4693 12.0446 31.7231 12.1886C32.7326 12.7711 32.92 14.4162 32.1323 15.7806Z" fill="white"/>
<path d="M22.0282 12.4148C22.2982 12.4737 22.5738 12.5034 22.8501 12.5035C23.7726 12.5035 24.6853 12.171 25.4839 11.5323C26.4513 10.7589 27.1402 9.61477 27.4236 8.31075C28.0276 5.53235 26.5899 2.8526 24.2188 2.33721C23.0265 2.07804 21.7992 2.39135 20.7632 3.2197C19.7957 3.99314 19.1067 5.13727 18.8234 6.44121C18.2194 9.21961 19.6571 11.8994 22.0282 12.4148ZM21.022 6.9192C21.196 6.11855 21.603 5.42857 22.1681 4.97709C22.5599 4.66392 22.99 4.5003 23.4082 4.5003C23.5201 4.5001 23.6316 4.51189 23.741 4.53546C24.88 4.7831 25.5597 6.29327 25.225 7.83241C25.051 8.63306 24.6439 9.32304 24.079 9.77459C23.5825 10.1716 23.0243 10.3282 22.5063 10.2158C21.367 9.96851 20.6874 8.45848 21.022 6.9192Z" fill="white"/>
</svg>
