<svg width="27" height="27" viewBox="0 0 27 27" fill="none" xmlns="http://www.w3.org/2000/svg">
<path d="M17.6414 9.35857V3.95377C17.6438 2.89311 17.9535 1.85586 18.5332 0.967623C16.0777 -0.0152576 13.3877 -0.255866 10.7968 0.275627C8.20581 0.80712 5.82781 2.08734 3.95758 3.95758C2.08734 5.82781 0.80712 8.20581 0.275627 10.7968C-0.255866 13.3877 -0.0152576 16.0777 0.967623 18.5332C1.85586 17.9535 2.89311 17.6438 3.95377 17.6414H9.35857V23.0462C9.35624 24.1069 9.04647 25.1441 8.46678 26.0324C10.9223 27.0153 13.6123 27.2559 16.2032 26.7244C18.7942 26.1929 21.1722 24.9127 23.0424 23.0424C24.9127 21.1722 26.1929 18.7942 26.7244 16.2032C27.2559 13.6123 27.0153 10.9223 26.0324 8.46678C25.1441 9.04647 24.1069 9.35624 23.0462 9.35857H17.6414ZM12.142 5.39956H14.1688V7.42636H16.1956V9.45316H12.142V5.39956ZM7.41284 16.2092V14.1824H5.38605V12.1556H9.43964V16.2092H7.41284ZM18.7494 18.7764C17.6853 19.8212 16.3314 20.5217 14.8639 20.7867C13.3963 21.0518 11.883 20.8692 10.5206 20.2628L20.2492 10.5341C20.854 11.8978 21.0344 13.412 20.7669 14.8796C20.4994 16.3472 19.7964 17.7003 18.7494 18.7629V18.7764ZM3.88621 25.7756C3.16949 25.7756 2.48213 25.4909 1.97533 24.9841C1.46853 24.4773 1.18382 23.79 1.18382 23.0732C1.18382 22.3565 1.46853 21.6692 1.97533 21.1624C2.48213 20.6556 3.16949 20.3708 3.88621 20.3708H6.58861V23.0732C6.58523 23.7784 6.30638 24.4542 5.81159 24.9566C5.31679 25.459 4.64524 25.748 3.94026 25.7621L3.88621 25.7756ZM23.0462 1.25137C23.7629 1.25137 24.4503 1.53609 24.9571 2.04289C25.4639 2.54969 25.7486 3.23705 25.7486 3.95377C25.7486 4.67049 25.4639 5.35786 24.9571 5.86466C24.4503 6.37146 23.7629 6.65617 23.0462 6.65617H20.3438V3.95377C20.3438 3.23705 20.6285 2.54969 21.1353 2.04289C21.6421 1.53609 22.3295 1.25137 23.0462 1.25137Z" fill="white"/>
</svg>
