<svg width="30" height="28" viewBox="0 0 30 28" fill="none" xmlns="http://www.w3.org/2000/svg">
<path d="M24 12.5C24 11.0615 22.98 9.8585 21.6285 9.569C22.1685 8.6675 22.5 7.625 22.5 6.5C22.5 3.191 19.809 0.5 16.5 0.5C14.226 0.5 12.267 1.7855 11.25 3.656C10.233 1.7855 8.274 0.5 6 0.5C2.691 0.5 0 3.191 0 6.5C0 7.853 0.468 9.089 1.2255 10.094C0.846795 10.3708 0.538534 10.7328 0.325639 11.1508C0.112745 11.5687 0.00119194 12.0309 0 12.5V24.5C0 26.1545 1.3455 27.5 3 27.5H21C22.6545 27.5 24 26.1545 24 24.5V20.5445L30 23.5445V13.0445L24 16.0445V12.5ZM16.5 3.5C18.1545 3.5 19.5 4.8455 19.5 6.5C19.5 8.1545 18.1545 9.5 16.5 9.5C14.8455 9.5 13.5 8.1545 13.5 6.5C13.5 4.8455 14.8455 3.5 16.5 3.5ZM6 3.5C7.6545 3.5 9 4.8455 9 6.5C9 8.1545 7.6545 9.5 6 9.5C4.3455 9.5 3 8.1545 3 6.5C3 4.8455 4.3455 3.5 6 3.5Z" fill="white"/>
</svg>
