<svg width="31" height="30" viewBox="0 0 31 30" fill="none" xmlns="http://www.w3.org/2000/svg">
<path d="M9.16494 26.1751C7.50641 25.5642 6.03049 24.5416 4.87593 23.2033C3.72137 21.8651 2.92612 20.2552 2.56494 18.5251L0.0749413 6.81007C-0.285059 5.19007 0.749941 3.60007 2.36994 3.25507L17.0249 0.150071L17.0699 0.135071C18.6749 -0.179929 20.2499 0.855071 20.5799 2.44507L21.1049 4.95007L27.6299 6.34507H27.6749C29.2499 6.70507 30.2699 8.29507 29.9399 9.88507L27.4499 21.6151C27.1625 22.9625 26.6125 24.2402 25.8312 25.375C25.05 26.5099 24.0528 27.4797 22.8967 28.2291C21.7405 28.9785 20.4481 29.4928 19.0931 29.7426C17.7382 29.9924 16.3473 29.9729 14.9999 29.6851C12.7142 29.208 10.6574 27.9708 9.16494 26.1751ZM26.9999 9.27007L12.3449 6.15007L9.85494 17.8801V17.9251C8.99994 21.9451 11.5949 25.9051 15.6299 26.7601C19.6649 27.6151 23.6549 25.0351 24.5099 21.0001L26.9999 9.27007ZM20.9999 21.7501C20.5261 22.5523 19.812 23.1852 18.9587 23.5594C18.1054 23.9336 17.1561 24.03 16.2449 23.8351C15.3367 23.6407 14.5117 23.1677 13.8852 22.482C13.2587 21.7963 12.8618 20.9321 12.7499 20.0101L20.9999 21.7501ZM9.70494 4.75507L2.99994 6.19507L5.48994 17.9101L5.50494 17.9551C5.72994 19.0201 6.17994 19.9801 6.79494 20.8051C6.64494 19.6501 6.67494 18.4501 6.92994 17.2501L7.57494 14.2501C6.89994 14.1301 6.31494 13.7551 5.99994 13.2151C6.08994 12.3001 6.83994 11.4901 7.87494 11.2501H8.24994L9.41994 5.53507C9.47994 5.25007 9.56994 4.99507 9.70494 4.75507ZM19.5449 15.3451C20.0249 14.5501 21.0449 14.1301 22.0799 14.3551C23.1149 14.5651 23.8649 15.3601 23.9999 16.2901C23.5049 17.0701 22.4999 17.4901 21.4499 17.2501C20.4149 17.0551 19.6649 16.2601 19.5449 15.3451ZM12.2249 13.7851C12.7049 12.9901 13.7099 12.5701 14.7449 12.7951C15.7499 13.0051 16.5449 13.8151 16.6649 14.7301C16.1699 15.5101 15.1649 15.9451 14.1299 15.7501C13.0949 15.4951 12.3449 14.7001 12.2249 13.7851ZM14.9549 3.64507L17.8949 4.27507L17.6549 3.07507L14.9549 3.64507Z" fill="white"/>
</svg>
