<svg width="36" height="36" viewBox="0 0 36 36" fill="none" xmlns="http://www.w3.org/2000/svg">
<g clip-path="url(#clip0_4741_2098)">
<path d="M25.8522 31.5044C23.0659 31.5044 20.6834 30.5151 18.7049 28.5366C16.7263 26.558 15.7371 24.1756 15.7371 21.3893C15.7371 21.038 15.7605 20.6634 15.8073 20.2654H26.4141C26.6483 20.0078 26.8181 19.2585 26.9234 18.0176C27.0288 16.7766 26.9761 16.0273 26.7654 15.7698L24.3771 11.3795C24.9156 11.3093 25.4073 11.2741 25.8522 11.2741C28.6385 11.2741 31.021 12.2634 32.9995 14.242C34.9781 16.2205 35.9673 18.6029 35.9673 21.3893C35.9673 24.1756 34.9781 26.558 32.9995 28.5366C31.021 30.5151 28.6385 31.5044 25.8522 31.5044ZM24.3771 18.0176H5.93805C5.7039 17.7834 5.58683 17.4907 5.58683 17.1395C5.58683 16.7883 5.7039 16.4839 5.93805 16.2263L14.3673 0.386341C14.5781 0.12878 14.8415 0 15.1576 0C15.4737 0 15.7371 0.12878 15.9478 0.386341L24.3771 16.2263C24.6112 16.4839 24.7224 16.7883 24.7107 17.1395C24.699 17.4907 24.5878 17.7834 24.3771 18.0176ZM13.4893 21.3893C13.4893 23.2859 13.8873 25.0595 14.6834 26.7102C15.4795 28.361 16.58 29.7717 17.9849 30.9424V34.8761C17.9849 35.1805 17.8737 35.4439 17.6512 35.6663C17.4288 35.8888 17.1654 36 16.861 36H1.12634C0.821954 36 0.558539 35.8888 0.3361 35.6663C0.113661 35.4439 0.00244141 35.1805 0.00244141 34.8761V19.1415C0.00244141 18.8371 0.113661 18.5737 0.3361 18.3512C0.558539 18.1288 0.821954 18.0176 1.12634 18.0176H3.40927C3.50293 19.2585 3.66683 20.0078 3.90098 20.2654H13.5595C13.5127 20.8273 13.4893 21.202 13.4893 21.3893Z" fill="white"/>
</g>
<defs>
<clipPath id="clip0_4741_2098">
<rect width="35.97" height="36" fill="white"/>
</clipPath>
</defs>
</svg>
