<svg width="31" height="30" viewBox="0 0 31 30" fill="none" xmlns="http://www.w3.org/2000/svg">
<path d="M21 3C21 1.335 22.335 0 24 0C25.665 0 27 1.335 27 3C27 4.665 25.665 6 24 6C22.335 6 21 4.665 21 3ZM27 30V21H30.75L26.94 9.555C26.7393 8.95757 26.3565 8.43804 25.8453 8.06943C25.3341 7.70083 24.7202 7.50169 24.09 7.5H23.91C23.2792 7.49943 22.6643 7.69769 22.1527 8.06661C21.641 8.43553 21.2587 8.95634 21.06 9.555L19.77 13.425C21.39 14.325 22.5 16.02 22.5 18V30H27ZM15.75 14.25C16.995 14.25 18 13.245 18 12C18 10.755 16.995 9.75 15.75 9.75C14.505 9.75 13.5 10.755 13.5 12C13.5 13.245 14.505 14.25 15.75 14.25ZM5.25 6C6.915 6 8.25 4.665 8.25 3C8.25 1.335 6.915 0 5.25 0C3.585 0 2.25 1.335 2.25 3C2.25 4.665 3.585 6 5.25 6ZM8.25 30V19.5H10.5V10.5C10.5 8.85 9.15 7.5 7.5 7.5H3C1.35 7.5 0 8.85 0 10.5V19.5H2.25V30H8.25ZM18 30V24H19.5V18C19.5 16.77 18.48 15.75 17.25 15.75H14.25C13.02 15.75 12 16.77 12 18V24H13.5V30H18Z" fill="white"/>
</svg>
