<svg width="28" height="30" viewBox="0 0 28 30" fill="none" xmlns="http://www.w3.org/2000/svg">
<path d="M0.5 13.5V25.5H0.5765C0.944 28.038 3.1115 30 5.75 30C7.511 30 8.861 29.3745 9.758 28.239C10.3158 28.7991 10.9791 29.2431 11.7095 29.5455C12.4398 29.8478 13.2229 30.0025 14.0134 30.0005C14.8039 29.9986 15.5861 29.84 16.315 29.5341C17.0439 29.2281 17.7049 28.7808 18.26 28.218C19.1615 29.361 20.516 30 22.25 30C25.145 30 27.5 27.645 27.5 24.75V13.5C27.5 6.057 21.4445 0 14 0C6.5555 0 0.5 6.057 0.5 13.5ZM9.5 15C7.8455 15 6.5 13.6545 6.5 12C6.5 10.3455 7.8455 9 9.5 9C11.1545 9 12.5 10.3455 12.5 12C12.5 13.6545 11.1545 15 9.5 15ZM18.5 9C20.1545 9 21.5 10.3455 21.5 12C21.5 13.6545 20.1545 15 18.5 15C16.8455 15 15.5 13.6545 15.5 12C15.5 10.3455 16.8455 9 18.5 9Z" fill="white"/>
</svg>
