<svg width="28" height="32" viewBox="0 0 28 32" fill="none" xmlns="http://www.w3.org/2000/svg">
<path d="M26.6799 4.16C24.7599 0.86 16.0799 0.16 15.0999 0.0699999L13.9999 0V20.29C13.7457 20.0845 13.4747 19.9005 13.1899 19.74C12.1855 19.2345 11.0891 18.9375 9.96683 18.867C8.84457 18.7966 7.71966 18.9541 6.65989 19.33C2.53989 20.66 -0.110109 24.46 0.749891 27.8C0.941561 28.5064 1.27666 29.1657 1.7343 29.7369C2.19194 30.3081 2.76232 30.7789 3.40989 31.12C4.52005 31.7123 5.7617 32.015 7.01989 32C8.0324 31.9992 9.03832 31.8371 9.99989 31.52C13.6999 30.33 16.1999 27.15 16.0599 24.1V6.49C17.0599 6.61 18.4299 6.82 19.8799 7.13C21.3152 7.34819 22.6943 7.8441 23.9399 8.59C24.9399 9.25 24.3199 10.49 24.2699 10.59C23.7919 11.3158 23.2352 11.9865 22.6099 12.59C22.428 12.7704 22.3223 13.0136 22.3145 13.2696C22.3067 13.5257 22.3974 13.7749 22.568 13.966C22.7386 14.1571 22.9759 14.2754 23.2312 14.2966C23.4865 14.3179 23.7401 14.2403 23.9399 14.08C24.1499 13.85 29.4999 9 26.6799 4.16Z" fill="white"/>
</svg>
