<svg width="26" height="31" viewBox="0 0 26 31" fill="none" xmlns="http://www.w3.org/2000/svg">
<path d="M13 0C16.3815 0 19.6245 1.3433 22.0156 3.73439C24.4067 6.12548 25.75 9.36849 25.75 12.75C25.75 22.5 17.5 30.75 13 30.75C8.5 30.75 0.25 22.5 0.25 12.75C0.25 9.36849 1.5933 6.12548 3.98439 3.73439C6.37548 1.3433 9.61849 0 13 0ZM21.25 15C20.3035 15 19.3675 15.199 18.5029 15.5842C17.6383 15.9694 16.8643 16.5321 16.2313 17.2359C15.5983 17.9396 15.1204 18.7686 14.8286 19.6691C14.5368 20.5695 14.4376 21.5212 14.5375 22.4625C15.5386 22.5688 16.5508 22.4498 17.5 22.1143C18.4492 21.7787 19.3113 21.2351 20.0232 20.5232C20.7351 19.8113 21.2787 18.9492 21.6143 18C21.9498 17.0508 22.0688 16.0386 21.9625 15.0375C21.7258 15.0126 21.488 15.0001 21.25 15ZM4.75 15C4.51 15 4.2715 15.012 4.0375 15.0375C3.9312 16.0386 4.05018 17.0508 4.38573 18C4.72129 18.9492 5.26491 19.8113 5.9768 20.5232C6.68868 21.2351 7.55078 21.7787 8.49997 22.1143C9.44915 22.4498 10.4614 22.5688 11.4625 22.4625C11.5624 21.5212 11.4632 20.5695 11.1714 19.6691C10.8796 18.7686 10.4017 17.9396 9.7687 17.2359C9.13569 16.5321 8.36175 15.9694 7.49713 15.5842C6.63251 15.199 5.69654 15 4.75 15Z" fill="white"/>
</svg>
