<svg width="30" height="30" viewBox="0 0 30 30" fill="none" xmlns="http://www.w3.org/2000/svg">
<path d="M27.3706 1.55087C27.2671 1.52387 24.7576 0.901367 21.2926 0.901367C17.0296 0.901367 10.9906 1.86137 6.42762 6.43187C-1.58238 14.4554 1.41762 26.8469 1.54962 27.3719C1.61599 27.6352 1.75262 27.8757 1.94494 28.0675C2.13727 28.2592 2.37806 28.3952 2.64162 28.4609C2.74512 28.4879 5.23062 29.0999 8.66862 29.0999C12.9421 29.0999 18.9946 28.1384 23.5666 23.5679C31.5691 15.5654 28.5931 3.16787 28.4626 2.64437C28.3962 2.38052 28.2596 2.13956 28.0674 1.94705C27.8751 1.75453 27.6344 1.61763 27.3706 1.55087ZM22.0651 15.4439L19.9441 17.5649L17.2546 14.8769L14.8756 17.2559L17.5636 19.9454L15.4426 22.0664L12.7546 19.3769L10.0651 22.0664L7.94412 19.9454L10.6336 17.2559L7.94412 14.5649L10.0651 12.4439L12.7546 15.1349L15.1336 12.7559L12.4426 10.0664L14.5636 7.94537L17.2546 10.6349L19.9441 7.94537L22.0651 10.0664L19.3756 12.7559L22.0651 15.4439Z" fill="white"/>
</svg>
