<svg width="23" height="31" viewBox="0 0 23 31" fill="none" xmlns="http://www.w3.org/2000/svg">
<path d="M6.5 0.5C8.0913 0.5 9.61742 1.13214 10.7426 2.25736C11.8679 3.38258 12.5 4.9087 12.5 6.5H0.5C0.5 4.9087 1.13214 3.38258 2.25736 2.25736C3.38258 1.13214 4.9087 0.5 6.5 0.5ZM10.76 10.73L9.5 23H8V24.5C8 25.2956 8.31607 26.0587 8.87868 26.6213C9.44129 27.1839 10.2044 27.5 11 27.5C11.7956 27.5 12.5587 27.1839 13.1213 26.6213C13.6839 26.0587 14 25.2956 14 24.5V17C14 15.4087 14.6321 13.8826 15.7574 12.7574C16.8826 11.6321 18.4087 11 20 11H23L21.5 12.5L23 14H20C19.2044 14 18.4413 14.3161 17.8787 14.8787C17.3161 15.4413 17 16.2044 17 17V24.5C17 26.0913 16.3679 27.6174 15.2426 28.7426C14.1174 29.8679 12.5913 30.5 11 30.5C9.4087 30.5 7.88258 29.8679 6.75736 28.7426C5.63214 27.6174 5 26.0913 5 24.5V23H3.5L2.24 10.73C1.505 9.98 0.965 9.05 0.695 8H12.305C12.035 9.05 11.495 9.98 10.76 10.73ZM6.5 12.5C6.10218 12.5 5.72064 12.658 5.43934 12.9393C5.15804 13.2206 5 13.6022 5 14C5 14.3978 5.15804 14.7794 5.43934 15.0607C5.72064 15.342 6.10218 15.5 6.5 15.5C6.89782 15.5 7.27936 15.342 7.56066 15.0607C7.84196 14.7794 8 14.3978 8 14C8 13.6022 7.84196 13.2206 7.56066 12.9393C7.27936 12.658 6.89782 12.5 6.5 12.5Z" fill="white"/>
</svg>
