<svg width="33" height="32" viewBox="0 0 33 32" fill="none" xmlns="http://www.w3.org/2000/svg">
<path d="M4.51293 0.111816L31.5594 27.1598C31.9815 27.5817 32.2187 28.154 32.2189 28.7508C32.219 29.3476 31.9821 29.92 31.5602 30.3421C31.1383 30.7642 30.566 31.0014 29.9692 31.0015C29.3724 31.0016 28.8 30.7647 28.3779 30.3428L21.4839 23.4473L16.1799 28.7498L9.99993 22.5698V26.4998C9.99993 26.8976 9.8419 27.2792 9.56059 27.5605C9.27929 27.8418 8.89776 27.9998 8.49993 27.9998C8.10211 27.9998 7.72057 27.8418 7.43927 27.5605C7.15797 27.2792 6.99993 26.8976 6.99993 26.4998V20.4998C6.99951 20.1175 6.85311 19.7498 6.59066 19.4718C6.3282 19.1938 5.9695 19.0265 5.58784 19.0041C5.20618 18.9817 4.83036 19.1058 4.53718 19.3512C4.244 19.5966 4.05559 19.9447 4.01043 20.3243L3.99993 20.4998V21.9998C3.99993 22.3976 3.8419 22.7792 3.56059 23.0605C3.27929 23.3418 2.89776 23.4998 2.49993 23.4998C2.10211 23.4998 1.72057 23.3418 1.43927 23.0605C1.15797 22.7792 0.999931 22.3976 0.999931 21.9998V8.82082C0.937618 5.69016 2.10515 2.65984 4.25193 0.380316L4.51293 0.111816Z" fill="white"/>
</svg>
